<svg width="342" height="151" viewBox="0 0 342 151" fill="none" xmlns="http://www.w3.org/2000/svg">
<path fill-rule="evenodd" clip-rule="evenodd" d="M73.8157 28.9172H34.9142C33.4472 28.9172 32.2472 27.8221 32.2472 26.4837C32.2472 25.1453 33.4472 24.0503 34.9142 24.0503H73.8157C75.2826 24.0503 76.4824 25.1453 76.4824 26.4837C76.4824 27.8221 75.2826 28.9172 73.8157 28.9172ZM86.6171 38.7206H22.1498C20.6639 38.7206 19.4827 37.6256 19.4827 36.287C19.4827 34.9487 20.6829 33.8537 22.1498 33.8537H86.6171C88.084 33.8537 89.2842 34.9487 89.2842 36.287C89.2842 37.6256 88.084 38.7206 86.6171 38.7206ZM88.8088 92.6735H19.9409C18.474 92.6735 17.2738 93.7685 17.2738 95.1068C17.2738 96.4451 18.474 97.5404 19.9409 97.5404H88.8088C90.2757 97.5404 91.4762 96.4451 91.4762 95.1068C91.4762 93.7685 90.2757 92.6735 88.8088 92.6735ZM30.6472 102.477H78.1023C79.5693 102.477 80.7698 103.572 80.7502 104.91C80.7502 106.248 79.5504 107.344 78.0835 107.344H30.6472C29.1803 107.344 27.9801 106.248 27.9801 104.91C27.9801 103.572 29.1803 102.477 30.6472 102.477ZM67.3579 112.28H41.3919C39.9249 112.28 38.7248 113.375 38.7248 114.714C38.7248 116.052 39.9249 117.147 41.3919 117.147H67.3579C68.8248 117.147 70.0249 116.052 70.0249 114.714C70.0249 113.375 68.8248 112.28 67.3579 112.28ZM52.1367 122.083H56.6134C58.0803 122.083 59.2805 123.178 59.2805 124.517C59.2805 125.855 58.0803 126.95 56.6134 126.95H52.1367C50.6694 126.95 49.4693 125.855 49.4693 124.517C49.4693 123.178 50.6694 122.083 52.1367 122.083ZM8.45293 58.3271H23.9792C25.4461 58.3271 26.6463 57.2318 26.6463 55.8938C26.6463 54.5555 25.4461 53.4602 23.9792 53.4602H8.43386C6.96697 53.4602 5.76678 54.5555 5.76678 55.8938C5.78585 57.2318 6.96697 58.3271 8.45293 58.3271ZM30.3614 48.5237H12.3776C10.9107 48.5237 9.71056 47.4287 9.71056 46.0904C9.71056 44.7518 10.9107 43.6568 12.3776 43.6568H30.3614C31.8283 43.6568 33.0287 44.7518 33.0287 46.0904C33.0287 47.4287 31.8283 48.5237 30.3614 48.5237ZM33.0287 85.3037C33.0287 83.9654 31.8283 82.8701 30.3614 82.8701H12.3776C10.9107 82.8701 9.71056 83.9654 9.71056 85.3037C9.71056 86.642 10.9107 87.737 12.3776 87.737H30.3614C31.8283 87.737 33.0287 86.642 33.0287 85.3037ZM23.9795 73.0667C25.4464 73.0667 26.6466 74.1617 26.6466 75.5003C26.6466 76.8389 25.4464 77.9339 23.9795 77.9339H8.45323C6.98633 77.9339 5.78615 76.8389 5.78615 75.5003C5.78615 74.1617 6.98633 73.0667 8.45323 73.0667H23.9795ZM22.1506 68.1302C23.6175 68.1302 24.8178 67.0352 24.8178 65.6969C24.8178 64.3583 23.6175 63.2636 22.1506 63.2636H7.21494C5.74804 63.2636 4.54785 64.3583 4.54785 65.6969C4.54785 67.0352 5.74804 68.1302 7.21494 68.1302H22.1506ZM84.7704 58.3271C83.3034 58.3271 82.103 57.2318 82.103 55.8938C82.103 54.5555 83.3034 53.4602 84.7704 53.4602H100.316C101.783 53.4602 102.983 54.5555 102.983 55.8938C102.983 57.2318 101.783 58.3271 100.316 58.3271H84.7704ZM75.7398 46.0904C75.7398 47.4287 76.9403 48.5237 78.4069 48.5237H96.372C97.8386 48.5237 99.0388 47.4287 99.0388 46.0904C99.0388 44.7521 97.8386 43.6568 96.372 43.6568H78.3881C76.9211 43.6568 75.7398 44.7521 75.7398 46.0904ZM78.3884 82.8701H96.372C97.839 82.8701 99.0394 83.9654 99.0394 85.3037C99.0394 86.6423 97.839 87.737 96.372 87.737H78.3884C76.9214 87.737 75.7213 86.6423 75.7213 85.3037C75.7213 83.9654 76.9214 82.8701 78.3884 82.8701ZM100.315 73.0667H84.7886C83.3216 73.0667 82.1215 74.1617 82.1215 75.5003C82.1215 76.8389 83.3216 77.9336 84.7886 77.9336H100.315C101.782 77.9336 102.982 76.8389 102.982 75.5003C102.982 74.1617 101.782 73.0667 100.315 73.0667ZM86.5985 63.2636H101.534C103.02 63.2636 104.201 64.3583 104.201 65.6969C104.201 67.0352 103.001 68.1302 101.534 68.1302H86.5985C85.1316 68.1302 83.9311 67.0352 83.9311 65.6969C83.9311 64.3583 85.1316 63.2636 86.5985 63.2636Z" fill="#EE7038"/>
<path d="M54.438 43.6952C52.971 43.6952 51.7706 44.7905 51.7706 46.1288V59.2694C50.7419 59.6171 49.8279 60.1559 49.0654 60.8513C47.6938 62.1026 46.8367 63.8408 46.8367 65.7356C46.8367 67.6301 47.6938 69.3857 49.0654 70.6196C50.4374 71.8712 52.3423 72.6533 54.4188 72.6533C56.4952 72.6533 58.4194 71.8712 59.7722 70.6196C60.5339 69.9419 61.1246 69.0902 61.5056 68.1515H71.1834C72.6504 68.1515 73.8505 67.0565 73.8505 65.7182C73.8505 64.3799 72.6504 63.2846 71.1834 63.2846H61.5056C61.1246 62.3459 60.5339 61.5116 59.7722 60.8162C59.0292 60.1211 58.0956 59.5823 57.067 59.2349V46.094C57.1051 44.7905 55.9046 43.6952 54.438 43.6952ZM56.0192 67.1954C55.6 67.5779 55.0664 67.8038 54.4188 67.8038C53.7901 67.8038 53.2375 67.5779 52.8187 67.1954C52.3996 66.8132 52.152 66.3263 52.152 65.7356C52.152 65.162 52.3996 64.6577 52.8187 64.2755C53.2375 63.893 53.7709 63.6671 54.4188 63.6671C55.0475 63.6671 55.6 63.893 56.0192 64.2755C56.4383 64.6577 56.6859 65.1443 56.6859 65.7356C56.6859 66.3089 56.4383 66.8132 56.0192 67.1954Z" fill="#EE7038"/>
<path d="M138.527 72.8233V84.6361C138.527 85.6204 138.566 86.4289 138.643 87.0619C138.721 87.6946 138.876 88.2043 139.109 88.591C139.341 88.9426 139.671 89.1889 140.098 89.3293C140.563 89.47 141.164 89.5405 141.901 89.5405C142.599 89.5405 143.297 89.3647 143.995 89.0131C144.693 88.6615 145.352 88.3627 145.972 88.1164C146.671 87.8353 147.291 87.8527 147.834 88.1692C148.377 88.4506 148.648 89.0833 148.648 90.0676C148.648 91.0522 148.435 91.8784 148.008 92.5462C147.582 93.1792 147 93.7066 146.263 94.1284C145.527 94.5151 144.654 94.7962 143.646 94.972C142.677 95.1832 141.61 95.3062 140.447 95.3413C139.167 95.3764 137.965 95.2885 136.84 95.0776C135.716 94.9018 134.727 94.5328 133.874 93.97C133.06 93.4075 132.4 92.6518 131.896 91.7026C131.431 90.718 131.198 89.4526 131.198 87.9055V72.8233H128.872C127.786 72.8233 127.049 72.5596 126.661 72.0322C126.312 71.4697 126.138 70.6786 126.138 69.6592C126.138 68.6044 126.312 67.8484 126.661 67.3915C127.01 66.9343 127.689 66.706 128.697 66.706H131.198V63.9637C131.198 62.8387 131.412 61.9948 131.838 61.4323C132.304 60.8698 133.331 60.5887 134.921 60.5887C136.549 60.5887 137.558 60.8347 137.946 61.327C138.333 61.7839 138.527 62.4694 138.527 63.3835V66.706H144.577C145.934 66.706 146.806 66.952 147.194 67.4443C147.62 67.9012 147.853 68.6395 147.892 69.6592C147.931 70.6786 147.717 71.4697 147.252 72.0322C146.787 72.5596 145.817 72.8233 144.344 72.8233H138.527Z" fill="#111111"/>
<path d="M158.364 92.5991C158.364 93.2672 158.034 93.8825 157.375 94.445C156.716 95.0426 155.824 95.3414 154.699 95.3414C153.575 95.3414 152.683 95.06 152.024 94.4975C151.365 93.935 151.035 93.3023 151.035 92.5991V69.3956C151.035 68.3408 151.423 67.5674 152.198 67.0751C152.974 66.5831 153.808 66.3368 154.699 66.3368C155.591 66.3368 156.425 66.5831 157.201 67.0751C157.976 67.5323 158.364 68.3057 158.364 69.3956V92.5991ZM150.744 60.0086C150.744 58.9892 151.113 58.1453 151.849 57.4772C152.625 56.7743 153.575 56.4227 154.699 56.4227C155.824 56.4227 156.755 56.7743 157.492 57.4772C158.267 58.1453 158.655 58.9892 158.655 60.0086C158.655 61.0283 158.267 61.8896 157.492 62.5928C156.755 63.2606 155.824 63.5945 154.699 63.5945C153.575 63.5945 152.625 63.2606 151.849 62.5928C151.113 61.8896 150.744 61.0283 150.744 60.0086Z" fill="#111111"/>
<path d="M201.885 78.4133C201.885 77.2883 201.807 76.304 201.652 75.4601C201.497 74.6162 201.206 73.9133 200.78 73.3508C200.392 72.7883 199.83 72.3662 199.093 72.0851C198.356 71.8037 197.426 71.6633 196.301 71.6633C195.37 71.6633 194.498 71.751 193.683 71.9268C192.908 72.1026 192.229 72.4367 191.647 72.9287C191.066 73.3859 190.601 74.0363 190.252 74.8799C189.941 75.7238 189.786 76.8137 189.786 78.1496V93.1265C189.786 93.7592 189.437 94.2692 188.739 94.6559C188.08 95.0777 187.207 95.3063 186.122 95.3414C185.036 95.3765 184.144 95.1656 183.446 94.7084C182.787 94.2866 182.457 93.7592 182.457 93.1265V78.4133C182.457 76.1633 182.07 74.4758 181.294 73.3508C180.557 72.2258 179.064 71.6633 176.815 71.6633C175.885 71.6633 175.012 71.751 174.197 71.9268C173.422 72.1026 172.743 72.4367 172.162 72.9287C171.619 73.3859 171.173 74.0363 170.824 74.8799C170.514 75.7238 170.359 76.8137 170.359 78.1496V93.1265C170.359 93.7592 170.01 94.2866 169.312 94.7084C168.652 95.1305 167.741 95.3414 166.578 95.3414C165.415 95.3414 164.523 95.1305 163.902 94.7084C163.321 94.2866 163.03 93.7592 163.03 93.1265V68.288C163.03 67.6553 163.321 67.1808 163.902 66.8643C164.484 66.5127 165.434 66.3368 166.752 66.3368C168.071 66.3368 168.982 66.5303 169.486 66.917C169.99 67.2686 170.242 67.7255 170.242 68.288V71.0831C170.902 69.6065 171.852 68.3585 173.092 67.3388C174.372 66.3194 175.885 65.8094 177.629 65.8094C180.072 65.8094 181.992 66.3017 183.388 67.286C184.823 68.2352 185.87 69.6065 186.529 71.3996C187.537 69.8174 188.914 68.4989 190.659 67.4444C192.443 66.3545 194.498 65.8094 196.824 65.8094C198.259 65.8094 199.674 66.0206 201.071 66.4424C202.505 66.8642 203.765 67.4972 204.851 68.3408C205.976 69.1493 206.868 70.1513 207.527 71.3468C208.225 72.542 208.574 73.9307 208.574 75.5129V93.1265C208.574 93.689 208.419 94.1813 208.108 94.6031C207.837 95.06 207.003 95.3063 205.608 95.3414C204.211 95.3765 203.242 95.2185 202.699 94.8668C202.156 94.5504 201.885 93.9701 201.885 93.1265V78.4133Z" fill="#111111"/>
<path d="M229.913 78.4133C229.913 77.5343 229.835 76.6907 229.68 75.8819C229.525 75.0383 229.234 74.3175 228.807 73.7199C228.42 73.0872 227.877 72.5948 227.179 72.2432C226.52 71.8565 225.647 71.6633 224.561 71.6633C223.165 71.6633 222.041 71.8916 221.188 72.3488C220.335 72.7706 219.675 73.3331 219.21 74.0363C218.745 74.7041 218.435 75.4424 218.279 76.2512C218.124 77.0246 218.047 77.7452 218.047 78.4133H229.913ZM224.736 95.8688C222.37 95.8688 220.315 95.5172 218.57 94.814C216.825 94.1108 215.371 93.1265 214.208 91.8608C213.045 90.56 212.172 88.9955 211.59 87.1673C211.008 85.3391 210.718 83.3 210.718 81.05C210.718 78.8702 211.008 76.8489 211.59 74.9855C212.172 73.1223 213.045 71.5227 214.208 70.1868C215.41 68.8155 216.883 67.7433 218.628 66.9699C220.373 66.1962 222.409 65.8094 224.736 65.8094C226.946 65.8094 228.827 66.1611 230.378 66.8643C231.929 67.5675 233.189 68.5166 234.159 69.7118C235.167 70.9073 235.904 72.296 236.369 73.8779C236.834 75.4601 237.067 77.1302 237.067 78.8879C237.067 80.3645 236.854 81.4895 236.427 82.2629C236.001 83.0363 235.206 83.4233 234.043 83.4233H218.047C218.047 84.2318 218.144 85.0229 218.338 85.7963C218.531 86.5697 218.881 87.2729 219.384 87.9056C219.927 88.5386 220.625 89.0483 221.478 89.435C222.37 89.8217 223.495 90.0152 224.852 90.0152C226.597 90.0152 227.955 89.7866 228.924 89.3294C229.932 88.8374 230.727 88.2923 231.309 87.6947C231.735 87.2378 232.162 86.9565 232.588 86.8512C233.015 86.7456 233.403 86.7456 233.752 86.8512C234.14 86.9214 234.469 87.0443 234.74 87.2201C235.051 87.3959 235.303 87.5366 235.497 87.6419C236.234 88.1693 236.524 88.9076 236.369 89.8568C236.214 90.771 235.652 91.685 234.682 92.5991C233.751 93.4781 232.433 94.2339 230.727 94.8668C229.06 95.5347 227.063 95.8688 224.736 95.8688Z" fill="#111111"/>
<path d="M257.308 78.4133C257.308 77.5343 257.23 76.6907 257.075 75.8819C256.92 75.0383 256.629 74.3175 256.203 73.7199C255.815 73.0872 255.272 72.5948 254.574 72.2432C253.915 71.8565 253.042 71.6633 251.956 71.6633C250.561 71.6633 249.436 71.8916 248.583 72.3488C247.73 72.7706 247.071 73.3331 246.605 74.0363C246.14 74.7041 245.83 75.4424 245.674 76.2512C245.519 77.0246 245.442 77.7452 245.442 78.4133H257.308ZM252.131 95.8688C249.765 95.8688 247.71 95.5172 245.965 94.814C244.22 94.1108 242.766 93.1265 241.603 91.8608C240.44 90.56 239.567 88.9955 238.985 87.1673C238.404 85.3391 238.113 83.3 238.113 81.05C238.113 78.8702 238.404 76.8489 238.985 74.9855C239.567 73.1223 240.44 71.5227 241.603 70.1868C242.805 68.8155 244.279 67.7433 246.023 66.9699C247.768 66.1962 249.804 65.8094 252.131 65.8094C254.341 65.8094 256.222 66.1611 257.773 66.8643C259.324 67.5675 260.584 68.5166 261.554 69.7118C262.562 70.9073 263.299 72.296 263.764 73.8779C264.229 75.4601 264.462 77.1302 264.462 78.8879C264.462 80.3645 264.249 81.4895 263.822 82.2629C263.396 83.0363 262.601 83.4233 261.438 83.4233H245.442C245.442 84.2318 245.539 85.0229 245.733 85.7963C245.927 86.5697 246.276 87.2729 246.779 87.9056C247.322 88.5386 248.021 89.0483 248.873 89.435C249.765 89.8217 250.89 90.0152 252.247 90.0152C253.992 90.0152 255.35 89.7866 256.319 89.3294C257.327 88.8374 258.122 88.2923 258.704 87.6947C259.13 87.2378 259.557 86.9565 259.983 86.8512C260.41 86.7456 260.798 86.7456 261.147 86.8512C261.535 86.9214 261.864 87.0443 262.135 87.2201C262.446 87.3959 262.698 87.5366 262.892 87.6419C263.629 88.1693 263.919 88.9076 263.764 89.8568C263.609 90.771 263.047 91.685 262.077 92.5991C261.147 93.4781 259.828 94.2339 258.122 94.8668C256.455 95.5347 254.458 95.8688 252.131 95.8688Z" fill="#111111"/>
<path d="M282.667 71.6633C281.31 71.6633 280.107 71.8916 279.061 72.3488C278.053 72.8057 277.199 73.4387 276.501 74.2472C275.842 75.0557 275.338 76.0226 274.989 77.1476C274.679 78.2726 274.524 79.4855 274.524 80.7863V93.1265C274.524 93.7241 274.175 94.2338 273.477 94.6559C272.817 95.1128 271.964 95.3414 270.917 95.3414C269.87 95.3414 268.998 95.1128 268.3 94.6559C267.641 94.1987 267.311 93.689 267.311 93.1265V68.5518C267.311 67.9191 267.66 67.3917 268.358 66.9699C269.095 66.5478 269.967 66.3368 270.976 66.3368C271.984 66.3368 272.817 66.5478 273.477 66.9699C274.175 67.3917 274.524 67.9191 274.524 68.5518V72.2432C274.873 71.6105 275.28 70.9251 275.745 70.1868C276.249 69.4485 276.831 68.7626 277.49 68.1299C278.188 67.4618 278.964 66.917 279.817 66.4952C280.709 66.038 281.717 65.8094 282.841 65.8094C283.423 65.8094 283.888 65.8973 284.238 66.0731C284.586 66.2489 284.858 66.4599 285.052 66.7062C285.246 66.9522 285.362 67.2158 285.401 67.4972C285.478 67.7783 285.517 68.042 285.517 68.288C285.517 69.6242 285.265 70.5206 284.761 70.9775C284.295 71.4347 283.598 71.6633 282.667 71.6633Z" fill="#111111"/>
<path d="M300.861 65.8094C303.536 65.8094 305.824 66.1962 307.724 66.9699C309.624 67.7433 311.156 68.8155 312.319 70.1868C313.521 71.5578 314.394 73.175 314.937 75.0383C315.518 76.9016 315.809 78.9056 315.809 81.05C315.809 83.2298 315.518 85.2338 314.937 87.062C314.394 88.8548 313.502 90.4019 312.261 91.7027C311.059 93.0035 309.508 94.0229 307.608 94.7612C305.747 95.4995 303.498 95.8688 300.861 95.8688C298.224 95.8688 295.975 95.4821 294.113 94.7084C292.252 93.9701 290.72 92.9508 289.518 91.65C288.316 90.3141 287.443 88.7318 286.901 86.9037C286.358 85.0755 286.086 83.0891 286.086 80.9447C286.086 78.8 286.358 76.8138 286.901 74.9855C287.443 73.1223 288.297 71.5227 289.46 70.1868C290.623 68.8155 292.136 67.7433 293.997 66.9699C295.897 66.1962 298.185 65.8094 300.861 65.8094ZM300.861 90.0152C303.459 90.0152 305.359 89.2415 306.561 87.6947C307.802 86.1128 308.422 83.8979 308.422 81.05C308.422 78.2024 307.841 75.9347 306.677 74.2472C305.514 72.5246 303.536 71.6633 300.744 71.6633C299.348 71.6633 298.185 71.9093 297.254 72.4016C296.324 72.8936 295.568 73.5617 294.986 74.4053C294.443 75.2492 294.055 76.2335 293.822 77.3585C293.59 78.4835 293.474 79.679 293.474 80.9447C293.474 83.7923 294.055 86.0249 295.219 87.6419C296.382 89.2241 298.262 90.0152 300.861 90.0152Z" fill="#111111"/>
</svg>
