<svg width="306" height="61" viewBox="0 0 306 61" fill="none" xmlns="http://www.w3.org/2000/svg">
<g clip-path="url(#clip0_293_20)">
<mask id="mask0_293_20" style="mask-type:luminance" maskUnits="userSpaceOnUse" x="0" y="0" width="306" height="61">
<path d="M0.5 0H305.5V61H0.5V0Z" fill="white"/>
</mask>
<g mask="url(#mask0_293_20)">
<path d="M20.3817 42.8016L11.6597 18.0509H0.469238L14.6553 59.5461H25.8197C34.7971 29.7527 34.18 16.9986 52.577 9.86416L47.8814 -0.0483398C26.5219 8.90341 25.0749 24.8625 20.3817 42.8016ZM113.664 17.7916C111.572 16.8207 110.369 16.6097 109.097 16.6097C106.607 16.6097 104.505 17.2833 102.788 18.6253C101.403 19.6496 100.254 21.477 99.3436 24.1026V18.056H88.5197V59.5537H99.3483V39.5305C99.346 38.2444 99.4145 36.9609 99.5564 35.685C99.7409 34.3473 100.209 33.0732 100.925 31.9614C102.585 29.4477 105.004 28.1921 108.184 28.1896C108.751 28.1896 109.229 28.2125 109.64 28.2506C109.915 24.189 111.284 20.6586 113.664 17.7916ZM145.039 30.0196H134.835C134.865 29.7727 134.879 29.5238 134.875 29.2749C134.875 28.3929 134.579 27.5415 134.045 26.8654C133.076 25.6377 131.704 25.0252 129.941 25.0252C128.612 25.0252 127.545 25.376 126.744 26.0749C126.368 26.4053 126.07 26.8222 125.869 27.2949C125.669 27.7647 125.571 28.2778 125.585 28.7945C125.585 29.9306 125.957 30.8075 126.704 31.4226C127.512 32.0936 128.643 32.6782 130.099 33.1763L133.338 34.226C137.651 35.629 140.665 37.2074 142.379 38.9586C144.564 41.18 145.656 44.042 145.656 47.5469C145.656 51.9287 144.011 55.3905 140.72 57.9322C138.095 59.9833 134.636 61.0076 130.35 61.0076C124.597 61.0076 120.325 59.1395 117.53 55.4007C115.899 53.2657 115.029 50.5944 114.918 47.3792H125.288C125.758 50.8562 127.472 52.5947 130.432 52.5947C131.704 52.5947 132.714 52.2439 133.459 51.5424C133.857 51.1913 134.179 50.7505 134.401 50.2512C134.624 49.7519 134.742 49.2062 134.747 48.6525C134.747 47.2851 134.069 46.1439 132.714 45.2314C131.969 44.7079 130.212 44.0064 127.446 43.1295C123.268 41.7646 120.228 40.0693 118.32 38.0462C116.216 35.8552 115.166 33.1102 115.166 29.8086C115.166 25.3099 116.892 21.8481 120.351 19.4234C123.06 17.5527 126.408 16.6174 130.39 16.6174C135.977 16.6174 140.124 18.5312 142.836 22.3615C144.224 24.344 144.956 26.8959 145.039 30.0196ZM174.253 44.3037V18.056H185.082V44.3037C185.082 48.4822 184.436 51.6517 183.143 53.8121C181.62 56.2674 179.395 58.1253 176.464 59.3784C173.967 60.4611 171.116 61 167.907 61C162.294 61 157.925 59.4953 154.806 56.486C152.014 53.7994 150.617 49.7404 150.614 44.3037V18.056H161.443V43.5717C161.424 45.2797 161.845 46.9623 162.656 48.4416C163.734 50.3987 165.505 51.3772 167.966 51.3772C170.208 51.3772 171.936 50.5029 173.151 48.7491C173.887 47.6282 174.255 46.1465 174.253 44.3037ZM212.014 28.1921C212.392 27.1119 212.83 26.0571 213.324 25.0303C214.493 22.556 216.032 20.3047 217.88 18.366C215.031 16.897 213.633 16.6072 212.142 16.6072C209.654 16.6072 207.552 17.2807 205.834 18.6227C204.45 19.647 203.304 21.4745 202.389 24.1V18.0534H191.565V59.5512H202.393V39.528C202.391 38.2368 202.46 36.9507 202.601 35.6697C202.788 34.3327 203.256 33.0591 203.97 31.9462C205.628 29.4325 208.049 28.1769 211.229 28.1743C211.513 28.1743 211.773 28.1921 212.014 28.1921ZM257.84 41.5003H227.101C227.489 43.8107 228.264 45.6661 229.425 47.0665C231.47 49.5802 234.125 50.8358 237.39 50.8358C239.627 50.8384 241.812 50.1242 243.654 48.7847C244.834 47.9402 245.803 46.7957 246.474 45.4526L256.348 48.3425C254.797 51.5907 252.82 54.2061 250.416 56.1886C246.488 59.3987 242.105 61 237.265 61C230.74 61 225.372 58.6489 221.169 53.9468C217.629 49.9742 215.858 44.9061 215.858 38.74C215.829 34.8997 216.67 31.1095 218.308 27.6965C219.931 24.23 222.489 21.3712 225.649 19.4945C228.831 17.573 232.477 16.6097 236.589 16.6097C243.561 16.6097 249.08 19.2099 253.144 24.4101C256.298 28.4437 257.873 33.3975 257.873 39.2763C257.882 40.1151 257.868 40.8572 257.84 41.5003ZM227.058 34.9733H246.765C246.38 32.7824 245.632 31.0286 244.524 29.712C242.582 27.4067 239.984 26.2528 236.726 26.2503C233.6 26.2503 231.111 27.4042 229.257 29.712C228.207 31.0566 227.474 32.8103 227.058 34.9733ZM294.674 22.0413V-4.81755e-05H305.5V58.9488H294.674V53.5147C293.151 55.7362 291.588 57.3145 289.985 58.2499C287.559 59.6808 284.729 60.395 281.492 60.395C275.409 60.395 270.541 58.1889 266.89 53.7791C263.656 49.8649 262.039 44.7943 262.039 38.5748C262.039 31.4455 264.141 25.8233 268.347 21.7032C272.191 17.906 276.638 16.0048 281.693 16.0048C284.185 16.0074 286.654 16.531 288.954 17.5451C290.775 18.3533 292.683 19.8529 294.674 22.0438V22.0413ZM284.219 25.592C280.514 25.592 277.65 27.2568 275.631 30.5864C274.22 32.8967 273.515 35.568 273.515 38.6079C273.515 42.4661 274.593 45.5466 276.752 47.8545C277.693 48.927 278.835 49.776 280.107 50.3504C281.382 50.9254 282.754 51.2102 284.136 51.1866C287.399 51.1866 290.054 49.7836 292.101 46.9801C293.815 44.5884 294.671 41.7697 294.674 38.5215C294.674 34.7827 293.692 31.6996 291.728 29.2774C290.821 28.0947 289.675 27.1498 288.377 26.5146C287.073 25.8749 285.652 25.5596 284.219 25.592ZM61.9114 16.6097C57.7903 16.6097 54.1398 17.5756 50.9597 19.5022C47.8 21.3788 45.2412 24.2376 43.6185 27.7041C41.9804 31.1171 41.1397 34.9073 41.169 38.7477C41.169 44.9112 42.9399 49.9818 46.4793 53.9545C50.6878 58.6565 56.0502 61.0101 62.5757 61.0076C67.4156 61.0076 71.7967 59.4012 75.7262 56.1886C78.1331 54.2035 80.1097 51.5882 81.6583 48.3425L71.7849 45.4526C71.1137 46.7949 70.1449 47.9386 68.9642 48.7822C67.114 50.1255 64.9313 50.8409 62.6987 50.8358C59.4359 50.8358 56.7807 49.5777 54.7356 47.064C53.5723 45.6635 52.7968 43.8107 52.4138 41.5003H83.1526C83.1786 40.8572 83.1952 40.1151 83.1952 39.2636C83.1952 33.3924 81.6182 28.4387 78.4665 24.4C74.3998 19.2073 68.8814 16.6097 61.9114 16.6097ZM52.3736 34.9733C52.7897 32.8129 53.5227 31.0591 54.5725 29.7146C56.4237 27.4093 58.911 26.2554 62.039 26.2528C65.3018 26.2528 67.9026 27.4067 69.8366 29.7146C70.9432 31.0286 71.6903 32.7824 72.078 34.9733H52.3736Z" fill="#434343"/>
<path d="M61.9113 16.6099C57.7903 16.6099 54.1397 17.5757 50.9597 19.5023C47.7999 21.3789 45.2411 24.2377 43.6184 27.7042C41.9804 31.1172 41.1397 34.9075 41.169 38.7478C41.169 44.9113 42.9398 49.9819 46.4793 53.9546C50.6878 58.6567 56.0501 61.0102 62.5757 61.0077C67.4155 61.0077 71.7966 59.4014 75.7262 56.1887C78.1331 54.2037 80.1096 51.5883 81.6583 48.3426L71.7848 45.4527C71.1136 46.7951 70.1448 47.9387 68.9641 48.7823C67.1139 50.1256 64.9313 50.841 62.6986 50.8359C59.4358 50.8359 56.7807 49.5778 54.7355 47.0641C53.5723 45.6637 52.7968 43.8108 52.4138 41.5004H83.1526C83.1786 40.8574 83.1951 40.1152 83.1951 39.2637C83.1951 33.3925 81.6181 28.4388 78.4664 24.4001C74.3998 19.2074 68.8814 16.6099 61.9113 16.6099ZM52.3736 34.9734C52.7897 32.813 53.5226 31.0592 54.5724 29.7147C56.4237 27.4094 58.911 26.2555 62.039 26.2529C65.3018 26.2529 67.9026 27.4069 69.8366 29.7147C70.9431 31.0287 71.6902 32.7825 72.078 34.9734H52.3736Z" fill="#434343"/>
</g>
</g>
<defs>
<clipPath id="clip0_293_20">
<rect width="305" height="61" fill="white" transform="translate(0.5)"/>
</clipPath>
</defs>
</svg>
