<svg width="230" height="274" viewBox="0 0 230 274" fill="none" xmlns="http://www.w3.org/2000/svg">
<path d="M4.50304 261.337V226.366H25.6084V230.123H8.73778V241.939H24.5156V245.696H8.73778V257.58H25.8816V261.337H4.50304ZM32.9258 261.337V228.971H36.8452V245.027H37.2245L51.7641 228.971H56.8845L43.2932 243.573L56.8845 261.337H52.1434L40.891 246.292L36.8452 250.843V261.337H32.9258Z" fill="#1A4A9B"/>
<path d="M109.383 226.366V261.337H105.285L86.2287 233.879H85.8872V261.337H81.6525V226.366H85.7506L104.875 253.892H105.217V226.366H109.383ZM117.541 261.337V228.971H137.075V232.447H121.461V243.384H136.064V246.861H121.461V257.86H137.328V261.337H117.541ZM144.139 261.337V228.971H155.076C157.615 228.971 159.691 229.429 161.303 230.345C162.925 231.252 164.126 232.479 164.906 234.028C165.685 235.577 166.075 237.304 166.075 239.211C166.075 241.118 165.685 242.852 164.906 244.411C164.137 245.97 162.946 247.213 161.334 248.141C159.722 249.057 157.657 249.516 155.139 249.516H147.3V246.039H155.013C156.751 246.039 158.147 245.738 159.201 245.138C160.254 244.537 161.018 243.726 161.492 242.704C161.977 241.672 162.219 240.507 162.219 239.211C162.219 237.916 161.977 236.757 161.492 235.735C161.018 234.713 160.249 233.912 159.185 233.332C158.121 232.742 156.709 232.447 154.949 232.447H148.059V261.337H144.139ZM170.413 261.337H166.304L178.189 228.971H182.235L194.119 261.337H190.01L180.338 234.091H180.085L170.413 261.337ZM171.931 248.694H188.493V252.171H171.931V248.694ZM199.161 261.337V228.971H203.08V257.86H218.125V261.337H199.161Z" fill="#D2242A"/>
<path d="M4.5 0.356445V36.5368H123L155.7 0.356445H4.5Z" fill="#D2242A"/>
<mask id="mask0_293_61" style="mask-type:luminance" maskUnits="userSpaceOnUse" x="4" y="0" width="226" height="200">
<path d="M229.7 0.356445H4.5V199.299H229.7V0.356445Z" fill="white"/>
</mask>
<g mask="url(#mask0_293_61)">
<path d="M90.5 81.7373H4.5V117.918H93.5C92.7 116.815 91.9 115.713 91.2 114.51C87.1 107.895 86.2 100.279 87.2 92.4611C87.7 88.4522 88.9 84.9444 90.5 81.7373Z" fill="#D2242A"/>
</g>
<path d="M4.5 163.118V199.299H161.9L128.3 163.118H4.5Z" fill="#D2242A"/>
<mask id="mask1_293_61" style="mask-type:luminance" maskUnits="userSpaceOnUse" x="4" y="0" width="226" height="200">
<path d="M229.7 0.356445H4.5V199.299H229.7V0.356445Z" fill="white"/>
</mask>
<g mask="url(#mask1_293_61)">
<path d="M146.1 108.597C142.3 104.588 138.4 100.579 134.6 96.5704C140.8 89.8555 146.7 83.341 152.6 76.9267C158.9 70.1116 165.3 63.3967 171.6 56.5815C181.2 46.1584 190.8 35.635 200.4 25.2118C204.3 21.0024 208.3 16.7931 212.2 12.5837L212.1 12.684L223.7 0.256348H221.3H215.6C203.3 0.256348 191 0.35657 178.8 0.256348C177.6 0.256348 176.5 0.256347 175.5 0.657238L162.8 14.0871C157.8 19.5993 152.8 25.0114 147.8 30.6238C136 43.8532 124.4 57.2831 112.3 70.2118C106.3 76.6261 101.6 83.4412 100.3 92.361C99.1999 100.279 100.2 107.896 104.6 114.41C108 119.421 112.2 123.831 116.3 128.341C128.3 141.27 140.3 154.098 152.4 166.927C161.5 176.648 170.8 186.169 179.8 196.092C182 198.597 184.3 199.299 187.4 199.299C200.3 199.198 213.2 199.299 226.1 199.198H226.2H229.4L228.6 198.296L146.1 108.597Z" fill="#1A4A9B"/>
</g>
</svg>
