<svg width="55" height="36" viewBox="0 0 55 36" fill="none" xmlns="http://www.w3.org/2000/svg">
<path d="M0.627648 15.9578C0.859589 16.6222 1.21154 17.269 1.74829 17.8134C2.99044 19.3816 5.17426 20.3276 7.67587 20.963L7.67588 20.963C10.2627 21.62 13.3214 21.9375 16.3704 21.9375C19.4196 21.9375 22.4782 21.62 25.0651 20.9629C27.5758 20.3252 29.7682 19.3751 31.0081 17.7958C31.6026 17.2056 31.9434 16.463 32.1555 15.7235C32.5878 17.4273 32.3753 19.4222 31.5087 21.5248C31.5086 21.5251 31.5084 21.5255 31.5083 21.5258L31.4999 21.5459L31.493 21.5624L31.4873 21.5793L31.4795 21.6025L31.479 21.6039C30.4629 24.6523 26.1036 28.2812 16.3704 28.2812C6.63715 28.2812 2.27801 24.6523 1.26189 21.6039C0.576217 19.5468 0.322627 17.6145 0.627648 15.9578ZM2.72915 14.1759C2.64241 13.6235 2.60441 13.0541 2.58959 12.558C6.05116 9.90617 11.1808 8.5 16.3704 8.5C21.56 8.5 26.6897 9.90617 30.1513 12.558C30.1365 13.0541 30.0985 13.6235 30.0117 14.1759C29.9407 14.6281 29.84 15.0479 29.704 15.3997C21.1792 10.9348 11.5617 10.9348 3.03686 15.3998C2.90084 15.0479 2.80018 14.6281 2.72915 14.1759Z" fill="#DF997A" stroke="#8F482E"/>
<path d="M23.4676 7.03141C23.3031 7.71559 23.249 8.44999 23.4058 9.19823C23.6016 11.1892 24.926 13.1665 26.6857 15.0547L26.6857 15.0547C28.5054 17.0071 30.9056 18.9295 33.4696 20.5796C36.0336 22.2298 38.7774 23.6181 41.3083 24.4655C43.7647 25.2881 46.1225 25.6757 48.0198 25.0187C48.8391 24.8441 49.5276 24.4041 50.1062 23.897C49.5476 25.5637 48.2893 27.1262 46.4227 28.4253C46.4224 28.4255 46.422 28.4257 46.4217 28.4259L46.4038 28.4383L46.3891 28.4484L46.3751 28.4595L46.356 28.4748L46.3548 28.4757C43.8507 30.4892 38.221 31.1816 30.0363 25.914C21.8517 20.6464 20.1501 15.2357 20.9454 12.1224C21.482 10.0216 22.3146 8.25938 23.4676 7.03141ZM26.1992 6.67027C26.4252 6.15888 26.7014 5.65952 26.9574 5.23432C31.3034 4.87774 36.3779 6.47145 40.7419 9.28003C45.1058 12.0886 48.6583 16.0472 50.134 20.1505C49.853 20.5597 49.5129 21.0179 49.141 21.4354C48.8366 21.7772 48.5247 22.0758 48.2199 22.298C43.4678 13.9299 35.3805 8.72495 25.7956 7.86596C25.8716 7.49647 26.0142 7.08898 26.1992 6.67027Z" fill="#EEC8B7" stroke="#8F482E"/>
</svg>
