<svg width="33" height="28" viewBox="0 0 33 28" fill="none" xmlns="http://www.w3.org/2000/svg">
<path d="M32.8886 10.1583V11.1742C32.8861 12.893 32.1573 14.5529 30.8368 15.8476C29.5163 17.1422 27.6933 17.9841 25.7043 18.2177C26.5162 19.1071 26.9568 20.2037 26.9561 21.3325V26.4117C26.9561 26.6811 26.8311 26.9395 26.6085 27.13C26.386 27.3205 26.0842 27.4275 25.7696 27.4275H16.2775C15.9628 27.4275 15.661 27.3205 15.4385 27.13C15.2159 26.9395 15.0909 26.6811 15.0909 26.4117V24.38H11.5314C9.95799 24.38 8.44902 23.8449 7.33644 22.8923C6.22387 21.9398 5.59884 20.6479 5.59884 19.3008C5.59884 18.4926 5.22381 17.7174 4.55627 17.1459C3.88873 16.5744 2.98334 16.2533 2.0393 16.2533C1.72461 16.2533 1.42282 16.1463 1.2003 15.9558C0.97779 15.7653 0.852783 15.5069 0.852783 15.2375C0.852783 14.9681 0.97779 14.7097 1.2003 14.5192C1.42282 14.3287 1.72461 14.2217 2.0393 14.2217C2.81837 14.2217 3.58982 14.353 4.30959 14.6083C5.02936 14.8636 5.68336 15.2377 6.23425 15.7093C6.78514 16.181 7.22213 16.7409 7.52027 17.3571C7.81841 17.9734 7.97186 18.6338 7.97186 19.3008C7.97186 20.1091 8.34688 20.8842 9.01443 21.4557C9.68197 22.0273 10.5874 22.3483 11.5314 22.3483H15.0909V21.3325C15.0902 20.2037 15.5309 19.1071 16.3427 18.2177C14.3538 17.9841 12.5307 17.1422 11.2102 15.8476C9.88967 14.5529 9.16087 12.893 9.15837 11.1742V10.1583C9.17315 8.89588 9.56583 7.65776 10.2989 6.5623C9.93624 5.56068 9.81991 4.50559 9.95724 3.46357C10.0946 2.42154 10.4826 1.41518 11.0968 0.507933C11.201 0.353473 11.3508 0.225215 11.5312 0.136055C11.7117 0.0468955 11.9163 -2.34319e-05 12.1247 1.66233e-05C13.5067 -0.00246001 14.8702 0.271833 16.1063 0.800981C17.3424 1.33013 18.4168 2.09946 19.2437 3.04751H22.8033C23.6302 2.09946 24.7046 1.33013 25.9407 0.800981C27.1768 0.271833 28.5403 -0.00246001 29.9224 1.66233e-05C30.1307 -2.34319e-05 30.3353 0.0468955 30.5158 0.136055C30.6962 0.225215 30.846 0.353473 30.9502 0.507933C31.5645 1.41515 31.9525 2.42158 32.0896 3.46365C32.2266 4.50572 32.1099 5.56081 31.7466 6.5623C32.4811 7.65734 32.8743 8.89566 32.8886 10.1583Z" fill="#F4F6F8"/>
</svg>
