<svg width="24" height="16" viewBox="0 0 24 16" fill="none" xmlns="http://www.w3.org/2000/svg">
<path d="M23.931 7.676C23.896 7.597 23.049 5.718 21.166 3.835C18.657 1.326 15.488 0 12 0C8.512 0 5.34299 1.326 2.83399 3.835C0.950991 5.718 0.0999905 7.6 0.0689905 7.676C0.0235036 7.77831 0 7.88903 0 8.001C0 8.11297 0.0235036 8.22369 0.0689905 8.326C0.10399 8.405 0.950991 10.283 2.83399 12.166C5.34299 14.674 8.512 16 12 16C15.488 16 18.657 14.674 21.166 12.166C23.049 10.283 23.896 8.405 23.931 8.326C23.9765 8.22369 24 8.11297 24 8.001C24 7.88903 23.9765 7.77831 23.931 7.676ZM12 14.4C8.922 14.4 6.233 13.281 4.00699 11.075C3.09364 10.1667 2.31658 9.13095 1.69999 8C2.31641 6.86894 3.09349 5.83318 4.00699 4.925C6.233 2.719 8.922 1.6 12 1.6C15.078 1.6 17.767 2.719 19.993 4.925C20.9081 5.83296 21.6869 6.86872 22.305 8C21.584 9.346 18.443 14.4 12 14.4ZM12 3.2C11.0506 3.2 10.1226 3.48152 9.33326 4.00895C8.5439 4.53638 7.92868 5.28603 7.56537 6.16312C7.20207 7.0402 7.10702 8.00532 7.29223 8.93643C7.47744 9.86754 7.93459 10.7228 8.60588 11.3941C9.27718 12.0654 10.1325 12.5226 11.0636 12.7078C11.9947 12.893 12.9598 12.7979 13.8369 12.4346C14.714 12.0713 15.4636 11.4561 15.9911 10.6667C16.5185 9.87738 16.8 8.94935 16.8 8C16.7987 6.72737 16.2925 5.50724 15.3927 4.60735C14.4928 3.70746 13.2726 3.20132 12 3.2ZM12 11.2C11.3671 11.2 10.7484 11.0123 10.2222 10.6607C9.69594 10.3091 9.28578 9.80931 9.04358 9.22459C8.80138 8.63986 8.73801 7.99645 8.86148 7.37571C8.98496 6.75497 9.28973 6.18479 9.73726 5.73726C10.1848 5.28973 10.755 4.98496 11.3757 4.86149C11.9965 4.73801 12.6399 4.80138 13.2246 5.04359C13.8093 5.28579 14.3091 5.69594 14.6607 6.22218C15.0123 6.74841 15.2 7.3671 15.2 8C15.2 8.84869 14.8629 9.66262 14.2627 10.2627C13.6626 10.8629 12.8487 11.2 12 11.2Z" fill="#8F482E"/>
</svg>
