<svg width="19" height="18" viewBox="0 0 19 18" fill="none" xmlns="http://www.w3.org/2000/svg">
<path d="M4.40674 9.75003H12.7842L9.12424 13.41C8.83174 13.7025 8.83174 14.1825 9.12424 14.475C9.41674 14.7675 9.88924 14.7675 10.1817 14.475L15.1242 9.53253C15.4167 9.24003 15.4167 8.76753 15.1242 8.47503L10.1892 3.52503C10.0491 3.38459 9.85888 3.30566 9.66049 3.30566C9.4621 3.30566 9.27186 3.38459 9.13174 3.52503C8.83924 3.81753 8.83924 4.29003 9.13174 4.58253L12.7842 8.25003H4.40674C3.99424 8.25003 3.65674 8.58753 3.65674 9.00003C3.65674 9.41253 3.99424 9.75003 4.40674 9.75003Z" fill="white"/>
</svg>
