<svg width="371" height="136" viewBox="0 0 371 136" fill="none" xmlns="http://www.w3.org/2000/svg">
<path opacity="0.7" d="M62.5002 110H53.4002L16.8002 54.5V110H7.7002V40.2H16.8002L53.4002 95.5999V40.2H62.5002V110Z" fill="#D07045"/>
<path opacity="0.7" d="M335.8 47.7V71H361.2V78.5H335.8V102.5H364.2V110H326.7V40.2H364.2V47.7H335.8Z" fill="#D07045"/>
<path opacity="0.35" d="M294.5 60.5C292.567 56.4333 289.767 53.3 286.1 51.1C282.433 48.8333 278.167 47.7 273.3 47.7C268.433 47.7 264.033 48.8333 260.1 51.1C256.233 53.3 253.167 56.5 250.9 60.7C248.7 64.8333 247.6 69.6333 247.6 75.1C247.6 80.5667 248.7 85.3667 250.9 89.5C253.167 93.6333 256.233 96.8333 260.1 99.1C264.033 101.3 268.433 102.4 273.3 102.4C280.1 102.4 285.7 100.367 290.1 96.3C294.5 92.2333 297.067 86.7333 297.8 79.8H270V72.4H307.5V79.4C306.967 85.1333 305.167 90.4 302.1 95.2C299.033 99.9333 295 103.7 290 106.5C285 109.233 279.433 110.6 273.3 110.6C266.833 110.6 260.933 109.1 255.6 106.1C250.267 103.033 246.033 98.8 242.9 93.4C239.833 88 238.3 81.9 238.3 75.1C238.3 68.3 239.833 62.2 242.9 56.8C246.033 51.3333 250.267 47.1 255.6 44.1C260.933 41.0333 266.833 39.5 273.3 39.5C280.7 39.5 287.233 41.3333 292.9 45C298.633 48.6667 302.8 53.8333 305.4 60.5H294.5Z" fill="#D07045"/>
<path opacity="0.35" d="M97.6 40.3V84.4001C97.6 90.6001 99.1 95.2 102.1 98.2C105.167 101.2 109.4 102.7 114.8 102.7C120.133 102.7 124.3 101.2 127.3 98.2C130.367 95.2 131.9 90.6001 131.9 84.4001V40.3H141V84.3001C141 90.1001 139.833 95 137.5 99C135.167 102.933 132 105.867 128 107.8C124.067 109.733 119.633 110.7 114.7 110.7C109.767 110.7 105.3 109.733 101.3 107.8C97.3667 105.867 94.2333 102.933 91.9 99C89.6333 95 88.5 90.1001 88.5 84.3001V40.3H97.6Z" fill="#D07045"/>
<path opacity="0.7" d="M185.4 40.3C193 40.3 199.567 41.7333 205.1 44.6C210.7 47.4 214.967 51.4334 217.9 56.7001C220.9 61.9668 222.4 68.1668 222.4 75.3001C222.4 82.4334 220.9 88.6334 217.9 93.9001C214.967 99.1001 210.7 103.1 205.1 105.9C199.567 108.633 193 110 185.4 110H163.7V40.3H185.4ZM185.4 102.5C194.4 102.5 201.267 100.133 206 95.4001C210.733 90.6001 213.1 83.9001 213.1 75.3001C213.1 66.6334 210.7 59.8667 205.9 55C201.167 50.1333 194.333 47.7001 185.4 47.7001H172.8V102.5H185.4Z" fill="#D07045"/>
</svg>
