<svg width="125" height="125" viewBox="0 0 125 125" fill="none" xmlns="http://www.w3.org/2000/svg">
<rect width="125" height="125" rx="34" fill="#D5CCD6"/>
<path d="M62.544 24.112C74.704 24.112 84.656 27.504 92.4 34.288C100.08 41.136 103.92 49.904 103.92 60.592C103.92 68.144 102.288 74.32 99.024 79.12C95.696 83.92 91.088 86.32 85.2 86.32C81.872 86.32 79.056 85.584 76.752 84.112C74.512 82.64 73.008 80.592 72.24 77.968C69.744 83.408 65.328 86.128 58.992 86.128C53.744 86.128 49.552 84.24 46.416 80.464C43.28 76.688 41.712 71.408 41.712 64.624C41.712 58.032 43.312 52.848 46.512 49.072C49.712 45.232 53.872 43.312 58.992 43.312C64.176 43.312 68.016 45.328 70.512 49.36V44.464H81.36V70.192C81.36 74.736 83.024 77.008 86.352 77.008C88.976 77.008 90.992 75.568 92.4 72.688C93.808 69.808 94.512 65.904 94.512 60.976C94.512 52.656 91.664 45.84 85.968 40.528C80.336 35.28 72.496 32.656 62.448 32.656C52.656 32.656 44.848 35.632 39.024 41.584C33.136 47.6 30.192 55.376 30.192 64.912C30.192 74.832 33.232 82.736 39.312 88.624C45.328 94.448 53.264 97.36 63.12 97.36C70.224 97.36 76.56 96.208 82.128 93.904V102.256C76.304 104.496 69.904 105.616 62.928 105.616C50.256 105.616 40.048 101.872 32.304 94.384C24.56 86.832 20.688 77.008 20.688 64.912C20.688 53.136 24.56 43.376 32.304 35.632C39.984 27.952 50.064 24.112 62.544 24.112ZM52.656 64.624C52.656 73.072 55.664 77.296 61.68 77.296C67.696 77.296 70.704 73.072 70.704 64.624C70.704 60.72 69.904 57.68 68.304 55.504C66.768 53.264 64.56 52.144 61.68 52.144C55.664 52.144 52.656 56.304 52.656 64.624Z" fill="url(#paint0_angular_388_914)"/>
<defs>
<radialGradient id="paint0_angular_388_914" cx="0" cy="0" r="1" gradientUnits="userSpaceOnUse" gradientTransform="translate(74 52) rotate(151.715) scale(126.471 85.7157)">
<stop stop-color="#502C53"/>
<stop offset="0.385" stop-color="#58395A"/>
<stop offset="1" stop-color="#8B8F88"/>
</radialGradient>
</defs>
</svg>
