<?xml version="1.0" standalone="no"?>
<!DOCTYPE svg PUBLIC "-//W3C//DTD SVG 20010904//EN"
 "http://www.w3.org/TR/2001/REC-SVG-20010904/DTD/svg10.dtd">
<svg version="1.0" xmlns="http://www.w3.org/2000/svg"
 width="876.000000pt" height="876.000000pt" viewBox="0 0 876.000000 876.000000"
 preserveAspectRatio="xMidYMid meet">
<metadata>
Created by potrace 1.14, written by Peter Selinger 2001-2017
</metadata>
<g transform="translate(0.000000,876.000000) scale(0.100000,-0.100000)"
fill="#000000" stroke="none">
<path d="M4138 8315 c-1 -2 -42 -6 -90 -10 -47 -3 -97 -8 -110 -10 -12 -2 -45
-6 -73 -10 -58 -7 -109 -14 -145 -21 -14 -2 -54 -9 -90 -15 -36 -6 -70 -15
-76 -20 -6 -5 -13 -6 -17 -3 -3 3 -32 -2 -64 -11 -32 -9 -68 -19 -79 -21 -54
-10 -343 -103 -419 -135 -16 -6 -36 -13 -43 -15 -8 -1 -30 -10 -50 -19 -20 -9
-46 -20 -57 -25 -77 -32 -341 -164 -343 -171 -2 -5 -12 -9 -23 -9 -10 0 -19
-4 -19 -9 0 -5 -9 -13 -21 -16 -11 -4 -40 -20 -64 -36 -24 -16 -45 -29 -48
-29 -19 0 -386 -265 -449 -324 -15 -15 -29 -26 -31 -26 -25 0 -430 -412 -486
-494 -8 -12 -17 -23 -21 -26 -8 -8 -53 -63 -75 -94 -11 -16 -26 -34 -33 -41
-6 -8 -12 -18 -12 -23 0 -6 -4 -12 -8 -14 -11 -4 -122 -167 -122 -179 0 -5 -3
-9 -8 -9 -4 0 -16 -17 -27 -37 -11 -21 -22 -40 -25 -43 -25 -22 -242 -448
-247 -484 -2 -11 -11 -28 -20 -38 -9 -10 -13 -18 -10 -18 3 0 -2 -19 -12 -42
-20 -47 -34 -80 -36 -88 0 -3 -22 -69 -48 -147 -26 -78 -48 -150 -50 -160 -2
-10 -7 -25 -10 -33 -4 -8 -9 -28 -12 -45 -7 -37 -13 -59 -15 -62 -2 -2 -3 -6
-4 -10 -6 -28 -19 -91 -22 -108 -1 -11 -10 -51 -18 -90 -8 -38 -18 -94 -21
-124 -4 -30 -8 -62 -10 -72 -2 -10 -7 -49 -11 -86 -4 -37 -8 -81 -10 -98 -4
-29 -17 -380 -15 -400 0 -5 3 -57 5 -115 3 -58 8 -130 11 -160 3 -30 7 -77 10
-105 5 -49 10 -86 20 -135 2 -14 6 -45 9 -70 3 -25 7 -52 10 -60 3 -8 8 -32
11 -54 3 -21 7 -41 9 -45 2 -3 7 -22 10 -41 3 -19 8 -46 11 -60 4 -14 7 -29 8
-35 2 -5 6 -16 10 -22 5 -7 6 -13 3 -13 -3 0 1 -18 9 -40 8 -22 14 -42 15 -45
0 -3 0 -6 1 -7 0 -2 2 -10 4 -18 5 -26 76 -244 87 -270 12 -28 20 -49 39 -100
7 -19 22 -57 35 -85 12 -27 31 -72 43 -100 12 -27 26 -57 31 -65 4 -8 25 -49
46 -90 21 -41 52 -100 70 -130 18 -30 33 -58 33 -62 2 -9 66 -108 81 -125 5
-7 10 -17 10 -23 0 -5 3 -10 8 -10 4 0 13 -13 19 -28 7 -15 20 -36 28 -47 9
-11 34 -45 56 -75 67 -91 83 -113 94 -124 6 -6 17 -20 25 -32 67 -96 337 -380
477 -501 26 -23 62 -53 78 -68 55 -48 265 -205 274 -205 5 0 11 -3 13 -7 3 -7
95 -71 140 -98 180 -106 252 -146 371 -204 173 -83 234 -111 247 -111 6 0 18
-4 28 -9 78 -39 316 -119 472 -157 8 -2 35 -8 60 -15 25 -6 56 -13 70 -16 14
-3 30 -6 35 -7 6 -2 26 -6 45 -9 19 -4 49 -10 65 -13 17 -3 39 -7 50 -9 11 -1
36 -5 55 -8 19 -3 58 -9 85 -12 75 -10 94 -13 104 -19 5 -4 12 -2 16 3 3 6 15
7 28 2 33 -12 110 -15 362 -15 235 -1 420 10 525 29 14 3 52 8 85 11 33 4 64
9 70 12 5 3 22 7 39 9 16 2 90 17 165 34 75 18 148 34 164 36 15 3 27 8 27 12
0 4 9 7 20 8 63 5 390 126 570 211 30 14 61 27 68 28 7 1 19 7 25 13 7 5 51
30 97 54 47 24 99 53 117 63 132 78 199 119 203 124 3 3 49 36 102 73 53 37
103 74 112 82 8 8 19 15 24 15 6 0 12 3 14 8 2 4 26 25 53 47 28 22 55 44 61
50 7 5 43 37 80 70 83 72 269 259 341 341 46 54 72 85 141 170 13 16 36 47 50
69 15 22 39 53 55 69 15 16 27 35 27 42 0 7 4 14 8 16 11 4 122 175 122 187 0
5 3 11 8 13 19 8 232 416 232 445 0 7 5 13 12 13 6 0 8 3 5 6 -3 4 -1 16 5 28
7 11 13 23 13 26 1 3 7 19 14 35 18 43 55 138 57 150 2 6 14 42 28 80 33 94
96 319 110 391 3 16 7 40 10 54 12 54 17 76 22 109 6 34 10 56 19 101 4 22 9
63 20 155 10 85 19 220 19 297 1 49 4 88 7 88 4 0 4 15 0 33 -4 17 -4 44 0 59
4 16 4 28 1 28 -4 0 -8 46 -8 103 -1 95 -7 185 -20 282 -2 22 -7 56 -9 75 -2
19 -6 46 -9 60 -3 14 -7 43 -11 65 -9 66 -19 122 -29 163 -3 9 -11 49 -20 87
-8 39 -20 85 -25 103 -5 17 -7 32 -4 32 3 0 1 6 -5 13 -6 7 -13 24 -15 37 -2
14 -6 32 -10 40 -3 8 -19 60 -37 115 -17 55 -35 109 -40 120 -5 11 -21 52 -36
90 -14 39 -35 88 -45 110 -30 67 -56 130 -55 136 1 3 -4 12 -10 20 -7 8 -37
63 -69 123 -31 60 -65 122 -76 138 -11 15 -18 28 -15 28 5 0 -55 95 -74 117
-5 7 -10 17 -10 23 0 5 -3 10 -8 10 -4 0 -13 13 -20 28 -6 16 -21 38 -32 50
-11 12 -20 24 -20 27 0 7 -163 221 -205 270 -164 190 -388 414 -495 495 -18
14 -38 30 -44 35 -44 40 -116 95 -125 95 -6 0 -11 3 -11 8 0 4 -17 18 -38 32
-20 14 -39 27 -42 30 -16 16 -130 90 -139 90 -6 0 -11 3 -11 8 0 4 -9 12 -19
17 -24 12 -250 142 -271 155 -8 6 -22 13 -30 16 -8 4 -55 26 -105 50 -98 47
-279 124 -292 124 -4 0 -19 6 -33 13 -14 7 -72 28 -130 46 -58 18 -112 35
-120 38 -8 3 -24 8 -35 10 -11 2 -31 7 -45 12 -14 5 -45 14 -70 19 -66 16
-104 25 -115 28 -5 2 -23 6 -40 9 -16 3 -52 10 -80 15 -101 20 -114 22 -215
35 -25 3 -63 8 -85 11 -22 3 -58 7 -80 9 -50 6 -592 15 -597 10z"/>
</g>
</svg>
