<?xml version="1.0" standalone="no"?>
<!DOCTYPE svg PUBLIC "-//W3C//DTD SVG 20010904//EN"
 "http://www.w3.org/TR/2001/REC-SVG-20010904/DTD/svg10.dtd">
<svg version="1.0" xmlns="http://www.w3.org/2000/svg"
 width="880.000000pt" height="880.000000pt" viewBox="0 0 880.000000 880.000000"
 preserveAspectRatio="xMidYMid meet">
<metadata>
Created by potrace 1.14, written by Peter Selinger 2001-2017
</metadata>
<g transform="translate(0.000000,880.000000) scale(0.100000,-0.100000)"
fill="#000000" stroke="none">
<path d="M4300 6523 c-38 -7 -51 -23 -110 -140 -30 -59 -58 -109 -62 -111 -5
-2 -8 -9 -8 -16 0 -7 -6 -26 -14 -42 -17 -33 -62 -184 -69 -232 -4 -25 -2 -32
11 -33 10 -1 26 -3 37 -4 11 -1 52 -6 90 -9 85 -9 130 -14 170 -20 17 -2 53
-7 80 -11 65 -9 288 -53 375 -74 25 -7 56 -14 70 -17 14 -2 36 -9 50 -14 14
-5 36 -11 50 -14 14 -2 48 -12 75 -21 28 -10 55 -18 60 -19 42 -8 293 -100
410 -150 198 -86 408 -193 533 -272 29 -19 54 -34 57 -34 20 0 445 -307 445
-322 0 -4 6 -8 14 -8 8 0 16 -3 18 -7 2 -5 37 -37 78 -73 106 -91 121 -105
215 -198 74 -74 180 -187 245 -262 12 -14 31 -36 43 -50 33 -38 157 -198 202
-260 22 -30 44 -58 50 -62 5 -4 7 -8 3 -8 -7 0 36 -63 73 -107 5 -7 7 -13 3
-13 -4 0 2 -10 13 -22 11 -13 28 -36 37 -53 9 -16 28 -48 41 -70 14 -22 41
-69 61 -105 20 -36 38 -66 40 -68 3 -5 39 15 56 30 7 7 31 26 53 43 67 50 151
144 262 293 l54 73 -22 62 c-12 34 -25 66 -30 71 -5 6 -9 16 -9 24 0 16 -100
223 -144 297 -76 130 -241 370 -302 442 -11 11 -35 41 -54 64 -168 207 -478
496 -728 681 -268 198 -620 404 -892 521 -141 61 -352 142 -397 152 -10 2 -37
11 -60 19 -22 9 -53 17 -67 20 -14 3 -30 7 -36 11 -10 6 -25 10 -84 21 -16 2
-33 7 -38 10 -4 3 -18 7 -30 9 -13 3 -57 12 -98 20 -120 24 -136 27 -230 39
-25 4 -63 9 -85 12 -49 7 -471 13 -505 7z"/>
<path d="M3804 6324 c-49 -53 -98 -106 -110 -118 -43 -44 -114 -134 -114 -145
0 -6 -3 -11 -7 -11 -5 0 -21 -23 -38 -51 -52 -87 -38 -81 -145 -63 -52 9 -111
17 -130 19 -19 2 -44 6 -55 8 -18 4 -58 8 -220 23 -32 3 -374 16 -410 16 -32
0 -297 -13 -330 -16 -46 -4 -159 -16 -195 -21 -14 -2 -47 -6 -75 -10 -41 -5
-147 -23 -240 -41 -78 -15 -142 -29 -220 -50 -49 -14 -100 -27 -113 -30 -29
-6 -246 -78 -287 -95 -16 -7 -34 -13 -40 -14 -52 -13 -414 -188 -469 -228 -6
-4 -58 -38 -116 -76 -157 -103 -159 -105 -155 -184 6 -114 17 -221 26 -243 4
-12 6 -24 4 -26 -9 -9 61 -238 78 -254 4 -4 73 27 154 68 152 76 331 155 463
203 41 15 93 34 115 42 39 15 185 61 215 68 8 2 15 4 15 5 0 1 7 3 15 5 8 1
60 14 115 29 55 14 114 28 130 31 17 3 35 7 40 9 32 8 109 24 155 31 14 2 40
6 58 9 142 25 269 39 462 51 75 5 410 5 490 0 97 -6 272 -23 309 -30 9 -2 27
-4 41 -4 l25 -1 1 -112 c0 -62 3 -140 7 -173 8 -69 55 -251 87 -340 29 -80
125 -274 172 -347 21 -32 38 -61 38 -65 0 -3 40 -59 90 -124 l89 -118 -37 -10
c-34 -9 -73 -15 -162 -27 -19 -2 -51 -7 -70 -10 -92 -14 -204 -26 -395 -40
-201 -16 -903 -8 -1025 11 -14 2 -56 6 -95 10 -73 7 -265 32 -300 39 -11 2
-45 7 -75 12 -30 4 -57 8 -60 9 -3 1 -32 7 -65 14 -113 24 -306 72 -347 87
-22 8 -50 16 -62 18 -48 10 -248 92 -335 138 -136 72 -206 121 -291 207 -136
137 -188 215 -235 351 -14 41 -30 83 -35 92 -6 10 -10 26 -10 36 0 10 -4 22
-9 28 -4 5 -14 30 -21 57 -7 26 -16 47 -20 47 -3 0 -19 -66 -33 -147 -15 -82
-30 -159 -33 -173 -16 -60 -11 -356 6 -465 82 -503 222 -765 545 -1016 39 -29
72 -57 73 -61 2 -5 9 -8 16 -8 8 0 24 -9 37 -19 14 -10 40 -28 59 -40 37 -22
271 -138 305 -151 11 -4 36 -15 55 -23 19 -8 73 -27 120 -42 47 -14 92 -29
100 -32 8 -3 20 -7 25 -9 6 -1 64 -16 130 -33 66 -16 134 -33 150 -36 75 -13
204 -34 240 -39 22 -3 56 -8 75 -11 61 -9 262 -27 330 -29 25 -1 50 -4 55 -7
26 -12 669 1 770 17 17 2 57 7 90 10 116 10 150 14 175 19 14 3 43 8 65 10
134 18 411 85 570 139 200 67 410 166 542 255 l58 39 35 -21 c19 -12 37 -23
40 -26 3 -4 17 -12 33 -20 15 -8 27 -18 27 -23 0 -4 6 -8 13 -8 7 0 22 -8 33
-17 11 -10 41 -29 67 -43 26 -13 47 -28 47 -31 0 -4 8 -9 18 -13 9 -3 31 -14
47 -23 152 -92 377 -208 500 -260 33 -14 84 -36 113 -49 29 -13 56 -24 61 -24
5 0 30 -9 57 -19 46 -18 69 -26 86 -30 4 -1 24 -9 45 -17 20 -9 44 -17 52 -19
9 -2 52 -13 96 -25 98 -27 153 -40 183 -46 62 -11 82 -15 137 -24 96 -15 212
-23 330 -23 105 0 263 11 275 18 3 2 25 6 49 10 94 14 359 107 381 134 3 3 18
13 34 21 68 35 299 221 391 315 154 156 270 333 325 495 12 36 26 74 30 85 5
11 16 45 25 75 9 30 20 62 24 70 5 9 12 31 16 50 7 35 7 35 -11 14 -11 -11
-50 -47 -89 -80 -38 -32 -72 -61 -75 -64 -33 -35 -147 -120 -197 -146 -23 -13
-96 -38 -101 -35 -1 0 -17 -5 -35 -13 -126 -52 -335 -63 -580 -31 -97 12 -321
72 -472 125 -49 17 -94 32 -100 34 -12 3 -17 6 -160 63 -138 56 -435 201 -580
283 -60 34 -135 76 -165 93 -30 17 -57 33 -60 37 -3 4 -18 14 -35 23 -16 8
-53 30 -81 48 -27 19 -85 56 -127 84 l-77 49 5 41 c2 22 7 51 10 65 11 44 13
302 3 375 -5 39 -16 95 -24 125 -8 30 -17 64 -19 75 -6 33 -45 189 -51 205 -5
12 -63 -162 -78 -235 -19 -89 -92 -238 -145 -296 -20 -21 -43 -47 -51 -58 -13
-20 -15 -20 -41 -3 -15 9 -42 31 -61 47 -18 17 -49 43 -68 59 -107 87 -374
345 -367 353 6 5 153 -62 306 -139 74 -37 137 -68 141 -68 15 0 66 155 84 255
3 17 8 40 10 52 3 12 8 64 11 115 4 51 8 110 10 132 3 45 -21 73 -103 122 -18
10 -32 22 -32 26 0 4 -5 8 -11 8 -6 0 -25 11 -43 25 -18 14 -37 25 -41 25 -5
0 -16 6 -24 14 -28 25 -270 152 -280 147 -2 -2 -7 1 -10 6 -18 24 -470 193
-518 193 -7 0 -17 8 -22 18 -9 18 -8 210 2 247 6 24 48 201 51 218 2 7 8 32
15 56 7 23 10 45 8 47 -2 2 -44 -39 -93 -92z"/>
</g>
</svg>
