<svg width="28" height="25" viewBox="0 0 28 25" fill="none" xmlns="http://www.w3.org/2000/svg">
<path d="M6.31098 2.75122C6.31061 3.48053 6.01489 4.17982 5.48888 4.69526C4.96287 5.21069 4.24966 5.50006 3.50614 5.4997C2.76262 5.49933 2.0497 5.20927 1.52422 4.69331C0.998735 4.17736 0.70373 3.47778 0.704102 2.74847C0.704474 2.01917 1.00019 1.31988 1.5262 0.80444C2.05221 0.289001 2.76543 -0.000364308 3.50894 3.44228e-07C4.25246 0.000364997 4.96538 0.29043 5.49087 0.806384C6.01635 1.32234 6.31136 2.02192 6.31098 2.75122ZM6.39509 7.53596H0.788205V24.75H6.39509V7.53596ZM15.254 7.53596H9.67511V24.75H15.1979V15.7168C15.1979 10.6845 21.8841 10.2171 21.8841 15.7168V24.75H27.4209V13.8469C27.4209 5.36358 17.5247 5.67981 15.1979 9.84583L15.254 7.53596Z" fill="#F4F6F8"/>
</svg>
