<svg width="36" height="34" viewBox="0 0 36 34" fill="none" xmlns="http://www.w3.org/2000/svg">
<path d="M17.7606 9.35938C16.1393 9.35938 14.5545 9.80474 13.2065 10.6392C11.8585 11.4736 10.8078 12.6595 10.1874 14.0471C9.56694 15.4347 9.40461 16.9615 9.7209 18.4346C10.0372 19.9076 10.8179 21.2607 11.9643 22.3227C13.1107 23.3847 14.5713 24.108 16.1614 24.401C17.7515 24.694 19.3997 24.5436 20.8975 23.9688C22.3954 23.3941 23.6756 22.4208 24.5763 21.172C25.477 19.9232 25.9578 18.455 25.9578 16.9531C25.9555 14.9398 25.0912 13.0095 23.5544 11.5858C22.0176 10.1622 19.9339 9.36147 17.7606 9.35938ZM17.7606 22.0156C16.6798 22.0156 15.6232 21.7187 14.7245 21.1624C13.8258 20.6062 13.1254 19.8155 12.7118 18.8905C12.2982 17.9654 12.1899 16.9475 12.4008 15.9655C12.6117 14.9835 13.1321 14.0814 13.8964 13.3734C14.6607 12.6654 15.6344 12.1832 16.6945 11.9879C17.7545 11.7926 18.8533 11.8928 19.8519 12.276C20.8504 12.6592 21.7039 13.308 22.3044 14.1406C22.9049 14.9731 23.2254 15.9519 23.2254 16.9531C23.2254 18.2958 22.6496 19.5834 21.6248 20.5329C20.5999 21.4823 19.2099 22.0156 17.7606 22.0156ZM25.9578 0.5H9.5634C7.02786 0.502513 4.59695 1.43672 2.80405 3.09763C1.01115 4.75854 0.00271229 7.01049 0 9.35938V24.5469C0.00271229 26.8958 1.01115 29.1477 2.80405 30.8086C4.59695 32.4695 7.02786 33.4037 9.5634 33.4062H25.9578C28.4933 33.4037 30.9242 32.4695 32.7171 30.8086C34.51 29.1477 35.5185 26.8958 35.5212 24.5469V9.35938C35.5185 7.01049 34.51 4.75854 32.7171 3.09763C30.9242 1.43672 28.4933 0.502513 25.9578 0.5ZM32.7888 24.5469C32.7888 26.2252 32.0691 27.8348 30.788 29.0215C29.507 30.2083 27.7695 30.875 25.9578 30.875H9.5634C7.7517 30.875 6.01421 30.2083 4.73315 29.0215C3.45209 27.8348 2.7324 26.2252 2.7324 24.5469V9.35938C2.7324 7.68105 3.45209 6.07147 4.73315 4.88472C6.01421 3.69796 7.7517 3.03125 9.5634 3.03125H25.9578C27.7695 3.03125 29.507 3.69796 30.788 4.88472C32.0691 6.07147 32.7888 7.68105 32.7888 9.35938V24.5469ZM28.6902 8.72656C28.6902 9.10204 28.57 9.46908 28.3448 9.78128C28.1196 10.0935 27.7996 10.3368 27.4251 10.4805C27.0507 10.6242 26.6386 10.6618 26.2411 10.5885C25.8436 10.5153 25.4784 10.3345 25.1918 10.069C24.9052 9.80346 24.71 9.46519 24.631 9.09693C24.5519 8.72867 24.5925 8.34696 24.7476 8.00006C24.9027 7.65317 25.1654 7.35667 25.5024 7.14807C25.8394 6.93947 26.2356 6.82812 26.6409 6.82812C27.1844 6.82812 27.7056 7.02814 28.09 7.38416C28.4743 7.74019 28.6902 8.22307 28.6902 8.72656Z" fill="#F4F6F8"/>
</svg>
