<svg width="60" height="54" viewBox="0 0 60 54" fill="none" xmlns="http://www.w3.org/2000/svg">
<path d="M45.0437 23.6583V24.6742C45.0412 26.393 44.3124 28.0529 42.9919 29.3476C41.6713 30.6422 39.8483 31.4841 37.8593 31.7177C38.6712 32.6071 39.1119 33.7037 39.1111 34.8325V39.9117C39.1111 40.1811 38.9861 40.4395 38.7636 40.63C38.5411 40.8205 38.2393 40.9275 37.9246 40.9275H28.4325C28.1178 40.9275 27.816 40.8205 27.5935 40.63C27.371 40.4395 27.246 40.1811 27.246 39.9117V37.88H23.6864C22.113 37.88 20.604 37.3449 19.4915 36.3923C18.3789 35.4398 17.7539 34.1479 17.7539 32.8008C17.7539 31.9926 17.3788 31.2174 16.7113 30.6459C16.0438 30.0744 15.1384 29.7533 14.1943 29.7533C13.8796 29.7533 13.5778 29.6463 13.3553 29.4558C13.1328 29.2653 13.0078 29.0069 13.0078 28.7375C13.0078 28.4681 13.1328 28.2097 13.3553 28.0192C13.5778 27.8287 13.8796 27.7217 14.1943 27.7217C14.9734 27.7217 15.7448 27.853 16.4646 28.1083C17.1844 28.3636 17.8384 28.7377 18.3893 29.2093C18.9402 29.681 19.3772 30.2409 19.6753 30.8571C19.9734 31.4734 20.1269 32.1338 20.1269 32.8008C20.1269 33.6091 20.5019 34.3842 21.1695 34.9557C21.837 35.5273 22.7424 35.8483 23.6864 35.8483H27.246V34.8325C27.2452 33.7037 27.6859 32.6071 28.4977 31.7177C26.5088 31.4841 24.6857 30.6422 23.3652 29.3476C22.0447 28.0529 21.3159 26.393 21.3134 24.6742V23.6583C21.3282 22.3959 21.7209 21.1578 22.4539 20.0623C22.0913 19.0607 21.9749 18.0056 22.1123 16.9636C22.2496 15.9215 22.6376 14.9152 23.2519 14.0079C23.356 13.8535 23.5059 13.7252 23.6863 13.6361C23.8667 13.5469 24.0714 13.5 24.2797 13.5C25.6617 13.4975 27.0252 13.7718 28.2613 14.301C29.4974 14.8301 30.5719 15.5995 31.3988 16.5475H34.9583C35.7852 15.5995 36.8596 14.8301 38.0957 14.301C39.3318 13.7718 40.6954 13.4975 42.0774 13.5C42.2857 13.5 42.4904 13.5469 42.6708 13.6361C42.8512 13.7252 43.001 13.8535 43.1052 14.0079C43.7195 14.9152 44.1075 15.9216 44.2446 16.9636C44.3817 18.0057 44.2649 19.0608 43.9016 20.0623C44.6361 21.1573 45.0294 22.3957 45.0437 23.6583Z" fill="#D5CCD6"/>
</svg>
