<svg width="150" height="150" viewBox="0 0 150 150" fill="none" xmlns="http://www.w3.org/2000/svg">
<g clip-path="url(#clip0_411_897)">
<mask id="mask0_411_897" style="mask-type:luminance" maskUnits="userSpaceOnUse" x="-822" y="-1665" width="2139" height="2924">
<path d="M-821.34 -1664.5H1316.18V1258.28H-821.34V-1664.5Z" fill="white"/>
</mask>
<g mask="url(#mask0_411_897)">
<path d="M74.991 150C116.418 150 150 116.368 150 75.0088C150 33.5736 116.418 -0.000133972 74.991 -0.000133972C33.5688 -0.000133972 0 33.5736 0 75.0088C0 116.368 33.5688 150 74.991 150Z" fill="#260228"/>
<path d="M71.969 42.0501V107.873H92.8575V101.96H78.0083V42.0501H71.969Z" fill="#DDE2EE"/>
<path d="M51.0268 60.0449C55.9795 60.0449 60.0566 56.0221 60.0566 51.0565C60.0566 46.064 55.9795 42.0323 51.0268 42.0323C46.074 42.0323 42.0239 46.064 42.0239 51.0565C42.0239 56.0221 46.074 60.0449 51.0268 60.0449Z" fill="#DDE2EE"/>
<path d="M78.0084 12.2747C77.1867 12.2522 75.7634 12.2522 74.991 12.2522C40.367 12.2522 12.2 40.3576 12.2 74.9954C12.2 91.7464 18.7466 107.528 30.5694 119.367C42.4505 131.233 58.1797 137.828 74.991 137.828C91.7665 137.828 107.518 131.233 119.39 119.367C131.213 107.528 137.724 91.7464 137.724 74.9954V72.1265H92.916V77.9541H131.779C131.779 78.0708 131.752 78.7128 131.752 78.843C129.839 108.479 105.044 131.871 74.991 131.871C59.8141 131.871 45.4634 125.98 34.7363 115.263C23.9957 104.524 18.0461 90.1974 18.0461 74.9909C18.0461 59.7978 23.9957 45.4983 34.7363 34.7635C45.4634 24.0017 59.8141 18.0753 74.991 18.0753C75.6646 18.0753 77.2631 18.1113 78.0084 18.1248V12.2747Z" fill="#DDE2EE"/>
</g>
</g>
<defs>
<clipPath id="clip0_411_897">
<rect width="150" height="150" fill="white"/>
</clipPath>
</defs>
</svg>
