<svg width="150" height="125" viewBox="0 0 150 125" fill="none" xmlns="http://www.w3.org/2000/svg">
<path d="M0 0V23.5849H79.0154L100.82 0H0Z" fill="#260228"/>
<mask id="mask0_409_862" style="mask-type:luminance" maskUnits="userSpaceOnUse" x="0" y="0" width="150" height="125">
<path d="M150 0.420219H0.368896V125H150V0.420219Z" fill="white"/>
</mask>
<g mask="url(#mask0_409_862)">
<path d="M57.5104 51.3818H0.368896V74.0384H59.5037C58.9722 73.348 58.4406 72.6576 57.9755 71.9045C55.2513 67.7623 54.6534 62.9925 55.3178 58.0972C55.65 55.5868 56.4473 53.3901 57.5104 51.3818Z" fill="#260228"/>
</g>
<path d="M0 102.594V125H104.508L82.199 102.594H0Z" fill="#260228"/>
<mask id="mask1_409_862" style="mask-type:luminance" maskUnits="userSpaceOnUse" x="0" y="0" width="150" height="125">
<path d="M150 0.420219H0.368896V125H150V0.420219Z" fill="white"/>
</mask>
<g mask="url(#mask1_409_862)">
<path d="M94.453 68.2018C91.9281 65.6914 89.3368 63.181 86.8119 60.6705C90.9314 56.4656 94.8516 52.3861 98.7718 48.3695C102.958 44.1017 107.21 39.8968 111.396 35.6291C117.775 29.102 124.153 22.5121 130.532 15.985C133.123 13.349 135.781 10.7131 138.372 8.07715L138.306 8.13991L146.013 0.357601H144.419H140.631C132.459 0.357601 124.286 0.420362 116.18 0.357601C115.383 0.357601 114.652 0.357601 113.987 0.608643L105.549 9.01856C102.227 12.4704 98.9047 15.8595 95.5825 19.3741C87.7422 27.6585 80.0347 36.0684 71.995 44.1645C68.0084 48.1812 64.8855 52.4489 64.0218 58.0346C63.2909 62.9927 63.9553 67.7625 66.8789 71.8419C69.1379 74.98 71.9286 77.7414 74.6528 80.5656C82.626 88.6618 90.5992 96.6951 98.6389 104.728C104.685 110.816 110.865 116.779 116.844 122.992C118.306 124.561 119.834 125 121.894 125C130.465 124.937 139.037 125 147.608 124.937H147.674H149.801L149.269 124.373L94.453 68.2018Z" fill="#495A8C"/>
</g>
</svg>
