<svg width="400" height="400" viewBox="0 0 400 400" fill="none" xmlns="http://www.w3.org/2000/svg">
<g clip-path="url(#clip0_348_2846)">
<path d="M34.1614 10.08C33.4792 12 34.313 12.8 37.042 12.8C40.0742 12.8 42.9548 10.16 40.9081 9.28005C38.4823 8.32005 34.6162 8.80005 34.1614 10.08Z" fill="#260228"/>
<path d="M404.015 14C386.656 17.04 379.303 18.32 374.072 19.2C371.343 19.68 366.795 20.56 363.839 21.12C350.421 23.92 335.791 26.56 327.831 27.6C323.055 28.24 317.446 29.12 315.323 29.6C301.375 32.48 294.856 33.6 291.899 33.6C290.004 33.6 288.336 33.92 288.109 34.32C287.882 34.72 285.683 35.28 283.333 35.52C280.908 35.84 277.951 36.4 276.662 36.8C275.45 37.28 270.977 38.08 266.808 38.72C262.638 39.36 256.195 40.48 252.405 41.04C248.69 41.68 243.232 42.48 240.428 42.72C235.576 43.12 235.273 43.04 234.591 41.28C234.212 40.24 233.681 39.28 233.302 39.12C232.089 38.56 229.284 34.24 229.739 33.52C229.966 33.12 231.558 32.8 233.302 32.8C237.092 32.8 239.366 31.68 236.94 30.96C234.666 30.4 224.736 32.08 224.736 33.12C224.736 34.16 230.345 39.2 231.483 39.2C231.937 39.2 232.316 40.24 232.316 41.6C232.316 43.2 232.695 44 233.453 44C234.212 44 234.591 44.8 234.591 46.32C234.591 47.68 235.045 48.8 235.803 49.12C237.774 49.92 242.398 49.68 247.932 48.48C253.769 47.2 263.851 45.36 272.493 44C275.601 43.44 281.438 42.4 285.38 41.6C293.036 40.08 301.602 38.48 313.428 36.32C317.37 35.6 323.055 34.56 326.088 33.92C329.12 33.28 332.455 32.8 333.592 32.8C334.729 32.8 338.216 32.32 341.4 31.68C344.584 31.04 350.269 29.92 353.984 29.2C357.774 28.56 363.384 27.44 366.492 26.8C369.6 26.16 375.588 25.04 379.758 24.4C383.927 23.68 389.461 22.56 392.038 21.92C394.616 21.28 397.875 20.8 399.24 20.8C400.68 20.8 403.636 20.32 405.911 19.68C408.185 19.12 412.051 18.32 414.477 18C418.797 17.52 418.797 17.52 418.797 14.72C418.797 11.44 419.025 11.44 404.015 14Z" fill="#260228"/>
<path d="M278.103 22.8C276.814 23.84 276.89 23.92 279.695 23.44C283.485 22.88 285.001 21.6 281.893 21.6C280.604 21.6 278.937 22.16 278.103 22.8Z" fill="#260228"/>
<path d="M190.699 25.04C186.757 26.48 183.422 28.08 183.195 28.64C182.816 30 186.151 29.84 187.894 28.4C188.728 27.76 190.775 27.2 192.519 27.2C194.262 27.2 196.309 26.64 197.143 26C199.038 24.48 203.056 24.48 204.268 26C205.33 27.36 209.954 27.68 210.712 26.4C211.394 25.28 206.012 23.12 201.615 22.72C198.735 22.48 196.157 23.04 190.699 25.04Z" fill="#260228"/>
<path d="M255.058 27.12C255.058 28.48 257.484 28.8 259.455 27.6L261.502 26.48L258.318 26.4C256.498 26.4 255.058 26.72 255.058 27.12Z" fill="#260228"/>
<path d="M243.687 29.12C243.687 29.92 245.81 30.16 246.795 29.52C247.553 29.04 247.326 28.8 245.81 28.8C244.597 28.8 243.687 28.96 243.687 29.12Z" fill="#260228"/>
<path d="M197.825 32.5601C196.157 32.72 194.187 33.44 193.504 34.16C192.746 34.88 190.699 35.36 187.819 35.36C185.393 35.36 182.664 35.8401 181.754 36.48C180.845 37.1201 179.48 37.6 178.722 37.6C176.675 37.6 178.495 38.88 182.664 40.32C187.516 42 188.046 42.4001 188.577 44.8801L189.108 46.96L184.711 46.32C182.133 45.92 180.087 46 179.632 46.48C179.253 46.8801 179.101 47.2 179.253 47.28C179.48 47.28 181.679 47.92 184.18 48.56C190.548 50.2401 201.464 49.92 205.406 48C211.319 45.04 212.531 44.8 213.517 45.92C214.351 46.8801 214.73 46.8801 215.791 45.84C217.307 44.4 218.672 45.12 218.672 47.28C218.672 48.08 218.975 48.8 219.43 48.8C219.809 48.8 221.249 49.84 222.689 51.2C224.584 52.96 225.494 54.64 226.252 58.16C228.223 66.8801 227.01 71.6 222.386 73.6C221.173 74.16 219.809 75.28 219.354 76.08C218.596 77.6 216.776 78 214.578 77.12C213.668 76.72 213.593 76.4 214.351 75.2C215.033 73.92 214.957 73.36 213.668 71.84C212.835 70.8 211.546 69.04 210.864 67.84C210.106 66.56 208.438 65.36 206.77 64.8801C203.132 63.84 202.828 64.2401 205.481 66.72C211.091 71.92 213.062 74.64 212.228 76C211.849 76.56 209.954 76.8 206.998 76.64C202.525 76.4 202.373 76.48 202.373 78.4C202.373 80.32 202.601 80.4 207.68 80.8L212.986 81.2L213.744 84.32C214.275 86.72 214.199 87.84 213.138 89.76C211.622 92.56 211.394 99.2 212.835 99.2C213.365 99.2 214.73 100.08 215.867 101.2C217.838 103.2 217.914 103.36 216.776 106.16C216.094 107.76 215.185 109.6 214.73 110.24C213.744 111.44 212.228 114.08 211.394 116C211.091 116.64 209.727 118.72 208.286 120.56C205.709 124 205.633 124 200.782 124C197.977 124 194.945 124.48 193.732 125.12C190.169 127.12 184.711 128.24 181.3 127.68C178.798 127.28 177.737 126.64 176.751 124.88C174.78 121.36 175.084 119.36 177.585 119.04C179.025 118.88 179.708 118.32 179.859 116.96C180.011 115.92 179.708 115.2 179.101 115.12C178.571 115.12 176.903 115.04 175.463 114.96C173.34 114.8 172.734 114.48 172.582 112.96C172.279 110.56 174.098 109.92 177.661 111.2C180.845 112.32 183.801 111.68 183.801 110C183.801 108.24 182.664 107.92 175.917 107.6C171.293 107.36 169.171 107.6 168.109 108.4C167.351 109.04 165.987 109.6 165.077 109.6C161.135 109.6 154.919 115.92 156.587 118.16C157.269 118.96 157.876 118.96 159.619 118C162.652 116.32 163.41 116.48 168.564 119.68C172.506 122.16 173.037 122.8 172.43 124C171.217 126.4 171.521 127.2 174.174 128.48C175.463 129.12 177.282 130.16 178.116 130.64C178.95 131.2 180.769 132.32 182.209 133.12L184.711 134.56L182.967 136.48C180.769 138.96 179.329 138.88 176.524 136.16C172.885 132.56 163.334 128.64 160.681 129.6C159.164 130.24 159.164 130.24 160.681 130.8C163.94 132.08 168.64 134.56 169.095 135.28C169.322 135.68 170.611 136 171.976 136C173.871 136 174.629 136.4 174.932 137.6C175.159 138.48 175.842 139.2 176.524 139.2C177.206 139.2 177.737 139.52 177.737 140C177.737 140.4 178.798 142 180.011 143.44C182.892 146.96 182.967 148.8 180.238 148.8C178.116 148.72 174.705 146.4 174.705 144.96C174.705 143.68 163.713 136.24 161.363 136C156.663 135.44 156.966 137.04 162.045 139.6C164.168 140.72 166.518 141.92 167.124 142.32C167.73 142.64 169.626 143.68 171.293 144.56L174.326 146.24L174.78 166.08C175.084 177.04 175.614 186.88 175.993 188C176.372 189.12 176.675 192.48 176.6 195.6C176.6 200.64 176.448 201.2 175.008 201.44C174.174 201.6 172.961 201.12 172.43 200.4C171.217 198.88 167.124 198.8 165.153 200.4C162.955 202.16 161.135 201.84 160.302 199.6C159.923 198.48 159.468 186.72 159.316 173.52L159.089 149.36L160.832 147.2C162.652 144.8 162.424 144 159.923 144C159.013 144 157.648 143.44 156.814 142.8C154.768 141.2 153.555 141.28 151.66 143.36C150.75 144.4 149.386 145.52 148.628 146C147.415 146.72 147.415 147.04 148.4 149.12C149.082 150.4 149.386 151.92 149.158 152.56C148.931 153.2 149.386 154.48 150.219 155.44C152.342 158 154.389 161.68 154.01 162.16C153.782 162.32 152.494 162.8 151.053 163.2C149.689 163.52 147.945 164.08 147.187 164.4C146.05 164.88 145.899 164.72 146.353 162.96C146.808 160.96 146.581 160.8 143.7 160.32C142.032 160 140.213 159.28 139.758 158.72C139.228 158.08 137.408 157.6 135.21 157.6C131.496 157.6 131.496 157.6 131.496 160.16C131.496 161.6 130.965 163.52 130.358 164.32C129.752 165.2 129.221 166.72 129.221 167.76C129.221 170.48 126.568 175.52 124.37 177.04C122.854 178.16 122.475 179.12 122.247 183.2C122.171 185.84 122.096 188 122.171 188C122.247 188 123.763 187.2 125.583 186.24C127.402 185.2 129.979 184.56 131.571 184.56C134.376 184.72 134.376 184.72 133.77 182.24C133.239 180.32 133.391 179.12 134.755 176.48C135.665 174.72 136.574 172.08 136.802 170.8C137.105 169.04 137.56 168.48 138.545 168.64C139.303 168.8 140.744 168.32 141.729 167.68C143.7 166.32 147.642 166.72 148.779 168.32C149.31 169.04 150.371 173.36 151.66 180.64C152.645 185.92 148.4 191.52 142.715 192.56C140.516 192.88 139.834 192.64 138.924 191.28C137.939 189.76 137.105 189.6 130.813 189.68C123.233 189.76 123.157 189.84 124.976 194.48C125.583 196 121.944 201.04 120.58 200.56C120.125 200.4 119.822 199.36 119.973 198.24C120.125 197.12 119.67 195.68 119.063 194.96C117.623 193.44 117.472 191.44 118.836 190.96C119.291 190.8 119.518 190.32 119.215 190C118.912 189.68 118.078 190 117.396 190.8C116.334 191.92 116.259 192.48 116.941 193.68C118.154 195.6 118.078 198.16 116.941 198.56C116.183 198.88 116.183 199.36 116.941 201.12C118.154 204 118.078 207.76 116.789 208.56C116.259 208.88 115.804 210.08 115.88 211.2C115.955 212.48 115.501 213.28 114.515 213.44C113.302 213.68 113.151 213.44 113.53 211.28C114.06 208.64 112.772 204.56 111.71 205.28C111.331 205.52 111.028 206.72 111.028 208C111.028 209.28 110.649 210.56 110.194 210.8C109.057 211.6 111.635 214.4 113.454 214.4C115.273 214.4 116.031 216.48 114.818 218C114.288 218.64 113.985 220.88 114.136 222.96C114.515 231.12 114.288 232 111.786 232C110.043 232 109.285 232.48 108.602 234C107.996 235.44 107.314 235.92 106.328 235.52C105.191 235.12 104.964 235.52 104.964 238.4C104.964 240.16 104.509 242.88 103.902 244.4C103.144 246.32 102.614 252.08 102.235 262.56C101.704 279.68 102.538 285.68 105.873 289.12C106.859 290.08 108.906 292.4 110.497 294.24C112.999 297.2 118.609 301.28 117.699 299.44C115.425 295.04 110.27 283.12 110.27 282.24C110.27 281.6 109.891 280.72 109.36 280.16C107.844 278.56 108.299 258.08 109.967 254C110.876 251.6 111.104 249.6 110.725 245.84C110.27 241.2 110.346 240.72 112.393 238.24C115.273 234.72 117.093 229.6 117.093 225.2C117.093 223.2 117.396 221.6 117.851 221.6C119.442 221.6 119.973 218.8 118.912 215.44C117.699 211.76 118.457 208.8 120.504 208.8C122.551 208.8 125.431 203.6 125.962 199.12C126.189 196.72 126.72 194.32 127.175 193.76C128.16 192.48 134.528 192.56 136.423 193.92C138.621 195.44 143.928 196.16 146.278 195.2C147.945 194.48 149.082 194.72 152.418 196.48C154.692 197.6 156.511 199.12 156.511 199.76C156.511 200.4 155.45 202.32 154.086 204.08C151.432 207.6 151.66 208.64 154.844 207.28C156.587 206.48 157.421 206.56 159.24 207.6C162.272 209.2 163.182 209.12 163.485 206.96C163.713 205.44 164.092 205.28 166.214 205.44C167.655 205.6 169.777 205.28 170.99 204.8C174.022 203.44 174.629 204.32 172.43 206.8C171.217 208.16 169.853 208.8 168.109 208.8C166.745 208.8 165.608 209.12 165.608 209.6C165.608 210 167.048 210.4 168.716 210.4C172.051 210.4 176.524 208.08 177.282 206C177.509 205.28 178.646 204.8 180.163 204.8C182.512 204.8 182.816 205.2 185.241 210.64C186.682 213.76 188.35 217.92 188.956 219.92C189.562 221.84 190.699 224.08 191.458 224.88C193.58 227.12 194.869 232.56 193.807 234.48C192.367 236.8 192.67 239.28 194.49 239.76C195.399 240.08 195.854 240.64 195.627 241.36C195.399 242 195.172 242.96 195.172 243.52C195.172 244.08 193.959 245.92 192.443 247.6C190.472 249.92 189.183 250.72 187.895 250.56C186.606 250.32 185.317 251.04 183.725 252.88C181.3 255.6 181.3 255.68 182.74 262.96C183.119 265.12 182.816 266.08 180.921 268.56C179.708 270.24 178.419 272.72 178.192 274.16C177.737 276.32 177.888 276.88 179.404 277.68C180.39 278.16 181.451 279.12 181.754 279.76C182.285 280.64 182.664 280.64 183.422 280C184.635 278.88 186.075 279.6 186.075 281.2C186.075 282.48 188.35 283.92 191.761 284.88C196.84 286.24 203.89 289.44 204.117 290.48C204.193 291.12 203.435 292.64 202.298 293.84C200.63 295.76 200.024 296 197.674 295.52C195.703 295.12 195.096 295.2 195.475 295.92C195.778 296.4 196.461 296.8 197.067 296.8C197.598 296.8 198.204 297.36 198.507 298C199.19 300 202.222 299.36 205.33 296.64C207.983 294.4 208.21 293.84 207.831 291.04C207.604 289.36 207.756 287.76 208.135 287.52C208.514 287.28 209.575 285.6 210.409 283.84C211.622 281.36 211.849 279.76 211.47 277.28C211.243 275.44 211.015 272.72 211.015 271.2C211.015 269.68 210.712 268.24 210.333 268C209.954 267.76 209.575 266 209.423 264C209.196 260.64 209.348 260.48 211.698 259.76C214.578 258.8 214.73 258.24 212.304 255.84C211.015 254.56 210.257 252.32 209.575 248.48C208.817 244.32 208.286 242.88 207.225 242.64C206.315 242.4 205.785 241.52 205.785 240.4C205.785 239.44 205.254 238.16 204.648 237.6C204.041 237.04 203.511 235.76 203.511 234.72C203.511 233.76 203.132 232.64 202.677 232.32C201.615 231.68 202.373 235.76 204.117 239.92C205.406 243.04 205.709 249.6 205.027 257.04C204.572 260.96 204.723 261.84 205.936 262.72C207.073 263.6 207.225 264.72 206.998 271.76C206.846 278.08 206.467 280.24 205.33 281.92C202.98 285.28 201.236 285.28 194.338 281.68C190.927 279.84 187.061 278.4 185.772 278.4C182.512 278.4 181.527 277.52 180.996 274.16C180.617 271.52 180.845 271.12 183.119 269.68C186.606 267.44 188.274 267.6 191.078 270.48C193.959 273.44 200.554 274.56 203.132 272.56C203.965 271.84 204.42 271.12 204.117 270.8C203.89 270.56 200.782 269.28 197.37 268C190.396 265.52 186.379 262.32 185.317 258.48C183.877 252.96 186.758 250.96 190.093 255.12C192.14 257.68 200.024 262 201.236 261.2C202.298 260.48 202.146 258.4 200.782 255.6C200.175 254.32 199.796 252.48 200.024 251.44C200.327 250.48 200.175 249.44 199.72 249.2C199.341 248.96 198.962 245.68 198.962 242C198.962 238.32 198.659 235.04 198.204 234.8C197.825 234.56 197.446 232.4 197.446 230.08C197.446 227.2 197.067 225.44 196.233 224.72C195.627 224.16 195.248 223.04 195.399 222.24C195.627 221.44 195.172 219.92 194.338 218.88C193.58 217.84 192.898 216.4 192.898 215.84C192.898 215.2 192.67 214.4 192.367 214.08C191.988 213.76 191.761 211.2 191.685 208.56C191.609 202.64 188.729 189.04 186.379 183.44C185.772 182.08 185.317 180.24 185.317 179.36C185.317 178.48 184.862 176.72 184.256 175.44C180.769 168.32 180.238 165.76 181.527 163.28C182.058 162.08 183.271 161.76 187.364 161.68C193.353 161.52 196.006 160 190.169 160C183.346 160 183.043 159.76 183.043 153.92C183.043 149.92 183.271 148.8 184.18 148.8C185.545 148.8 186.833 146.32 186.833 143.84C186.833 142.8 187.212 141.52 187.743 140.96C188.425 140.24 188.425 139.36 187.667 137.12C186.454 133.68 186.758 133.28 189.411 134.56C191.003 135.28 191.837 135.28 192.974 134.56C193.732 134 195.02 133.6 195.854 133.6C196.612 133.6 197.446 133.12 197.674 132.56C198.128 131.36 204.951 128.8 207.68 128.8C209.575 128.8 213.365 124.24 213.365 121.84C213.365 121.04 213.668 119.92 214.047 119.36C214.502 118.56 214.806 118.56 215.639 119.6C217.004 121.36 217.914 121.12 217.914 118.96C217.914 117.36 220.87 105.68 222.159 102.08C222.538 101.12 222.083 100.8 220.339 100.8C216.473 100.8 215.943 98.96 218.899 95.68C220.339 94.08 221.931 92.8 222.386 92.8C222.841 92.8 223.599 91.84 223.978 90.72C224.584 89.2 225.115 88.8 226.101 89.2C228.451 90.16 228.83 90 229.133 88.2401C229.36 86.8801 228.905 86.32 227.238 85.92C226.101 85.6 224.736 85.04 224.205 84.64C223.144 83.76 220.188 88.16 220.188 90.64C220.188 91.44 219.657 92.2401 219.051 92.48C218.444 92.72 217.231 94.16 216.322 95.68C215.033 97.92 214.502 98.24 213.668 97.5201C212.304 96.32 212.304 93.28 213.744 92C214.351 91.44 214.881 89.84 214.881 88.32C214.881 85.28 219.505 78.8 222.234 77.92C223.144 77.68 224.281 76.96 224.812 76.32C225.722 75.12 229.815 74.8 231.255 75.84C232.847 76.96 233.908 79.84 232.923 80.48C232.468 80.8 231.862 80.64 231.71 80.16C231.559 79.6 230.497 79.2 229.436 79.2H227.389L229.057 80.64C229.967 81.36 231.104 83.6 231.559 85.6L232.544 89.2L233.529 86C234.136 84.2401 234.97 82 235.5 81.04C236.031 79.84 236.183 76.16 235.879 69.68C235.576 61.6001 235.197 59.36 233.529 55.68C232.468 53.28 231.179 51.04 230.8 50.8C230.346 50.56 230.042 49.68 230.042 48.8801C230.042 46.48 228.223 43.2 226.859 43.2C225.039 43.2 224.509 44.56 226.025 45.12C226.934 45.5201 227.01 45.92 226.404 46.56C225.267 47.76 220.415 45.12 219.733 43.04C219.278 41.5201 218.52 41.2 217.61 42.16C216.852 42.9601 211.622 42.48 210.788 41.5201C209.499 40.2401 205.027 40.64 205.027 42C205.027 44.08 202.904 44.2401 200.099 42.4001C197.901 40.9601 196.764 40.72 193.656 41.2C190.548 41.6801 189.79 41.5201 189.411 40.48C188.501 38 190.548 36.8 195.627 36.8C198.204 36.8 200.63 36.4001 200.857 36C201.464 34.9601 206.012 34.9601 207.073 36.08C207.68 36.72 208.362 36.72 209.423 36.08C210.257 35.6 212.759 35.2 214.881 35.2C218.293 35.2 218.823 35.44 219.43 37.2801C220.339 39.6801 222.007 39.44 222.31 36.9601C222.462 35.8401 222.159 35.2 221.476 35.2C220.87 35.2 220.188 34.64 219.885 34C219.581 33.04 218.065 32.8 212.456 32.88C208.59 32.9601 204.42 32.8 203.132 32.5601C201.919 32.4001 199.493 32.4001 197.825 32.5601ZM183.422 196.32C184.787 197.84 186.151 199.84 186.454 200.72C186.682 201.68 187.288 202.4 187.667 202.4C188.046 202.4 188.35 202.88 188.35 203.52C188.35 204.08 188.88 205.04 189.487 205.6C190.775 206.72 191.003 209.6 189.866 209.6C189.411 209.6 188.88 209.04 188.577 208.24C188.274 207.52 186.985 205.84 185.696 204.48C184.332 203.12 182.74 200.64 182.209 198.96C181.679 197.36 180.921 196 180.617 196C180.314 196 180.011 195.44 180.011 194.8C180.011 193.04 180.617 193.28 183.422 196.32Z" fill="#260228"/>
<path d="M168.261 40.8799C166.442 42.7999 165.532 44.3199 165.835 45.1199C166.063 45.7599 165.835 46.6399 165.38 46.9599C164.319 47.6799 160.68 53.5999 161.135 53.8399C161.287 53.9199 162.197 54.4799 163.182 55.0399C164.774 55.9999 165.001 55.8399 165.759 53.5999C166.29 51.7599 166.821 51.3599 167.351 51.9199C168.564 53.1999 172.885 52.9599 173.946 51.5999C174.78 50.5599 174.401 50.3999 170.99 50.3999C167.124 50.3999 167.048 50.3199 167.276 48.3199C167.427 46.6399 168.185 45.9199 170.914 44.7999C172.734 44.0799 174.401 43.0399 174.553 42.5599C174.629 42.1599 173.946 40.8799 172.961 39.8399L171.142 37.9199L168.261 40.8799Z" fill="#260228"/>
<path d="M181.906 54.32C181.679 54.72 181.906 56 182.437 57.2C183.195 58.96 183.725 59.28 185.469 58.88C186.606 58.64 188.274 57.68 189.183 56.72L190.775 55.04L188.425 55.6C186.606 56 186.075 55.84 186.075 54.88C186.075 53.52 182.664 53.04 181.906 54.32Z" fill="#260228"/>
<path d="M196.157 54.16C195.627 54.32 195.172 54.88 195.172 55.36C195.172 56.32 198.28 55.84 198.28 54.8C198.356 53.84 197.446 53.6 196.157 54.16Z" fill="#260228"/>
<path d="M172.051 58.7201C168.64 59.8401 165.608 61.6801 165.608 62.5601C165.608 62.9601 168.337 63.2001 171.597 63.2001C176.372 63.2001 177.964 62.8801 179.329 61.6801C181.072 60.1601 181.072 60.0801 179.632 59.6001C178.798 59.2801 177.509 58.7201 176.827 58.3201C176.069 57.9201 175.387 57.6001 175.311 57.6801C175.159 57.6801 173.719 58.1601 172.051 58.7201Z" fill="#260228"/>
<path d="M159.392 59.3601C159.164 60.0001 157.573 60.4001 154.919 60.4801C145.52 60.6401 138.924 61.1201 138.621 61.7601C138.394 62.0801 136.954 62.4001 135.437 62.4001C133.921 62.4001 131.117 62.8001 129.221 63.2801C127.326 63.7601 125.128 64.2401 124.294 64.4001C123.46 64.5601 121.034 65.0401 118.912 65.5201C116.789 65.9201 114.364 66.1601 113.53 65.9201C112.62 65.6801 111.18 65.9201 110.27 66.4001C109.36 66.9601 105.646 67.8401 102.007 68.4001C98.4444 68.9601 91.5462 70.1601 86.7704 71.0401C81.9947 71.9201 77.3706 72.6401 76.5367 72.6401C75.0206 72.7201 72.9739 73.0401 58.3434 75.5201C50.6113 76.8801 45.9872 77.6801 35.9809 79.6801C32.8728 80.2401 27.9455 81.1201 24.9891 81.6001C22.1085 82.0801 17.4086 83.0401 14.6796 83.6001C11.8748 84.2401 5.0523 85.3601 -0.481491 86.0001C-6.09108 86.6401 -11.3975 87.6001 -12.3071 88.0801C-13.2168 88.6401 -14.8845 88.8001 -16.0216 88.5601C-17.1587 88.4001 -19.9635 88.8801 -22.2376 89.6801C-24.5118 90.4801 -27.2408 91.2001 -28.302 91.2001C-29.3633 91.2001 -31.4859 91.6001 -33.0778 92.1601C-35.8068 92.9601 -36.0342 93.2801 -36.0342 95.8401C-36.0342 98.3201 -35.8826 98.5601 -34.2907 98.0801C-30.8794 97.1201 -21.7828 95.2801 -14.4297 94.0801C-10.2604 93.3601 -0.32988 91.7601 7.55387 90.4001C15.5134 89.1201 23.473 87.6801 25.3681 87.2001C27.2633 86.8001 30.2955 86.2401 32.1906 86.0001C36.3599 85.4401 47.2758 83.5201 54.9322 82.0001C58.0402 81.4401 63.195 80.5601 66.303 80.0801C77.0673 78.4801 92.4558 75.9201 96.6251 75.1201C101.325 74.1601 111.786 72.3201 119.746 71.2001C122.626 70.7201 125.507 70.2401 126.189 70.0001C126.796 69.8401 130.889 69.0401 135.286 68.4001C149.916 66.0001 151.584 65.6801 154.389 64.4001C155.981 63.7601 157.345 63.2001 157.573 63.2001C158.331 63.2001 160.605 67.9201 161.06 70.4001C161.439 72.8801 161.742 73.2801 164.092 73.6001C167.048 74.0801 168.11 76.3201 165.76 77.1201C164.926 77.4401 163.713 78.3201 162.955 79.2001C161.893 80.4801 160.605 80.8001 156.815 80.8001C151.811 80.8001 150.826 81.4401 151.584 84.0001C152.039 85.4401 152.721 85.6001 160.681 85.6001H169.247L170.08 83.2001C171.066 80.1601 172.051 80.1601 173.492 83.0401C175.008 86.0801 176.676 87.5201 177.358 86.4001C178.192 84.9601 176.145 80.7201 174.25 80.0001C172.658 79.3601 170.156 75.2001 170.156 73.1201C170.156 72.6401 168.943 70.6401 167.503 68.8001C164.698 65.2801 164.622 65.0401 164.547 61.2001C164.471 59.1201 164.168 58.8001 162.121 58.5601C160.605 58.4001 159.544 58.7201 159.392 59.3601ZM167.882 81.9201C167.882 83.2001 166.518 84.4001 165.835 83.6801C165.229 83.0401 166.214 80.8001 167.124 80.8001C167.503 80.8001 167.882 81.2801 167.882 81.9201Z" fill="#260228"/>
<path d="M178.874 70C177.661 71.2 177.055 72.56 177.282 73.28C177.509 74 177.737 75.44 177.737 76.48C177.737 77.6 178.267 78.64 179.101 78.96C179.784 79.2 181.451 80.48 182.816 81.84C185.469 84.4 187.212 84.08 186.606 81.12C186.075 78.08 187.895 77.2 189.487 79.68C190.548 81.36 191.154 81.68 192.746 81.2C193.883 80.88 195.93 80.72 197.295 80.72C199.114 80.8 199.72 80.48 199.72 79.36C199.72 76.24 198.583 75.76 192.746 76.16C186.454 76.64 183.498 76.08 183.195 74.24C182.967 72.88 185.09 72 188.956 72C190.245 72 191.382 71.68 191.382 71.2C191.382 70 189.032 69.04 184.787 68.4C181.148 67.92 180.693 68 178.874 70Z" fill="#260228"/>
<path d="M176.979 91.1999C176.979 91.6799 177.509 92.2399 178.116 92.4799C179.556 93.1199 179.556 95.9199 178.116 96.4799C177.509 96.7999 176.145 96.3999 175.159 95.6799C173.795 94.7999 172.506 94.6399 170.004 95.0399C165.835 95.8399 165.38 97.5999 168.64 100.8C170.535 102.72 171.369 103.04 172.43 102.4C173.188 101.92 174.553 101.6 175.462 101.6C176.296 101.6 177.964 100.64 179.101 99.3599C180.92 97.4399 181.603 97.1999 185.545 97.3599C188.274 97.5199 189.79 97.2799 189.486 96.7999C189.259 96.3199 188.501 95.9999 187.819 95.9999C187.136 95.9999 185.166 94.7199 183.346 93.1999C180.238 90.4799 176.979 89.5199 176.979 91.1999Z" fill="#260228"/>
<path d="M227.768 93.6C226.934 94.08 226.859 94.56 227.465 95.2C228.45 96.24 230.8 95.36 230.8 93.92C230.8 92.64 229.436 92.48 227.768 93.6Z" fill="#260228"/>
<path d="M201.312 97.12C200.023 99.04 198.583 100.8 198.053 100.96C197.598 101.12 197.446 101.76 197.749 102.32C198.204 103.04 198.659 102.88 199.417 101.68C200.023 100.8 201.009 100.24 201.54 100.48C202.146 100.72 203.131 99.68 204.193 97.6C206.088 93.76 206.088 93.6 204.648 93.6C204.041 93.6 202.525 95.2 201.312 97.12Z" fill="#260228"/>
<path d="M226.479 96.64C225.267 97.44 224.888 104.16 226.1 104.56C226.555 104.8 227.01 104.4 227.01 103.68C227.01 102.96 227.389 102.4 227.768 102.4C228.754 102.4 229.966 99.12 229.512 97.84C229.057 96.64 227.465 96 226.479 96.64Z" fill="#260228"/>
<path d="M225.722 114.88C225.115 116.64 226.252 117.6 229.739 118.16C233.53 118.8 236.865 121.36 236.865 123.68C236.865 126.4 238.229 126.8 239.291 124.4C240.049 122.72 239.897 122.08 238.608 120.56C237.775 119.6 236.713 118 236.258 117.12C235.728 116.08 234.136 115.04 232.013 114.48C227.465 113.28 226.328 113.36 225.722 114.88Z" fill="#260228"/>
<path d="M156.056 123.28C152.645 124.48 151.205 125.44 150.523 126.88C149.613 129.04 149.386 132 150.144 132C150.977 132 155.374 128.56 157.497 126.16C159.543 123.92 159.771 123.84 162.5 124.72C164.092 125.2 166.214 125.6 167.2 125.6C168.64 125.6 168.261 125.12 165.38 123.6C161.135 121.28 161.893 121.28 156.056 123.28Z" fill="#260228"/>
<path d="M221.552 126.72C219.733 129.44 218.975 132.8 220.264 132.8C221.401 132.8 223.826 130.8 225.418 128.56C226.252 127.44 226.252 126.96 225.494 126C224.205 124.32 223.068 124.56 221.552 126.72Z" fill="#260228"/>
<path d="M227.313 133.2C225.267 135.2 223.22 136.8 222.689 136.8C222.159 136.8 220.643 137.44 219.202 138.32C215.564 140.48 205.633 143.92 201.464 144.56C199.493 144.8 197.219 145.52 196.461 146.08C195.096 147.04 195.096 147.12 196.536 147.92C199.796 149.76 209.954 148.56 214.351 145.84C217.61 143.84 224.13 141.2 225.267 141.44C225.797 141.6 227.617 140.96 229.36 140C231.179 139.12 232.62 138.48 232.696 138.64C232.771 138.72 234.06 140.48 235.652 142.56C238.836 146.72 238.987 149.84 236.107 150.8C235.273 151.04 234.591 151.84 234.591 152.48C234.591 154.08 235.652 153.92 237.244 152C239.063 149.92 240.428 150 241.11 152.16C241.337 153.2 242.247 154.96 243.005 156.08C243.763 157.2 244.597 160.08 244.9 162.48C245.128 164.88 245.886 168 246.416 169.52C247.023 170.96 247.478 173.2 247.478 174.4C247.478 175.6 248.008 177.12 248.69 177.68C249.676 178.48 249.828 179.6 249.449 182.8C249.221 184.96 248.69 191.84 248.311 198C247.857 205.04 247.174 210.32 246.416 212.16C245.734 213.84 245.203 216.08 245.203 217.12C245.203 218.24 244.749 220.32 244.142 221.76C242.778 225.2 241.641 229.28 241.034 232.96C240.655 235.36 240.807 236 241.792 236C242.474 236 242.929 235.28 242.929 234.08C242.929 233.04 243.46 232 244.066 231.68C244.673 231.44 245.203 230.72 245.203 230C245.203 229.36 245.582 228.8 245.961 228.8C246.416 228.8 246.72 228.32 246.72 227.68C246.72 227.04 247.25 226.32 247.932 226.08C248.918 225.68 249.069 224.88 248.69 222.08C248.311 219.36 248.539 217.84 249.752 215.28C251.268 212.32 251.344 211.28 250.889 202.4C250.51 196.56 250.586 192.8 251.04 192.8C252.557 192.8 254.3 194.96 255.665 198.64C256.877 202 257.181 202.32 258.015 201.28C258.621 200.56 259.834 200 260.819 200C263.018 200 263.245 198.72 261.123 198C259.303 197.36 257.029 193.12 257.635 191.52C257.863 190.88 257.56 190.16 256.953 189.92C255.21 189.2 252.784 183.36 252.784 179.92C252.784 178.16 252.481 176.08 252.102 175.36C251.798 174.64 251.268 170.88 250.965 167.12C250.586 161.68 250.737 160 251.647 158.72C252.784 157.2 252.784 157.2 253.921 158.8C256.119 162 256.65 162.4 258.545 162.4C259.91 162.4 261.502 163.52 263.776 166.08C266.429 169.2 267.035 169.6 267.49 168.4C268.097 166.64 266.126 163.2 264.458 163.2C263.852 163.2 263.169 162.64 262.942 162C262.639 161.36 260.971 160.08 259.227 159.28C257.408 158.4 255.286 156.72 254.527 155.44C253.769 154.24 252.405 152.32 251.495 151.2C250.51 150.08 249.752 148.88 249.752 148.48C249.752 148.16 248.236 145.52 246.341 142.64C244.445 139.84 242.929 137.2 242.929 136.8C242.929 135.28 245.658 136.08 248.236 138.4C249.676 139.76 251.419 140.8 252.178 140.8C252.936 140.8 254.982 142.16 256.802 143.84C260.061 146.96 261.729 148.08 268.097 151.28C270.068 152.24 272.721 154.08 274.009 155.28C275.298 156.56 276.738 157.6 277.117 157.6C278.406 157.6 282.272 161.04 281.893 161.76C281.59 162.16 280.68 162.8 279.771 163.2C278.558 163.76 279.24 163.92 282.424 163.92C284.85 164 287.2 164.48 288.109 165.2C288.867 165.84 290.232 166.4 290.99 166.4C291.824 166.4 293.037 166.96 293.719 167.6C294.401 168.24 295.993 169.04 297.282 169.28C299.328 169.68 299.859 169.44 300.996 167.52C301.754 166.24 302.436 165.04 302.512 164.88C302.664 164.8 303.119 164.88 303.649 165.28C304.332 165.68 304.18 166.08 303.194 166.88C302.361 167.52 301.982 168.56 302.285 169.52C302.74 171.52 301.678 172.56 298.646 173.04C296.524 173.36 296.448 173.44 298.116 174C300.92 174.96 299.783 176.96 295.69 178.08C294.477 178.4 293.34 179.28 293.188 180.08C292.885 181.2 292.051 181.6 290.232 181.6C288.412 181.6 287.654 182 287.654 182.8C287.654 184.48 291.899 184.4 292.809 182.72C293.264 181.84 294.856 181.28 297.206 181.04C300.238 180.72 301.148 180.96 302.285 182.24C303.649 183.84 303.649 184.32 302.588 189.36C302.512 189.68 303.422 190.16 304.635 190.4C306.454 190.72 306.985 191.36 307.819 194.4C309.865 202.08 311.002 209.76 310.396 212.08C309.638 214.8 310.699 219.44 312.746 222.32C313.58 223.52 314.565 226.72 315.02 229.52C315.702 234.24 315.627 234.72 314.186 235.76C312.064 237.36 312.822 241.12 315.778 244.08C317.067 245.36 317.977 247.04 317.977 248.24C317.977 249.28 318.507 250.72 319.189 251.28C320.175 252.16 320.326 253.36 320.023 257.04C319.796 259.6 319.947 262.8 320.326 264.16C320.857 266.16 320.706 266.88 319.644 267.68C318.431 268.56 318.431 268.72 319.72 270.16C321.539 272.4 321.312 273.28 318.962 273.2C314.868 273.04 311.078 271.76 310.32 270.32C309.714 269.04 308.728 268.8 304.862 268.8C301.754 268.8 299.556 268.32 298.419 267.52C297.509 266.88 295.841 266.4 294.704 266.56C292.809 266.8 293.037 267.04 297.282 269.36C299.783 270.8 302.436 272 303.043 272C303.649 272 304.332 272.4 304.483 272.88C304.862 274 310.244 276 311.609 275.44C313.201 274.8 314.414 275.92 313.428 277.2C312.746 278.08 313.049 278.56 314.717 279.44C317.522 281.04 319.265 283.68 323.51 292.8C326.77 299.84 326.997 300.72 326.543 304.64L326.088 308.96L324.193 306.8C323.131 305.6 322.07 303.52 321.843 302.24C321.312 299.52 319.947 298.88 319.72 301.2C319.644 302.08 319.341 305.6 319.114 309.04C318.583 315.52 317.37 317.52 315.475 314.96C314.944 314.32 313.656 313.6 312.519 313.44C310.548 313.04 310.548 313.12 311.685 314.96C312.519 316.32 312.746 317.76 312.291 320.24C312.064 322.08 311.533 325.2 311.306 327.2C310.851 330.16 310.472 330.88 309.031 331.04C306.606 331.44 299.783 338.72 299.783 340.96C299.783 343.68 298.949 344.64 296.372 344.96C294.704 345.12 294.022 345.68 293.87 346.96C293.567 349.28 296.145 350.8 298.191 349.44C299.404 348.64 299.935 348.72 301.148 349.84C301.906 350.56 302.74 351.2 302.967 351.2C303.27 351.2 303.649 348.88 303.953 346.08C304.407 341.76 304.786 340.72 306.606 339.36C307.743 338.4 309.714 337.44 310.851 337.12C312.064 336.8 313.959 335.92 315.02 335.12C317.143 333.6 320.251 328.08 320.251 326C320.251 325.36 321.767 322.64 323.662 319.92C325.557 317.2 327.073 314.48 327.073 313.84C327.073 313.2 328.134 311.04 329.347 309.04C331.394 305.84 331.621 304.88 331.621 299.12C331.621 295.52 331.167 291.6 330.56 290.08C329.044 286.24 328.286 281.28 328.134 274.4C327.831 264.08 326.467 248.48 325.633 246.16C325.178 244.88 324.799 242.72 324.799 241.28C324.799 239.84 324.268 238 323.662 237.12C323.055 236.32 322.601 234.48 322.525 233.2C322.525 231.04 321.691 227.6 319.341 220.4C318.507 217.76 316.915 209.68 315.702 201.6C314.793 195.6 313.656 191.92 311.381 188.08C310.472 186.56 309.486 183.28 309.259 180.88C308.501 173.36 308.273 172.8 306.227 172.8C305.014 172.8 304.332 172.32 304.332 171.6C304.332 170.96 304.862 170.4 305.469 170.4C306.682 170.4 306.909 169.68 306.606 166.4C306.378 163.44 304.559 160.64 301.299 158.16C297.433 155.28 284.167 148 282.727 148C282.121 148 281.59 147.68 281.59 147.28C281.59 146.88 280.832 146.24 279.922 146C277.193 145.12 271.811 142.32 271.28 141.52C271.053 141.12 270.295 140.8 269.537 140.8C268.779 140.8 267.718 140.24 267.187 139.6C266.656 138.96 265.292 138.4 264.231 138.4C263.093 138.4 261.502 137.84 260.668 137.2C259.91 136.56 258.394 136 257.332 136C256.271 136 254.603 135.44 253.542 134.8C251.192 133.44 244.976 133.28 243.005 134.56C241.716 135.36 241.034 135.04 237.926 132.56C235.955 130.96 233.605 129.6 232.696 129.6C231.71 129.6 229.36 131.2 227.313 133.2ZM247.099 153.68C247.402 154.56 247.402 155.52 247.099 155.84C246.568 156.4 245.203 154.48 245.203 152.96C245.203 151.36 246.568 151.84 247.099 153.68Z" fill="#260228"/>
<path d="M143.776 134.56C143.245 135.12 142.866 136 142.866 136.56C142.866 137.44 143.321 137.28 144.761 136.24C145.747 135.44 146.656 134.56 146.656 134.16C146.656 133.28 144.761 133.52 143.776 134.56Z" fill="#260228"/>
<path d="M400.983 134.16C394.54 134.64 393.63 134.96 394.691 136.8C395.222 137.68 396.056 138.4 396.587 138.4C397.041 138.4 397.648 138.88 397.875 139.36C398.103 140.16 398.482 140.08 399.24 139.2C400.604 137.52 404.546 135.84 406.744 136.08C410.004 136.4 411.217 136 411.217 134.8C411.217 133.6 410.231 133.52 400.983 134.16Z" fill="#260228"/>
<path d="M55.6902 136.96C50.687 138.8 46.7452 142.56 46.1387 146C45.6839 148.72 47.1242 151.52 51.6725 156.72C53.8709 159.2 54.5531 159.44 58.6466 159.68C61.8304 159.76 63.4981 159.52 64.1046 158.72C64.5594 158.08 65.3175 157.6 65.6965 157.6C66.1513 157.6 67.819 156.16 69.4109 154.4C73.1254 150.4 73.3528 146.8 70.3964 142.24C69.2593 140.56 68.2739 139.2 68.1981 139.2C68.1223 139.2 66.1513 138.32 63.953 137.36L59.8595 135.44L55.6902 136.96ZM64.1046 142C65.9239 142.72 67.6674 143.68 67.9706 144.24C69.1835 146.32 68.5771 149.52 66.5303 151.6C64.0288 154 58.9498 154.32 54.1741 152.32C51.2935 151.12 51.1419 150.88 51.1419 147.52C51.1419 144.4 51.4451 143.76 53.6434 142.4C56.5999 140.48 59.7079 140.4 64.1046 142Z" fill="#260228"/>
<path d="M383.169 136.96C380.061 137.36 375.816 137.84 373.693 138C371.647 138.16 367.326 138.64 364.218 139.2C358.608 140.08 356.713 140.32 347.919 141.44C344.432 141.84 343.295 142.32 343.144 143.44C342.916 144.8 343.447 144.88 351.482 144.32C357.623 144 360.276 143.52 360.958 142.64C361.564 141.84 362.398 141.68 363.611 142.08C365.81 142.8 371.116 142.48 372.253 141.52C372.708 141.12 374.376 140.88 376.043 140.88C377.635 140.96 381.046 140.48 383.548 139.76C386.05 139.04 389.233 138.48 390.598 138.4C392.266 138.4 393.024 138 393.024 137.2C393.024 135.84 391.962 135.84 383.169 136.96Z" fill="#260228"/>
<path d="M164.092 145.84C164.092 146 164.622 147.28 165.305 148.64C166.518 151.36 167.73 151.76 170.308 150.32C171.824 149.44 171.824 149.36 169.701 147.52C167.882 146 164.092 144.88 164.092 145.84Z" fill="#260228"/>
<path d="M139.379 152.48C139.607 153.2 139.834 153.92 139.834 154.08C139.834 154.24 140.365 154.4 140.971 154.4C141.578 154.4 142.108 153.68 142.108 152.8C142.108 151.68 141.578 151.2 140.516 151.2C139.379 151.2 139.076 151.52 139.379 152.48Z" fill="#260228"/>
<path d="M228.526 154C227.996 154.64 226.783 155.2 225.797 155.2C223.068 155.2 222.992 156.56 225.721 157.52C227.617 158.24 227.92 158.64 227.01 159.2C226.404 159.6 224.888 160 223.751 160C222.613 160 221.476 160.56 221.249 161.2C220.946 161.92 219.809 162.4 218.368 162.4C215.109 162.4 212.531 163.2 213.062 164.08C213.593 165.04 221.704 164.96 221.704 164C221.704 163.52 223.22 163.2 225.115 163.2C228.526 163.2 228.526 163.2 228.526 160.48C228.526 156.96 229.208 155.2 230.497 155.2C231.104 155.2 231.558 154.64 231.558 154C231.558 153.36 231.104 152.8 230.497 152.8C229.967 152.8 229.057 153.36 228.526 154Z" fill="#260228"/>
<path d="M110.649 157.12C108.905 157.6 106.404 158.88 105.039 159.92C103.22 161.28 102.31 161.52 101.704 160.88C101.097 160.24 100.567 160.32 99.733 161.12C98.3685 162.32 92.3799 164 89.4235 164C87.7558 164 82.1462 167.68 83.1316 168.08C84.7236 168.72 91.3186 168.4 92.4557 167.68C93.2895 167.04 97.6105 166.48 102.31 166.24C111.104 165.76 112.392 165.36 117.85 161.68C119.746 160.4 121.868 159.28 122.626 159.28C124.142 159.2 124.294 158.16 123.005 157.04C121.641 155.92 114.363 156 110.649 157.12Z" fill="#260228"/>
<path d="M309.183 157.92C308.349 160.24 309.259 162 311.381 162.24C313.125 162.48 313.428 162.24 313.428 160.48C313.428 157.68 310.017 155.6 309.183 157.92Z" fill="#260228"/>
<path d="M411.975 164.08C409.701 164.4 401.666 165.28 394.161 166C386.656 166.72 375.589 167.84 369.524 168.56C363.46 169.2 355.728 169.92 352.241 170.08C345.039 170.4 344.205 170.72 344.963 173.12C345.191 174 345.721 190.24 346.025 209.2C346.404 228.08 347.01 248.24 347.465 254C348.299 264.4 348.678 282.32 349.512 357.76L350.042 398.32L347.768 401.04C346.555 402.48 345.115 404.96 344.584 406.48C342.31 412.8 342.31 412.8 340.036 412.8C337.155 412.8 334.73 411.76 332.683 409.76C331.243 408.32 331.167 407.52 331.394 391.52C331.622 374.24 331.546 373.2 327.907 362C327.528 360.64 326.694 358 326.164 356C324.647 350.4 322.222 348.16 315.778 346.4C310.017 344.8 308.88 344.88 308.88 346.88C308.88 347.52 308.349 349.12 307.743 350.48C305.999 353.92 306.909 354.56 310.775 352.8C312.67 351.92 314.641 351.44 315.248 351.68C317.219 352.48 317.219 354.32 315.323 355.68C313.807 356.72 313.58 357.36 313.959 359.84C314.186 361.44 314.793 363.36 315.323 364C315.854 364.64 316.46 365.92 316.536 366.72C316.764 367.68 317.749 368.56 319.265 368.96C322.449 369.84 323.586 372.08 322.904 376.4C322.449 379.68 323.359 381.84 324.42 380C325.33 378.4 326.315 379.2 326.315 381.6C326.315 384.16 324.041 387.2 322.146 387.2C321.539 387.2 321.009 387.52 321.009 388C321.009 388.4 320.327 389.52 319.493 390.4C318.052 391.92 318.052 392 320.327 396.8C321.615 399.52 322.601 402.72 322.525 403.84C322.298 407.44 322.449 407.92 324.42 409.76C327.604 412.64 326.164 418.4 322.298 418.4C320.554 418.4 320.706 419.36 323.056 423.76C324.193 425.84 326.543 430.48 328.286 434L331.394 440.4L334.73 440.16C336.549 440 340.188 439.12 342.765 438.24C347.01 436.88 347.389 436.56 346.404 435.44C344.887 433.92 344.963 432.24 346.555 431.36C347.692 430.64 347.616 430.32 345.721 428C344.66 426.56 343.826 424.8 344.054 424.08C344.205 423.36 344.736 421.12 345.267 418.96C346.328 414.88 347.692 414.16 349.133 416.88C350.194 419.04 351.028 417.92 351.786 413.28C352.013 411.52 352.62 409.44 353.15 408.64C353.757 407.52 353.757 406.8 352.999 405.6C352.316 404.32 352.241 403.12 352.923 400.16C353.605 397.2 354.666 395.44 358.229 391.92C360.731 389.36 362.702 386.96 362.702 386.56C362.702 386.08 361.716 385.52 360.428 385.2C358.608 384.8 358.153 384.24 358.002 382.56C358.002 381.36 357.85 379.28 357.774 378C357.774 376.64 357.395 374.08 357.092 372.24C356.713 370.08 356.865 368.32 357.395 367.2C358.078 365.76 358.002 365.2 357.016 364C356.107 362.96 355.955 362.08 356.486 361.04C357.244 359.36 357.244 349.12 356.41 348.32C355.424 347.28 355.879 344.88 357.168 344.08C358.229 343.52 358.305 343.12 357.547 342.16C356.486 340.88 356.107 332.48 356.713 324.16C356.941 321.36 356.789 318.88 356.486 318.72C356.107 318.48 355.879 317.36 355.879 316.16C355.955 314.96 355.728 312.96 355.424 311.76C355.121 310.4 355.349 308.72 355.879 307.6C356.486 306.48 356.637 304.8 356.258 303.44C355.576 300.48 355.576 299.44 356.182 290C356.562 285.52 356.41 279.04 356.031 275.2C355.576 271.44 355.5 268.08 355.803 267.76C356.182 267.36 356.258 265.52 356.031 263.52C355.728 260.64 355.879 260 356.865 260C357.547 260 358.836 258.96 359.745 257.68L361.337 255.36L369.903 255.44C375.74 255.44 378.924 255.12 379.682 254.48C380.289 253.92 381.122 253.68 381.577 253.92C381.956 254.24 383.776 253.92 385.595 253.28C387.414 252.64 391.28 251.92 394.161 251.68C397.117 251.44 402.651 250.88 406.517 250.48C411.066 249.92 414.174 249.92 415.462 250.4C418.494 251.68 418.798 251.44 418.798 247.76C418.798 244.72 418.57 244.24 416.599 243.44C414.174 242.48 403.864 243.36 394.919 245.28C392.038 245.92 384.534 246.8 378.242 247.28C372.026 247.76 365.052 248.32 362.929 248.56C359.745 248.88 358.381 248.64 356.258 247.2C354.818 246.24 353.605 244.88 353.529 244.16C353.529 243.44 353.529 230.72 353.529 216C353.605 201.28 353.302 187.92 352.999 186.4C351.331 178.96 353.984 176.96 367.326 175.6C383.245 173.84 405.911 172 410.156 172C412.278 172 415.159 171.76 416.448 171.52C418.722 171.04 418.798 170.8 418.798 167.12C418.798 162.72 419.177 162.96 411.975 164.08ZM342.613 415.2C343.144 416.08 340.946 423.68 339.43 426C338.899 426.88 338.444 429.2 338.444 431.12C338.444 433.68 337.989 435.2 336.852 436.48C335.26 438.24 335.109 438.24 332.91 437.12C330.788 435.92 330.712 435.68 331.167 432.32C331.546 429.44 331.243 428.32 329.726 425.84C328.665 424.24 327.907 422.56 328.059 422.08C328.21 421.6 329.954 420.64 331.849 420C333.82 419.36 336.549 417.84 337.913 416.64C340.491 414.32 341.855 413.92 342.613 415.2Z" fill="#260228"/>
<path d="M184.559 166.08C184.559 166.56 185.317 167.2 186.303 167.52C188.653 168.16 209.575 167.12 210.03 166.24C210.484 165.44 209.954 165.44 195.778 165.2C187.364 165.12 184.559 165.28 184.559 166.08Z" fill="#260228"/>
<path d="M225.494 167.76C225.494 169.52 225.646 169.76 226.252 168.8C227.238 167.2 227.238 165.6 226.252 165.6C225.873 165.6 225.494 166.56 225.494 167.76Z" fill="#260228"/>
<path d="M276.056 169.28C273.175 170.96 274.54 172.96 278.027 172.24C280.756 171.68 284.622 169.6 284.622 168.64C284.622 167.52 278.254 168 276.056 169.28Z" fill="#260228"/>
<path d="M267.945 170.8C267.945 171.44 268.324 172 268.703 172C269.158 172 269.461 171.44 269.461 170.8C269.461 170.16 269.158 169.6 268.703 169.6C268.324 169.6 267.945 170.16 267.945 170.8Z" fill="#260228"/>
<path d="M234.591 174.64C234.591 176.8 234.136 178.56 233.529 179.2C231.862 180.64 232.923 182.56 235.273 182.24C236.789 182.08 237.168 181.6 236.941 180.4C236.789 179.52 236.637 177.2 236.562 175.28C236.41 170.4 234.591 169.84 234.591 174.64Z" fill="#260228"/>
<path d="M225.342 173.28C224.433 174.96 224.054 178.08 224.66 179.12C225.418 180.32 225.797 179.76 226.479 176.8C226.934 174.8 226.025 172 225.342 173.28Z" fill="#260228"/>
<path d="M280.377 176.32C279.846 177.76 282.272 180.8 284.016 180.8C284.774 180.8 286.366 180.16 287.654 179.28C289.853 177.92 289.929 177.68 288.791 176.48C287.2 174.8 280.983 174.72 280.377 176.32Z" fill="#260228"/>
<path d="M220.946 178.88C220.946 180 221.249 180.72 221.704 180.4C222.159 180.16 222.462 179.2 222.462 178.32C222.462 177.52 222.159 176.8 221.704 176.8C221.325 176.8 220.946 177.76 220.946 178.88Z" fill="#260228"/>
<path d="M33.934 178.96C33.4033 179.2 32.9485 180 32.9485 180.8C32.9485 182.8 34.313 183.68 38.3307 184.32C41.5903 184.8 41.9693 184.72 43.1822 182.72C44.4709 180.64 44.4709 180.48 43.1822 179.52C41.9693 178.56 36.0565 178.24 33.934 178.96Z" fill="#260228"/>
<path d="M103.144 182.24C100.339 183.52 74.4899 184.24 71.6851 183.04C70.4722 182.56 69.1077 182.64 67.8948 183.12C66.8335 183.6 62.7401 184.08 58.7982 184.32C53.9466 184.56 51.5209 184.96 51.066 185.68C50.1564 187.2 50.2322 187.44 51.4451 189.2C52.3547 190.56 52.9612 190.64 61.1481 189.76C73.3528 188.4 79.114 188.48 79.6446 190C79.9479 190.64 80.5543 191.2 81.0849 191.2C83.1317 191.2 83.9655 193.44 82.9801 196C81.843 198.88 82.9043 200.8 85.6333 200.8C87.1494 200.8 87.3768 200.24 87.9074 196.16C88.4381 191.36 90.8638 186.08 92.3799 186.64C92.8348 186.8 93.5928 188.32 93.9718 190C94.8057 193.04 97.0799 195.52 98.2169 194.72C98.596 194.48 98.8992 193.2 98.8992 191.92C98.8992 188.64 100.188 186.4 102.007 186.4C103.751 186.4 106.176 191.2 106.935 196.16C107.693 200.8 108.754 198.88 108.754 192.96C108.83 186.56 110.194 183.84 112.544 185.44C114.742 186.88 116.638 186.64 117.699 184.72C118.457 183.44 118.533 182.8 117.851 182.08C116.713 180.88 106.025 180.96 103.144 182.24Z" fill="#260228"/>
<path d="M278.937 184C278.634 184.48 277.042 185.76 275.298 186.88C271.432 189.44 267.035 194.24 268.021 194.8C268.4 195.12 268.931 194.72 269.158 194.08C269.385 193.36 270.068 192.8 270.598 192.8C271.129 192.8 271.735 192.24 272.039 191.6C272.266 190.96 272.948 190.4 273.63 190.4C274.237 190.4 276.208 189.28 277.951 188C279.619 186.64 281.514 185.6 282.121 185.6C283.485 185.6 283.409 184.24 281.893 183.68C280.226 182.96 279.467 183.04 278.937 184Z" fill="#260228"/>
<path d="M195.323 188.16C194.793 188.72 194.414 189.6 194.414 190.16C194.414 192 196.991 200 197.598 200C197.901 200 198.204 200.88 198.204 201.92C198.204 202.96 198.735 204.88 199.341 206.08C199.948 207.36 200.478 209.2 200.478 210.24C200.478 211.28 201.009 212.64 201.615 213.28C202.222 214 202.752 215.44 202.752 216.64C202.752 217.84 203.283 219.52 203.889 220.32C204.496 221.2 205.027 222.72 205.027 223.68C205.027 224.72 205.557 226 206.164 226.72C206.77 227.36 207.301 228.56 207.301 229.36C207.301 231.44 210.257 239.12 210.333 237.12C210.333 236.24 210.864 234.8 211.47 233.92C212.076 233.12 212.607 231.04 212.607 229.36C212.607 227.68 213.138 225.04 213.744 223.44C214.351 221.92 214.881 219.6 214.881 218.32C214.881 217.12 215.336 215.76 215.943 215.44C216.473 215.12 217.155 212.88 217.383 210.4C217.61 208 217.989 205.12 218.217 204C218.52 202.88 218.444 202.56 218.217 203.2C217.913 203.84 217.231 204.72 216.701 205.04C216.17 205.36 215.488 207.44 215.184 209.6C214.73 213.12 214.502 213.6 212.91 213.6C211.925 213.6 211.091 213.92 211.091 214.4C211.091 214.8 211.622 215.2 212.228 215.2C212.835 215.2 213.365 215.52 213.365 216C213.365 216.4 212.683 216.8 211.849 216.8C211.015 216.8 210.333 216.32 210.333 215.76C210.333 214.24 207.831 212 206.315 212C205.33 212 205.027 211.2 205.027 208.56C204.951 206.72 204.344 203.36 203.662 201.2C202.525 197.6 202.146 197.2 200.327 197.36C198.811 197.44 198.204 197.12 198.128 196.16C198.052 195.44 197.977 194.24 197.901 193.6C197.749 192.96 197.673 191.2 197.598 189.76C197.446 187.04 196.84 186.56 195.323 188.16Z" fill="#260228"/>
<path d="M-1.16374 190.08C-8.74427 191.36 -12.6861 192.32 -15.9458 193.6C-18.0683 194.4 -22.9199 195.44 -26.7101 195.92C-30.5762 196.4 -34.2149 197.04 -34.8971 197.28C-35.8068 197.68 -36.0342 199.2 -36.0342 204.48C-36.0342 208.48 -35.6552 211.84 -35.1245 212.8C-34.3665 214.08 -34.3665 214.72 -35.1245 216C-35.5793 216.88 -36.0342 219.28 -36.0342 221.36V225.12L-34.4423 223.44C-32.9262 221.84 -32.4713 218.72 -33.1536 214.4C-33.4568 212.16 -31.1826 203.2 -30.273 203.2C-29.7423 203.2 -28.7569 202.96 -27.9988 202.64C-26.8617 202.24 -26.7859 202.48 -27.165 204.64C-27.4682 206.08 -27.165 208.64 -26.4827 210.8C-25.8005 212.8 -25.4972 215.28 -25.7247 216.24C-29.4391 229.6 -32.0923 244.8 -31.031 246.48C-30.8036 246.88 -30.1972 247.2 -29.6665 247.2C-29.1359 247.2 -28.302 248.16 -27.7714 249.36C-26.8617 251.44 -26.7101 251.52 -25.8005 250.16C-24.5876 248.4 -24.1327 244.64 -23.4505 231.68C-23.1473 226.4 -22.465 220.88 -21.9344 219.44C-21.0247 217.12 -20.4183 216.8 -17.0829 216.32C-14.1264 215.92 -13.2926 215.44 -13.2926 214.32C-13.2926 213.28 -13.9748 212.8 -15.7184 212.64C-17.4619 212.48 -18.5232 211.76 -19.2812 210.32C-20.4183 208.16 -20.1151 207.04 -16.0974 198.4C-14.8087 195.68 -11.3975 195.28 -9.04749 197.68C-8.13783 198.64 -6.84914 199.2 -6.3185 198.88C-5.78786 198.56 -4.49918 197.84 -3.4379 197.2C-2.37663 196.56 -0.178272 196 1.48944 196C5.50713 196 6.5684 195.12 6.26518 192.32C6.03776 190.24 5.73454 190 3.38457 189.92C1.94427 189.84 -0.102467 189.92 -1.16374 190.08Z" fill="#260228"/>
<path d="M226.934 190.88C226.328 191.68 225.494 195.52 224.963 199.52C223.447 211.68 220.643 226 218.975 230.16C218.368 231.52 217.914 233.6 217.914 234.72C217.914 236.24 217.383 237.04 216.018 237.6C214.502 238.24 214.123 238.88 214.123 241.12C214.123 242.64 214.502 244.16 214.881 244.4C215.336 244.64 215.639 245.76 215.639 246.88C215.639 250.24 217.686 249.04 218.672 244.96C219.202 242.88 220.036 240.08 220.567 238.8C221.097 237.44 221.931 234.88 222.386 233.04C222.917 231.2 223.599 229.44 223.978 229.2C224.433 228.96 224.736 226.96 224.736 224.88C224.736 222.8 225.721 217.92 227.01 213.92C228.905 208.08 229.36 205.44 229.36 199.2C229.436 195.04 229.436 191.12 229.36 190.56C229.284 189.2 228.147 189.36 226.934 190.88Z" fill="#260228"/>
<path d="M282.348 190.4C282.348 190.88 281.514 191.6 280.453 192C278.33 192.88 277.876 194.4 279.695 194.4C281.666 194.4 285.38 192 285.38 190.8C285.38 190.16 284.698 189.6 283.864 189.6C283.03 189.6 282.348 190 282.348 190.4Z" fill="#260228"/>
<path d="M218.823 193.84C218.975 195.04 219.354 196.08 219.809 196.08C221.022 196.16 221.022 194.8 219.809 193.2C218.672 191.68 218.672 191.68 218.823 193.84Z" fill="#260228"/>
<path d="M274.767 195.6C274.237 196.24 273.327 196.8 272.796 196.8C271.659 196.8 266.277 202.32 264.382 205.36C263.7 206.4 263.397 207.76 263.7 208.4C264.23 210.08 266.353 209.92 266.959 208.16C267.414 206.8 271.129 202.88 275.45 199.2C277.875 197.2 278.633 194.4 276.738 194.4C276.208 194.4 275.298 194.96 274.767 195.6Z" fill="#260228"/>
<path d="M88.2864 204.8C88.2864 206.32 88.5138 206.48 89.196 205.76C89.8783 205.04 89.8783 204.56 89.196 203.84C88.5138 203.12 88.2864 203.28 88.2864 204.8Z" fill="#260228"/>
<path d="M88.2864 207.92C88.2864 208.48 87.3768 210.16 86.2397 211.68C84.4962 214.16 83.9655 214.48 81.7672 214C79.4172 213.6 79.2656 213.68 78.8866 216.16C77.9011 223.68 76.9156 236.4 76.9156 242.8C76.9156 246.72 76.5366 251.52 76.1576 253.44C75.7028 255.36 75.0205 261.84 74.6415 267.84C74.2625 273.84 73.5802 282.08 73.1254 286.08C72.7463 290.08 72.3673 302 72.2915 312.48C72.2157 325.76 71.9125 332.48 71.2302 334.4C69.4867 339.44 67.1368 348.4 67.2126 349.76C67.3642 352.08 64.6352 357.52 63.1191 358C61.6788 358.56 59.4804 362.32 59.4804 364.4C59.4804 365.04 60.2385 365.92 61.2239 366.32C62.2094 366.72 64.1045 367.76 65.469 368.64L67.8948 370.24L64.4836 372C60.8449 373.84 60.2385 375.12 62.1336 377.12C63.9529 379.04 63.4223 381.12 60.2385 384.4C57.8885 386.8 57.2063 388.16 57.2063 390.16C57.2063 394.8 53.5676 394.24 51.5967 389.36C51.3693 388.72 50.687 389.2 49.6257 390.56C48.7161 391.84 47.5032 392.8 46.8967 392.8C45.5322 392.8 45.5322 394.72 46.9725 396C47.579 396.56 48.1096 397.6 48.1096 398.32C48.1096 399.04 48.4887 400.08 48.9435 400.56C50.0806 401.76 47.4274 409.44 45.6081 410.08C43.3339 410.88 42.5758 409.52 40.7565 400.8C39.9985 397.28 36.8904 393.68 33.8582 392.8C32.2663 392.4 30.1438 391.12 29.1583 390C28.1728 388.88 26.96 388 26.4293 388C24.989 388 24.3826 389.52 25.2922 390.72C26.6567 392.48 26.2019 410.64 24.7616 412.08C24.4584 412.4 21.3504 413.04 17.7875 413.52C11.8747 414.32 9.29732 415.36 10.3586 416.4C10.586 416.72 13.9214 417.04 17.6359 417.2C23.3971 417.44 24.7616 417.28 26.2777 416.08C27.2632 415.28 29.5373 413.92 31.4325 412.96C34.5405 411.36 35.2227 411.28 39.392 412.24C44.3952 413.28 44.1678 412.96 43.1065 419.76C42.8033 422.08 43.0307 424.24 43.9403 427.04C45.1532 430.64 45.229 431.52 44.3194 435.68C42.9549 441.68 43.1065 446.96 44.6226 450C45.3048 451.28 45.8355 453.04 45.8355 453.76C45.8355 454.48 46.2145 455.36 46.5935 455.6C47.6548 456.32 47.5032 459.76 46.4419 460.24C45.6839 460.48 45.8355 460.96 46.7451 462.16C47.5032 463.04 48.1096 464.32 48.1096 465.04C48.1096 465.76 48.4128 466.48 48.7919 466.72C49.1709 467.04 50.0806 469.28 50.7628 471.84C52.2789 477.44 53.795 480.56 56.2966 483.36C57.2821 484.56 58.5708 486.32 59.0256 487.36C59.4804 488.32 60.6933 489.6 61.7546 490.16C63.3465 490.96 64.0287 490.88 66.3029 489.44C67.7432 488.56 71.5335 486.4 74.6415 484.64C80.0237 481.6 83.8897 479.12 88.2864 476C89.3477 475.28 91.5461 474.4 93.138 474.08C94.8057 473.76 97.7621 472.64 99.6572 471.6C102.083 470.32 103.523 470 104.357 470.48C105.191 470.96 105.797 470.96 106.101 470.4C106.328 470 107.086 469.6 107.768 469.6C108.602 469.6 108.83 470.08 108.451 471.6C107.996 473.36 108.602 474 114.439 478.08C118.002 480.56 121.034 482.88 121.338 483.28C121.565 483.68 122.778 484.56 123.991 485.2C126.492 486.56 128.312 486.08 126.947 484.48C125.431 482.48 122.399 475.92 122.399 474.48C122.399 473.76 122.02 472.72 121.565 472.24C120.504 471.12 117.926 463.36 117.851 461.12C117.851 460.24 117.32 458.8 116.713 457.92C116.107 457.12 115.576 455.68 115.576 454.72C115.576 453.84 115.046 452.4 114.439 451.52C113.833 450.72 113.302 449.28 113.302 448.32C113.302 447.44 112.847 446.24 112.393 445.76C111.71 445.04 111.634 444.4 112.317 443.36C112.999 442.16 112.847 441.68 111.71 440.96C110.043 439.84 109.815 438.4 111.331 438.4C112.696 438.4 113.53 437.04 112.923 435.92C112.241 434.88 109.739 437.2 108.375 440C107.162 442.64 108.072 451.12 110.194 456.24C111.862 460.4 112.317 466 110.952 466.8C110.573 467.12 109.588 466.8 108.905 466.16C106.859 464.24 100.719 462.96 98.7476 464.08C97.8379 464.56 95.1089 464.96 92.6073 464.88C87.2252 464.8 84.4962 466.24 84.4962 469.2C84.4962 470.64 84.8752 471.2 85.9365 471.2C87.5284 471.2 89.3477 473.04 88.5138 473.84C87.6042 474.88 83.9655 474.4 82.9801 473.2C81.5398 471.36 79.7204 471.76 77.2189 474.48C74.7173 477.36 67.44 481.04 65.5448 480.4C63.4223 479.68 57.7369 472 55.9176 467.28C54.3257 463.28 54.2499 462.48 55.0837 459.68C55.8418 456.96 55.8418 456.48 54.7047 455.6C54.0224 455.04 53.416 454 53.416 453.2C53.416 452.4 52.2031 450.4 50.687 448.64C48.5645 446.16 48.0338 444.96 48.4128 443.28C48.5645 442.16 49.3225 438.56 50.0048 435.28C50.687 431.52 50.9144 429.04 50.4596 428.56C50.0048 428.08 50.0806 427.28 50.6112 426.32C51.2934 425.2 51.2934 424.64 50.5354 423.84C48.5645 421.76 49.5499 418.8 53.8708 413.76C56.2208 411.04 58.4191 408.8 58.874 408.8C60.6933 408.8 61.6788 406 61.2239 402C60.8449 398.4 61.0723 397.68 62.8917 395.36C64.0287 393.92 65.3932 392.8 65.9239 392.8C67.0609 392.8 71.6093 387.36 71.6093 386C71.6093 385.6 70.548 384.56 69.3351 383.84C67.3642 382.64 67.1368 382.24 67.7432 380.64C68.1222 379.6 68.8045 376.72 69.3351 374.24C69.7899 371.76 70.6996 369.28 71.306 368.8C72.5189 367.68 72.7463 363.52 71.6093 362.8C71.2302 362.56 70.6996 363.36 70.3964 364.56C69.6383 367.92 69.4109 368.08 67.44 366.72C65.3174 365.28 64.7868 363.92 65.3174 361.6C65.6965 360.24 66.1513 360 67.8948 360.4C69.7899 360.88 70.0932 360.72 70.0932 359.2C70.0932 358.32 70.8512 356 71.7609 354.16C74.8689 347.68 74.8689 347.92 73.2012 347.44C71.2302 346.88 71.0786 345.6 72.9738 345.6C74.7931 345.6 77.3705 342.64 77.9769 339.76C78.2801 338.56 79.6446 336.16 81.0849 334.48C82.6768 332.64 83.5865 330.88 83.2833 330.16C82.8284 328.8 85.6332 322.4 86.6945 322.4C87.0735 322.4 87.6042 321.52 87.8316 320.4C88.1348 319.28 88.8171 318.4 89.4235 318.4C90.03 318.4 91.6977 317.28 93.138 316C95.5637 313.76 95.7154 313.28 95.7912 308.4C95.867 301.6 96.4734 299.36 98.2169 298.8C98.975 298.48 99.6572 298 99.6572 297.6C99.6572 297.28 100.415 296.72 101.401 296.4C102.993 295.84 102.993 295.84 101.552 295.44C100.794 295.2 99.9604 295.44 99.8088 295.92C99.6572 296.4 98.8992 296.8 98.1411 296.8C94.2751 296.8 85.2542 309.36 85.2542 314.8C85.2542 317.28 83.2075 320.8 81.7672 320.8C80.5543 320.8 79.1898 323.28 79.1898 325.52C79.1898 327.36 78.2801 327.6 76.006 326.32C74.6415 325.52 74.4899 324.96 75.0205 320.16C75.2479 317.2 75.8544 313.36 76.3092 311.6C76.764 309.84 77.2947 302.64 77.4463 295.6C77.9769 271.36 78.4317 264.88 79.6446 260.8C80.4027 258.4 81.464 261.92 81.464 266.96C81.464 272.96 82.6768 274.32 83.3591 269.04C83.5865 266.88 83.9655 264.32 84.1929 263.2C84.6478 260.48 84.7994 244.8 84.3446 244.4C84.1171 244.16 83.3591 244.72 82.601 245.6C80.6301 247.92 79.9478 247.6 79.9478 244.32C79.9478 241.6 80.0237 241.44 82.222 241.76C85.4058 242.24 86.6187 239.12 85.4058 233.44C84.1929 227.92 84.2688 225.6 85.6332 225.6C89.4235 225.6 92.3041 217.28 90.4848 211.36C89.5751 208.16 88.2864 206.16 88.2864 207.92ZM81.3123 253.28C81.1607 259.6 79.9478 259.52 79.9478 253.2C79.9478 250 80.2511 248.08 80.7059 248.4C81.0849 248.64 81.3881 250.88 81.3123 253.28Z" fill="#260228"/>
<path d="M295.993 210.08C295.993 211.2 296.22 211.2 297.13 210.4C297.736 209.84 298.267 209.28 298.267 209.12C298.267 208.96 297.736 208.8 297.13 208.8C296.524 208.8 295.993 209.36 295.993 210.08Z" fill="#260228"/>
<path d="M261.881 212C261.881 212.88 262.26 213.6 262.639 213.6C263.094 213.6 263.397 212.88 263.397 212C263.397 211.12 263.094 210.4 262.639 210.4C262.26 210.4 261.881 211.12 261.881 212Z" fill="#260228"/>
<path d="M96.9283 212.96C96.5493 213.52 96.3977 216.8 96.5493 220.16C96.7009 225.36 96.4735 226.72 95.1848 228.72C92.9106 232.08 93.0622 236.4 95.5638 238.08C96.9283 239.04 97.6864 239.2 98.2928 238.56C99.2783 237.52 100.415 218.8 99.7331 215.12C99.2025 212.32 97.9138 211.28 96.9283 212.96Z" fill="#260228"/>
<path d="M254.3 214.8C254.3 215.44 254.679 216 255.058 216C255.513 216 255.816 215.44 255.816 214.8C255.816 214.16 255.513 213.6 255.058 213.6C254.679 213.6 254.3 214.16 254.3 214.8Z" fill="#260228"/>
<path d="M269.234 221.2L267.111 224H269.461C271.735 224 272.493 222.96 270.901 221.92C270.295 221.52 270.295 221.2 270.977 220.8C271.508 220.48 271.811 219.76 271.659 219.28C271.508 218.8 270.371 219.68 269.234 221.2Z" fill="#260228"/>
<path d="M261.122 229.52C259.227 231.76 249.069 244.24 247.326 246.4C246.416 247.52 244.066 250.72 241.944 253.6C237.774 259.36 237.092 259.92 236.41 258.08C235.728 256.16 234.515 256.56 234.666 258.56C234.97 262.32 234.515 264 232.923 265.6C231.483 267.04 231.407 267.36 232.316 268C232.923 268.4 233.984 268.8 234.666 268.8C235.349 268.8 236.789 269.84 237.85 271.2C239.973 273.68 241.034 274.16 241.792 272.8C242.02 272.32 242.929 272 243.763 272C244.597 272 245.203 271.44 245.203 270.72C245.203 269.76 244.749 269.52 243.536 269.84C242.323 270.16 241.11 269.68 239.594 268.24C237.32 266.24 237.32 266.16 238.608 263.84C239.291 262.56 239.897 260.96 239.897 260.4C239.897 259.76 240.352 258.96 240.882 258.64C241.413 258.32 243.46 255.6 245.431 252.56C247.478 249.6 249.827 246.32 250.737 245.28C251.647 244.16 253.087 242.4 253.845 241.28C254.831 239.84 255.74 239.28 256.726 239.6C257.484 239.92 258.09 239.68 258.09 239.2C258.09 238.64 259.303 236.48 260.743 234.4C264.079 229.6 264.382 225.6 261.122 229.52Z" fill="#260228"/>
<path d="M308.88 236C308.88 236.4 309.411 236.8 310.017 236.8C310.623 236.8 311.154 236.4 311.154 236C311.154 235.52 310.623 235.2 310.017 235.2C309.411 235.2 308.88 235.52 308.88 236Z" fill="#260228"/>
<path d="M243.687 238C243.687 238.64 243.308 239.2 242.853 239.2C242.474 239.2 241.716 240.24 241.337 241.6C240.882 242.88 240.2 244 239.821 244C239.442 244 239.139 244.72 239.139 245.6C239.139 248.56 240.731 247.2 242.778 242.56C243.839 240.08 244.9 237.76 245.052 237.36C245.203 237.04 244.976 236.8 244.521 236.8C244.066 236.8 243.687 237.36 243.687 238Z" fill="#260228"/>
<path d="M302.057 237.6C302.057 238 302.588 238.4 303.194 238.4C303.801 238.4 304.332 238 304.332 237.6C304.332 237.12 303.801 236.8 303.194 236.8C302.588 236.8 302.057 237.12 302.057 237.6Z" fill="#260228"/>
<path d="M96.0942 246.8C96.0942 249.44 96.2458 250.4 96.3975 248.96C96.5491 247.52 96.5491 245.36 96.3975 244.16C96.2458 242.96 96.0942 244.16 96.0942 246.8Z" fill="#260228"/>
<path d="M236.107 249.76C236.107 250.32 236.41 251.28 236.789 251.92C237.623 253.28 238.684 251.68 238.078 250C237.547 248.56 236.107 248.4 236.107 249.76Z" fill="#260228"/>
<path d="M95.4879 254.56C95.1847 255.36 95.1847 256.64 95.4879 257.36C96.0944 258.72 96.0944 258.72 96.3976 257.36C96.625 256.64 96.625 255.36 96.3976 254.56C96.0944 253.28 96.0944 253.28 95.4879 254.56Z" fill="#260228"/>
<path d="M290.687 259.68C290.687 259.92 291.899 260.64 293.416 261.28C296.675 262.72 302.815 262.08 302.815 260.32C302.815 259.44 301.451 259.2 296.751 259.2C293.416 259.2 290.687 259.36 290.687 259.68Z" fill="#260228"/>
<path d="M212.986 266.48C212.607 267.52 212.91 268.64 213.593 269.36C214.578 270.4 214.73 270.32 215.185 268.4C216.018 264.96 213.972 263.2 212.986 266.48Z" fill="#260228"/>
<path d="M284.243 272C284.016 272.4 283.182 272.8 282.5 272.8C281.059 272.8 278.937 275.84 279.695 276.64C279.998 276.96 280.529 276.56 280.908 275.76C281.363 275.04 282.348 274.4 283.106 274.4C283.94 274.4 284.622 274 284.622 273.6C284.622 273.12 285.38 272.4 286.366 272L288.033 271.28H286.366C285.456 271.2 284.471 271.52 284.243 272Z" fill="#260228"/>
<path d="M243.233 279.68C243.46 280.4 243.687 281.28 243.687 281.68C243.687 282.08 244.218 282.4 244.824 282.4C246.189 282.4 246.341 280.72 245.052 279.36C243.763 278 242.702 278.16 243.233 279.68Z" fill="#260228"/>
<path d="M95.1089 283.92C95.1089 286.16 95.4879 288 95.8669 288C96.3218 288 96.625 286.4 96.625 284.48C96.625 282.48 96.3218 280.64 95.8669 280.4C95.4121 280.08 95.1089 281.44 95.1089 283.92Z" fill="#260228"/>
<path d="M285.759 280.8C285.456 281.28 285.38 281.76 285.456 281.92C288.337 284 292.961 288.08 294.325 289.76C296.145 292 298.267 292.72 298.267 291.2C298.267 290.72 297.661 290.08 296.978 289.84C296.296 289.52 294.325 287.84 292.658 286.08C287.654 280.8 286.366 279.76 285.759 280.8Z" fill="#260228"/>
<path d="M295.993 280.64C295.993 281.04 296.751 282.24 297.736 283.36C298.646 284.4 300.39 286.8 301.678 288.72C304.18 292.64 305.317 291.84 302.891 287.84C301.148 284.88 295.993 279.44 295.993 280.64Z" fill="#260228"/>
<path d="M182.057 282.08C181.754 282.4 181.527 284.56 181.527 286.88C181.527 290.32 181.83 291.28 183.043 292C184.407 292.8 184.559 292.64 184.559 290.56C184.559 289.28 185.09 287.76 185.696 287.2C187.212 285.92 187.136 284.88 185.545 284.24C184.786 283.92 183.801 283.2 183.422 282.64C182.967 282 182.361 281.76 182.057 282.08Z" fill="#260228"/>
<path d="M307.894 285.2C308.652 286.24 309.865 287.36 310.623 287.6C311.306 287.92 311.912 288.4 311.912 288.8C311.912 289.68 318.659 292.4 319.265 291.68C319.872 291.12 320.023 291.28 315.399 288.32C313.352 287.04 310.851 285.36 309.714 284.64C306.909 282.72 306.302 282.88 307.894 285.2Z" fill="#260228"/>
<path d="M305.165 294.4C305.09 296.64 307.667 300.64 308.349 299.44C308.577 299.04 307.97 297.28 306.985 295.52C305.317 292.72 305.165 292.56 305.165 294.4Z" fill="#260228"/>
<path d="M184.786 298.88L183.043 300.88L184.938 303.92C186.909 307.28 191.003 309.52 192.443 308C192.973 307.44 192.973 306.72 192.291 305.76C191.761 305.04 191.003 303.44 190.548 302.24C190.093 301.12 189.259 299.92 188.653 299.68C188.046 299.44 187.591 298.72 187.591 298C187.591 296.24 186.682 296.56 184.786 298.88Z" fill="#260228"/>
<path d="M101.022 301.44C100.34 302.16 99.6573 303.52 99.5057 304.32C99.0509 307.04 100.946 306.56 103.448 303.2C105.798 300.08 105.798 300 104.054 300.08C103.144 300.08 101.78 300.72 101.022 301.44Z" fill="#260228"/>
<path d="M132.86 304.08C130.207 305.52 128.463 306.88 128.463 307.68C128.463 309.12 118.608 320 117.32 320C116.865 320 115.576 321.44 114.363 323.28C113.226 325.04 111.104 327.84 109.663 329.44C105.039 334.72 104.812 335.36 105.873 339.52C106.404 341.76 107.465 343.76 108.602 344.48C110.346 345.68 110.346 345.68 110.194 343.44C109.815 338.48 110.346 336.64 112.696 334.16C115.197 331.52 129.145 315.36 131.95 311.76C133.087 310.32 134.907 309.44 138.242 308.72C140.744 308.16 142.866 307.36 142.866 307.04C142.866 306.72 143.548 306.4 144.306 306.4C148.627 306.4 149.461 304 145.671 302.56C141.805 301.12 137.636 301.6 132.86 304.08Z" fill="#260228"/>
<path d="M148.021 309.44C147.566 310.64 147.187 314.48 147.339 318C147.49 324 147.339 324.56 145.519 326.24C143.397 328.24 143.169 330.08 144.761 332.32C145.823 333.84 145.595 337.04 144.307 338.8C144.003 339.28 143.624 340.88 143.473 342.4C143.321 344.56 142.866 345.2 141.35 345.6C140.061 345.92 139.758 346.24 140.44 346.72C141.805 347.6 141.502 351.52 139.834 353.76C138.394 355.68 138.394 355.84 139.758 357.12C141.35 358.72 142.866 358.8 142.866 357.28C142.866 356.72 144.231 353.36 145.898 349.92C147.566 346.48 149.158 341.92 149.385 339.84C149.84 336.48 150.144 336 152.039 335.6C155.223 334.88 154.919 332.8 151.584 332.8C149.916 332.8 148.931 332.4 148.931 331.76C148.931 330.56 152.569 324.8 153.327 324.8C154.843 324.8 155.981 320.72 156.132 315.04C156.284 309.04 155.602 307.04 154.616 310.4C153.934 312.56 152.873 312.4 152.039 310.08C150.977 307.2 149.006 306.88 148.021 309.44Z" fill="#260228"/>
<path d="M197.067 310.4C196.84 310.8 197.143 311.2 197.749 311.2C198.356 311.2 199.114 310.8 199.341 310.4C199.569 309.92 199.265 309.6 198.659 309.6C198.052 309.6 197.294 309.92 197.067 310.4Z" fill="#260228"/>
<path d="M214.351 314.96C211.773 315.44 212.228 316.4 215.943 318.72C220.036 321.2 219.733 321.2 221.628 319.12C222.462 318.16 223.599 317.6 224.205 317.84C225.342 318.32 225.57 319.36 226.934 329.12C227.389 332.16 228.071 335.76 228.45 337.12C228.905 338.48 229.284 341.36 229.436 343.6L229.663 347.6L223.22 348.08C219.657 348.32 216.549 348.4 216.246 348.24C215.867 348.08 215.639 346.24 215.639 344.16C215.639 342.08 215.109 339.36 214.502 338.08C213.896 336.88 213.365 335.44 213.365 335.04C213.365 334.56 212.076 330.8 210.56 326.72C206.922 316.8 206.012 318.16 207.604 331.2C208.362 337.76 208.514 341.44 208.059 343.36C207.073 346.72 207.073 362.16 207.983 362.8C209.12 363.52 209.726 361.76 209.878 357.36C209.954 355.04 210.257 352.72 210.56 352.16C211.243 351.04 214.578 350.88 215.184 351.92C216.018 353.28 221.628 353.76 225.797 352.72C229.36 351.92 230.194 351.36 231.937 348.56C233.757 345.52 233.908 344.88 233.454 338.64C233.226 334.96 232.695 330.32 232.316 328.4C231.331 323.92 228.071 318.08 225.57 316.56C223.523 315.36 217.231 314.48 214.351 314.96Z" fill="#260228"/>
<path d="M201.691 324.8C201.085 329.12 200.251 339.44 200.402 341.2C200.478 342.08 200.706 345.12 200.933 347.92C201.236 351.28 201.085 353.68 200.478 354.88C199.872 355.92 199.72 357.6 200.023 358.96C200.554 361.12 200.781 362.8 201.691 370.24C202.298 375.2 203.51 373.52 203.51 367.68C203.51 364.16 203.131 362.32 202.373 361.6C201.009 360.4 200.857 355.12 202.222 353.76C203.359 352.48 204.041 325.6 202.904 323.44C202.222 322.24 202.07 322.48 201.691 324.8Z" fill="#260228"/>
<path d="M131.344 326.16C129.752 326.56 129.524 328.8 131.041 328.8C131.647 328.8 132.86 329.52 133.845 330.32L135.665 331.84L133.542 332.4C132.405 332.72 130.51 332.8 129.373 332.56C128.236 332.32 126.416 332.32 125.279 332.56C122.55 333.12 122.475 335.2 125.204 335.2C126.341 335.2 127.933 335.92 128.842 336.8C129.676 337.68 131.495 338.64 132.86 338.88C134.907 339.36 135.361 339.12 135.968 337.44C136.347 336.4 137.181 335.04 137.863 334.48C138.47 333.92 139.228 332.16 139.531 330.64C139.91 328.48 139.682 327.68 138.621 326.8C137.257 325.68 133.997 325.44 131.344 326.16Z" fill="#260228"/>
<path d="M14.3763 336.88C10.8135 338 9.75222 339.28 6.79581 345.6C4.29423 350.72 4.06682 351.92 4.44585 355.2C4.82487 358.24 4.67326 359.36 3.38457 361.04C0.731386 364.56 1.64105 368.16 5.73454 370.4C6.56839 370.88 7.17484 372.08 7.17484 373.2C7.17484 377.2 16.5747 383.2 22.8665 383.2C26.581 383.2 26.8842 383.04 27.339 380.96C27.9455 378.4 30.9019 373.36 33.9341 369.84C35.8292 367.68 36.1325 366.88 35.6776 364.24C35.4502 362.56 34.9196 358.24 34.5406 354.64C33.7067 346.96 31.9632 340.72 30.068 339.04C29.3858 338.4 26.3536 337.44 23.3214 336.88C17.1811 335.92 17.4844 335.92 14.3763 336.88ZM24.231 344.32C27.9455 345.2 28.0213 345.28 28.931 349.12C29.9922 353.44 29.31 355.2 26.8084 355.2C24.5343 355.2 25.1407 356.64 27.6423 357.2C31.5841 358.08 32.418 361.68 29.9164 366.64C27.1874 372 23.9278 375.2 21.1988 375.2C16.9537 375.2 12.0264 372.32 9.5248 368.32C6.6442 363.92 6.56839 361.68 9.06997 359.2C10.207 358.08 10.9651 356.4 10.9651 355.04C10.9651 352.16 12.6328 352.08 15.286 354.88C17.9392 357.68 19.2279 356.32 17.4844 352.56C16.1199 349.36 14.528 348.48 12.4812 349.6C10.3587 350.8 9.449 350.56 9.449 348.96C9.449 346.16 13.9215 343.28 18.1666 343.36C19.4553 343.36 22.1843 343.76 24.231 344.32Z" fill="#260228"/>
<path d="M19.9858 353.28C19.2277 354.32 19.2277 354.64 19.9858 355.2C21.5777 356.16 23.8518 355.2 23.8518 353.52C23.8518 351.68 21.4261 351.52 19.9858 353.28Z" fill="#260228"/>
<path d="M16.6505 362.32C16.4231 362.72 16.5747 363.28 17.0295 363.6C18.015 364.24 18.015 367.2 17.0295 367.2C16.6505 367.2 16.2715 367.44 16.2715 367.76C16.2715 368.16 18.1666 368.4 20.4408 368.48C24.0036 368.48 24.6101 368.32 24.1552 367.28C23.852 366.56 23.473 365.2 23.3214 364.24C22.8665 362 17.7876 360.48 16.6505 362.32Z" fill="#260228"/>
<path d="M398.178 342.48C397.345 342.96 396.814 344.24 396.814 345.6C396.814 347.84 396.966 347.92 398.785 347.2C399.846 346.72 401.665 346.4 402.878 346.4C404.622 346.4 405.001 346 405.304 344C405.607 341.68 405.532 341.6 402.575 341.6C400.832 341.6 398.861 342 398.178 342.48Z" fill="#260228"/>
<path d="M100.415 344.4C100.415 345.04 100.794 345.6 101.173 345.6C101.628 345.6 101.931 345.04 101.931 344.4C101.931 343.76 101.628 343.2 101.173 343.2C100.794 343.2 100.415 343.76 100.415 344.4Z" fill="#260228"/>
<path d="M106.252 350.64C104.054 354.24 107.01 359.2 113.226 362.08C118.002 364.32 124.9 371.36 124.142 373.28C123.536 375.12 126.72 374.64 128.008 372.72C129.676 370.16 133.466 368 136.195 368C141.123 368 137.029 366.32 129.145 365.12C124.825 364.48 120.428 363.52 119.367 362.96C116.41 361.44 109.209 353.68 108.375 351.04L107.541 348.56L106.252 350.64Z" fill="#260228"/>
<path d="M391.659 356.24C390.371 358.16 388.096 362.4 386.58 365.76C384.685 370.08 383.397 372 382.184 372.32C380.137 372.8 376.498 377.6 378.09 377.6C379.379 377.6 383.321 375.76 386.58 373.68C388.4 372.56 389.082 371.28 390.067 367.2C391.356 362.24 392.342 360.8 394.616 360.8C396.662 360.8 398.027 358.48 396.966 356.96C396.435 356.16 395.829 354.96 395.601 354.16C394.919 352.08 394.313 352.48 391.659 356.24Z" fill="#260228"/>
<path d="M81.464 354.8C80.0237 356.56 80.9333 358.08 82.4494 356.48C83.8139 354.96 84.1172 353.6 83.0559 353.6C82.6769 353.6 81.9946 354.16 81.464 354.8Z" fill="#260228"/>
<path d="M297.433 356.16C296.599 356.96 295.083 357.6 294.174 357.68C293.188 357.76 293.567 358 295.311 358.56C297.054 359.04 298.495 360.16 299.328 361.68C300.996 364.64 302.361 363.92 301.678 360.32C301.375 358.24 301.527 357.44 302.436 357.12C303.043 356.88 303.574 356.16 303.574 355.52C303.574 354 299.48 354.48 297.433 356.16Z" fill="#260228"/>
<path d="M307.288 363.2C306.757 368.88 307.06 374.48 307.894 376.64C309.41 380.48 313.428 387.2 314.262 387.2C315.323 387.2 315.02 382.16 313.807 380.48C313.201 379.6 312.67 378.24 312.67 377.52C312.67 376.72 312.291 376 311.912 375.84C311.457 375.68 310.927 374.16 310.623 372.4C310.396 370.64 309.714 368.88 309.107 368.56C308.425 368.08 308.349 367.52 308.88 366.48C309.335 365.44 309.259 364.56 308.501 363.52C307.667 362.32 307.364 362.24 307.288 363.2Z" fill="#260228"/>
<path d="M207.528 366.88C207.225 367.68 207.528 368.48 208.286 368.96C209.348 369.6 209.575 371.2 209.575 379.04C209.575 384.16 209.802 390.88 210.106 394L210.636 399.6L211.167 396C211.47 394 211.773 390.56 211.773 388.24C211.849 385.92 212.228 383.12 212.759 382C213.441 380.4 213.441 379.52 212.835 378.48C211.773 376.72 211.319 370.72 212.077 369.84C212.456 369.52 213.744 369.28 215.109 369.2C216.777 369.2 217.535 368.8 217.535 368C217.535 367.12 216.549 366.8 213.669 366.72C211.546 366.64 209.423 366.4 208.893 366.08C208.438 365.76 207.832 366.08 207.528 366.88Z" fill="#260228"/>
<path d="M104.357 367.84C101.78 368.64 101.931 370 104.585 370.24C106.176 370.4 107.238 371.2 108.223 372.88C108.905 374.24 109.36 375.68 109.057 376.08C108.83 376.48 108.905 377.6 109.133 378.48C109.588 380 109.815 380 110.725 379.04C111.71 378.08 111.71 377.28 110.876 373.92C109.436 367.84 108.223 366.72 104.357 367.84Z" fill="#260228"/>
<path d="M225.494 369.84C225.494 371.6 225.949 372.8 226.707 373.12C227.465 373.44 227.768 374.4 227.617 376.16C227.389 378.48 227.086 378.8 224.963 379.04C223.144 379.2 222.462 378.96 222.083 377.68C221.855 376.88 221.173 375.92 220.567 375.68C219.96 375.44 219.43 374.32 219.43 373.2C219.43 371.92 218.975 371.2 218.293 371.2C217.61 371.2 217.156 371.92 217.156 373.2C217.156 374.32 217.686 375.44 218.293 375.68C218.899 376 219.43 376.64 219.43 377.12C219.43 378.8 222.841 381.6 224.888 381.6C228.526 381.6 231.634 376 229.057 374C228.375 373.44 227.92 372.08 227.996 370.4C228.147 368.4 227.768 367.6 226.859 367.36C225.797 367.12 225.494 367.6 225.494 369.84Z" fill="#260228"/>
<path d="M394.995 371.12C393.554 372.8 393.933 374.4 395.677 374.4C396.207 374.4 397.42 373.28 398.33 372L399.922 369.6H398.103C397.117 369.6 395.677 370.32 394.995 371.12Z" fill="#260228"/>
<path d="M93.5928 375.04C93.5928 375.36 94.275 376.24 95.1089 377.04C96.4734 378.24 96.625 378.24 97.3072 376.88C97.7621 376.08 97.8379 375.2 97.6105 374.88C96.9282 374.16 93.5928 374.24 93.5928 375.04Z" fill="#260228"/>
<path d="M203.207 375.84C202.601 376.88 202.449 383.92 202.98 384.48C203.283 384.8 203.511 387.68 203.511 390.88C203.511 396 204.344 398.64 205.482 397.36C205.709 397.12 205.633 392.08 205.33 386.08C204.875 376.32 204.344 373.92 203.207 375.84Z" fill="#260228"/>
<path d="M129.07 381.28C126.795 386.16 126.72 386.64 127.933 387.6C129.221 388.56 129.752 391.2 128.691 391.2C127.629 391.12 124.976 388.48 124.445 386.88C124.142 386.08 123.687 385.6 123.384 385.92C122.929 386.4 123.915 389.12 125.507 392C125.886 392.64 126.568 394.08 127.023 395.2C127.781 397.12 128.994 398.4 130.207 398.4C130.51 398.4 130.737 397.2 130.737 395.68C130.737 393.44 131.041 392.88 132.481 392.64C133.997 392.4 134.149 392 134.149 387.52C134.149 384.72 134.603 382.08 135.134 381.36C135.968 380.32 135.816 379.84 134.3 378.08C133.315 376.96 132.253 376 131.95 376C131.723 376 130.434 378.4 129.07 381.28Z" fill="#260228"/>
<path d="M1.48942 382.32C-2.22504 385.28 -7.07658 387.36 -12.6862 388.4C-14.8845 388.88 -15.6426 389.44 -16.249 391.28C-16.628 392.56 -17.5377 393.6 -18.1442 393.6C-18.8264 393.6 -19.357 394 -19.357 394.4C-19.357 395.6 -11.1701 395.12 -8.59268 393.84C-5.63628 392.24 1.262 391.6 3.23294 392.72C4.29422 393.28 4.90066 394.48 4.97647 395.84C4.97647 397.04 5.27969 398.72 5.58291 399.6C5.96194 400.48 5.96194 401.84 5.58291 402.56C4.97647 403.68 3.38455 403.92 -5.48467 403.92C-21.5554 404 -20.7973 403.84 -20.2667 408.32C-19.9635 411.04 -19.8119 411.12 -16.0216 411.52C-13.8991 411.76 -6.69755 411.92 -0.0266857 411.92C6.64418 411.92 12.936 412 13.9215 412.16C15.5134 412.4 15.8924 412 16.4231 409.6C17.2569 405.52 16.4231 402.64 13.4667 399.12C11.0409 396.32 10.8135 395.76 11.6473 393.92C12.936 390.96 12.7086 389.44 10.5861 387.04C9.52478 385.84 8.69093 384.56 8.69093 384.24C8.69093 383.92 7.93287 382.64 6.9474 381.44L5.27969 379.28L1.48942 382.32Z" fill="#260228"/>
<path d="M96.625 381.12C96.625 381.68 97.1556 382.64 97.7621 383.2C98.7475 384.08 98.8992 383.84 98.8992 382.08C98.8992 380.8 98.5201 380 97.7621 380C97.1556 380 96.625 380.48 96.625 381.12Z" fill="#260228"/>
<path d="M393.327 381.68C392.493 383.2 394.312 384.4 395.677 383.2C396.662 382.32 396.662 382 395.904 381.52C394.54 380.56 393.933 380.64 393.327 381.68Z" fill="#260228"/>
<path d="M88.817 382.16C87.8316 383.12 88.2864 385.44 89.4993 385.92C91.2428 386.64 91.3186 386.56 91.3186 384.88C91.3186 383.2 89.5751 381.28 88.817 382.16Z" fill="#260228"/>
<path d="M104.812 383.68C105.039 385.12 104.812 386.08 103.902 386.56C102.993 387.12 102.841 387.68 103.447 388.8C104.433 390.8 104.433 395.76 103.372 396.48C102.917 396.72 102.159 396.56 101.704 396.08C99.354 393.6 95.8669 397.92 95.8669 403.44C95.9427 406.88 97.8379 415.2 98.8233 416.24C99.2782 416.72 99.6572 417.68 99.6572 418.32C99.6572 419.04 100.188 420.64 100.794 421.92C101.401 423.12 101.931 424.8 101.931 425.52C101.931 426.24 102.614 428.24 103.523 429.92C104.357 431.6 105.039 433.92 104.964 435.12C104.66 439.84 105.039 443.2 105.797 443.2C106.328 443.2 106.48 442.4 106.328 441.2C106.101 440.08 106.404 438.8 106.935 438.32C108.375 437.04 108.299 430.8 106.783 428.32C105.722 426.72 105.646 425.92 106.404 424.32C107.541 421.68 107.465 421.6 105.797 421.6C104.585 421.6 104.357 420.96 104.357 417.6C104.357 414.4 104.054 413.28 102.689 412.16C101.325 411.04 101.022 410.16 101.477 408.56C101.704 407.36 102.462 406.4 103.068 406.4C103.902 406.4 104.054 405.76 103.675 403.92C102.993 400.32 106.783 392.8 109.209 392.8C110.194 392.8 111.634 393.52 112.317 394.4C113.075 395.28 114.212 396 114.97 396C117.092 396 117.396 394.24 115.501 392.72L113.757 391.36L116.713 388.48C118.305 386.88 120.276 385.44 121.034 385.12C122.778 384.56 122.778 383.28 121.11 382.64C120.428 382.32 118.23 383.04 116.031 384.24C110.876 387.12 109.133 387.04 108.072 384C107.086 380.8 104.206 380.56 104.812 383.68Z" fill="#260228"/>
<path d="M376.347 384C374.451 386 374.451 388.08 376.422 396.56C378.393 404.8 381.122 409.6 383.927 409.36C385.595 409.2 385.898 409.6 386.201 412.4C386.58 415.44 386.732 415.6 389.537 415.84C391.659 416 392.569 416.56 392.796 417.68C393.024 418.48 393.479 419.2 393.858 419.2C394.767 419.2 394.691 415.44 393.782 414.8C393.403 414.56 393.024 413.2 393.024 411.84C393.024 410.48 391.356 406.16 389.082 401.68C384.534 392.72 382.184 387.68 380.971 384.56C379.985 382 378.469 381.76 376.347 384ZM380.895 390C380.895 391.36 380.743 391.44 379.076 390.72C377.332 390 377.559 388.8 379.379 388.8C380.213 388.8 380.895 389.36 380.895 390ZM381.274 393.6C381.501 394.48 382.108 395.2 382.487 395.2C383.7 395.2 383.169 397.52 381.729 398.32C379.834 399.44 379.379 398.72 379.379 395.04C379.379 391.76 380.44 390.96 381.274 393.6Z" fill="#260228"/>
<path d="M52.658 386.88C52.658 387.76 53.037 388 53.8708 387.68C54.5531 387.44 55.4628 387.2 55.9176 387.2C57.1305 387.2 54.8563 385.6 53.6434 385.6C53.1128 385.6 52.658 386.16 52.658 386.88Z" fill="#260228"/>
<path d="M81.6157 387.28C82.7527 387.76 83.7382 388.8 83.8898 389.68C84.193 391.92 85.5575 391.68 85.8607 389.36C86.0882 387.36 84.4204 386.32 81.085 386.48C79.8721 386.48 80.0237 386.72 81.6157 387.28Z" fill="#260228"/>
<path d="M390.75 390.56C390.75 393.04 398.254 404.8 399.846 404.8C400.604 404.8 401.59 404.24 402.12 403.6C403.636 401.68 404.243 402.16 404.774 405.6C405.153 407.76 405.001 409.28 404.319 410.08C403.561 411.04 403.636 411.36 404.925 411.68C406.593 412.16 408.336 417.2 407.73 419.84C407.199 422.16 408.488 423.2 412.581 423.76C416.448 424.24 416.523 424.24 416.523 426.88C416.523 428.4 416.22 429.6 415.765 429.6C415.386 429.6 415.007 430.08 415.007 430.72C415.007 431.36 414.401 432.56 413.719 433.52L412.354 435.2L409.701 433.52C407.123 431.84 407.123 431.76 408.791 431.12C409.701 430.72 410.459 429.92 410.459 429.28C410.459 427.04 408.791 427.04 406.669 429.2C404.774 431.12 404.167 431.28 401.438 430.8C399.695 430.48 397.799 429.68 397.117 429.04C396.359 428.24 395.222 428 393.782 428.32C391.583 428.72 390.067 427.76 391.508 426.8C392.872 425.92 392.341 424.8 390.446 424.8C388.021 424.8 387.49 426.64 389.309 429.04C391.053 431.44 391.129 433.04 389.688 434.32C388.854 435.12 388.324 434.96 387.111 433.6C385.822 432.16 385.367 432 384.154 432.88C382.184 434.16 377.408 433.2 375.74 431.12C374.83 430 373.542 429.6 370.661 429.6C366.947 429.6 366.795 429.68 366.113 432.16C365.203 435.28 363.384 435.6 362.626 432.8C362.247 431.12 362.095 431.04 361.564 432.16C361.261 432.96 360.427 433.6 359.669 433.6C357.698 433.6 354.515 430.64 354.211 428.56C353.984 426.64 351.634 425.76 350.345 427.12C349.663 427.84 349.739 428.24 350.497 428.72C351.331 429.28 351.331 429.68 350.421 431.12C349.587 432.56 349.587 432.96 350.573 433.6C351.786 434.4 351.71 434.56 349.436 435.84C347.161 437.12 348.299 437.28 364.976 438.48C381.274 439.6 381.425 439.6 403.485 439.2L418.797 438.88V430.72C418.797 423.36 418.646 422.56 417.357 422.16C416.523 422 415.765 420.96 415.614 419.92C415.462 418.48 414.856 417.92 413.188 417.76C411.975 417.6 410.762 417.92 410.383 418.48C409.473 420.16 409.17 419.12 409.549 415.36C409.852 412 409.852 412 412.43 412.48C415.614 413.12 415.917 411.6 413.112 408.8C412.051 407.76 411.217 406.08 411.217 405.04C411.217 402.88 414.401 399.36 417.054 398.72C418.267 398.4 418.797 397.68 418.797 396.4C418.797 394.96 418.267 394.48 416.523 394.24C415.007 394 414.325 394.16 414.477 394.8C414.704 395.36 413.946 395.52 412.127 395.36L409.473 394.96L409.928 398.24C410.611 402.48 408.64 403.52 406.138 400.4C403.333 397.04 403.864 395.68 408.564 394C410.838 393.12 412.733 392.16 412.733 391.84C412.733 390.64 405.153 391.2 403.257 392.48C401.135 393.92 399.391 393.52 395.525 390.72C392.19 388.32 390.75 388.32 390.75 390.56Z" fill="#260228"/>
<path d="M135.058 393.36C134.755 393.6 134.528 394.96 134.528 396.24C134.528 397.52 133.921 399.6 133.239 400.88C132.102 402.96 132.026 403.44 133.011 405.04C133.694 406.16 134.073 409.04 134.149 412.72C134.149 417.68 133.921 418.72 132.708 419.68C131.268 420.72 131.344 420.8 133.618 421.68C135.589 422.4 136.044 422.96 136.044 424.88C136.044 426.96 135.892 427.12 133.769 426.64C131.268 426.16 130.51 427.68 132.86 428.56C134.982 429.44 135.968 431.36 136.423 436C136.726 438.4 137.257 441.44 137.711 442.64C138.394 444.48 138.318 445.44 137.257 447.2C136.044 449.44 136.195 452.88 137.56 454.8C138.621 456.24 138.773 479.68 137.711 480.96C137.257 481.6 136.574 483.84 136.347 485.92C136.044 487.92 135.665 489.6 135.513 489.6C135.286 489.6 134.073 488.8 132.86 487.84C130.282 485.92 128.236 486.56 127.857 489.36C127.705 490.64 128.084 490.88 130.51 490.96C132.102 491.04 134.831 491.36 136.65 491.6C139.227 492.08 139.834 491.92 139.834 490.88C139.834 490.16 140.668 489.44 141.956 489.2C143.094 488.96 145.064 488.4 146.277 488.08L148.552 487.44L145.292 486.4C143.018 485.68 141.729 484.72 141.274 483.36C140.213 480.4 140.44 479.44 142.715 477.2C144.685 475.2 144.685 475.04 143.321 474C141.805 472.8 141.881 471.12 143.624 464.08C144.231 461.36 144.231 459.6 143.473 456.64C142.79 453.6 142.79 452 143.473 449.12C144.306 445.84 144.231 444.96 141.729 437.12C140.289 432.56 139.076 427.92 139.076 426.88C139.076 425.76 138.697 423.92 138.318 422.8C137.787 421.2 137.863 419.52 138.773 416.24C139.455 413.84 139.758 411.12 139.455 410.16C139.227 409.2 138.848 406.4 138.621 404C138.469 401.6 138.09 398.48 137.863 397.12C137.484 394.48 135.892 392.4 135.058 393.36Z" fill="#260228"/>
<path d="M361.564 395.2C360.579 396.8 362.019 399.04 364.218 399.36C367.781 399.92 368.387 398.88 365.734 396.48C363.156 394.24 362.323 393.92 361.564 395.2Z" fill="#260228"/>
<path d="M86.7703 399.12C86.7703 400.72 87.4525 402.08 89.1202 403.52C91.6976 405.84 92.9863 406.08 94.1992 404.56C95.3363 403.12 92.6831 400 90.2573 400C88.817 400 88.2864 399.6 88.2864 398.4C88.2864 397.52 87.9831 396.8 87.5283 396.8C87.1493 396.8 86.7703 397.84 86.7703 399.12Z" fill="#260228"/>
<path d="M114.591 397.28C113.605 398.32 114.06 399.2 115.652 399.2C116.486 399.2 117.092 398.8 116.941 398.24C116.562 397.12 115.273 396.56 114.591 397.28Z" fill="#260228"/>
<path d="M-29.2117 402C-29.4391 406.56 -30.1972 407.6 -33.2294 407.36C-36.4132 407.04 -37.0954 408.56 -34.0632 408.96C-32.4713 409.12 -31.8649 409.92 -30.9552 412.64C-29.5907 417.04 -30.0456 418.88 -32.1681 417.44C-33.002 416.88 -33.9116 416.72 -34.2148 417.04C-34.8971 417.76 -32.3197 420.8 -30.273 421.6C-28.8327 422.24 -28.6811 422.72 -29.0601 426.56C-29.2117 428.88 -29.9698 431.84 -30.7278 433.2C-31.4859 434.48 -32.3197 437.12 -32.6229 438.96C-33.0778 442.16 -33.002 442.24 -31.3342 441.84C-30.3488 441.6 -28.5295 440.16 -27.165 438.56L-24.7392 435.6L-22.6924 437.6C-20.4183 439.84 -17.9167 445.12 -17.8409 447.68C-17.8409 449.28 -16.4764 450.4 -12.3071 452C-10.1088 452.8 -9.57813 454.96 -11.3975 455.68C-13.2168 456.4 -12.762 457.44 -10.4878 457.76C-8.13783 458 -7.15236 460 -9.35072 460C-11.6249 460 -11.7765 460.72 -9.80555 463.84C-7.53139 467.6 -7.30397 467.84 -4.34757 469.68C-1.16375 471.68 0.276558 474.72 -1.08794 476.88C-1.84599 478.32 -1.69438 478.8 0.428165 480.88C1.71686 482.16 3.38457 483.2 4.06682 483.2C4.74907 483.2 6.6442 484.88 8.23611 486.88C10.7377 490 11.0409 490.8 10.3587 492.08C9.14577 494.16 9.22158 496 10.5861 496C12.8602 496 11.4957 501.44 9.06997 502.08C8.0845 502.32 6.56839 503.44 5.58292 504.48C3.38457 506.88 2.39911 506.88 1.11041 504.4C0.579777 503.36 -1.23955 501.44 -2.90726 500.24C-5.86367 498.08 -5.86367 498 -5.48465 493.92C-5.10562 489.84 -5.10562 489.76 -7.30397 489.28C-9.1233 488.88 -9.50233 488.48 -9.50233 486.48C-9.50233 484.72 -10.033 483.76 -11.3217 483.04C-12.3071 482.48 -14.9603 479.84 -17.2345 477.2C-26.3311 466.48 -26.3311 466.48 -30.0456 465.92L-33.5326 465.44L-34.0632 468.4C-34.4423 470.24 -34.2907 471.76 -33.6842 472.48C-32.6987 473.76 -29.9698 474 -29.9698 472.8C-29.9698 472.32 -28.9085 472 -27.6956 472C-25.8005 472 -25.4214 472.32 -25.4214 473.92C-25.4214 474.96 -24.8908 476.24 -24.2844 476.8C-23.6779 477.36 -23.1473 478.32 -23.1473 479.04C-23.1473 479.68 -22.6924 480.88 -22.086 481.52C-21.5554 482.24 -18.3715 488.32 -15.1119 495.04C-8.74427 508.16 -7.22817 510.4 -4.8782 510.4C-2.75565 510.4 1.11041 513.44 1.11041 515.04C1.11041 515.76 0.428165 517.28 -0.329887 518.32C-2.37663 521.2 -7.00075 520.32 -11.17 516.4C-14.1264 513.52 -14.4297 513.44 -18.5232 513.84C-20.8731 514.08 -23.3747 514 -24.0569 513.76C-26.1037 512.88 -34.5181 504.72 -34.5181 503.52C-34.5181 502.96 -34.8213 502.24 -35.2761 502C-35.731 501.68 -36.0342 503.12 -35.9584 505.76C-35.9584 509.84 -35.8068 510.16 -32.1681 513.36C-29.0601 516.16 -27.8472 516.8 -25.3456 516.8C-22.5408 516.8 -19.2812 518.24 -12.5345 522.56C-5.86367 526.8 -1.08794 525.52 4.90068 517.84C9.67641 511.84 11.9506 509.2 17.636 503.04L22.5633 497.68L19.5311 494.16C17.7876 492.24 16.1957 489.44 15.8924 487.92C15.3618 485.2 12.8602 481.6 11.4957 481.6C11.0409 481.6 9.29738 480.4 7.47805 478.96C4.59745 476.72 4.06682 475.76 3.00554 471.04C2.09588 467.28 1.26202 465.52 0.35236 465.2C-1.9218 464.4 -2.90726 462.56 -2.98307 458.48C-3.05888 455.6 -3.66532 453.84 -5.18143 451.76C-6.3185 450.16 -7.22817 448.4 -7.22817 447.68C-7.22817 447.04 -7.53139 446.32 -7.91041 446.08C-9.04749 445.28 -14.0506 435.92 -14.0506 434.56C-14.0506 433.84 -14.5813 432.16 -15.1877 430.88C-15.7942 429.68 -16.3248 428 -16.3248 427.28C-16.3248 426.48 -16.8554 425.2 -17.4619 424.32C-18.0683 423.52 -18.599 422.24 -18.599 421.6C-18.599 420.96 -19.2812 419.04 -20.1151 417.36C-20.9489 415.76 -21.6312 413.76 -21.6312 412.96C-21.6312 412.24 -22.3134 411.12 -23.2231 410.56C-24.0569 410 -25.7247 407.28 -26.9375 404.56C-28.9085 400.08 -29.1359 399.84 -29.2117 402ZM-26.6343 411.2C-25.573 411.6 -24.6634 412.56 -24.6634 413.2C-24.6634 415.04 -26.8617 414.4 -28.302 412.16C-29.5149 410.16 -29.3633 410.08 -26.6343 411.2Z" fill="#260228"/>
</g>
<rect x="1" y="1" width="398" height="398" rx="199" stroke="#2D0230" stroke-width="2"/>
<defs>
<clipPath id="clip0_348_2846">
<rect width="400" height="400" rx="200" fill="white"/>
</clipPath>
</defs>
</svg>
