<svg width="60" height="54" viewBox="0 0 60 54" fill="none" xmlns="http://www.w3.org/2000/svg">
<path d="M23.4658 16.2512C23.4654 16.9805 23.1697 17.6798 22.6437 18.1953C22.1177 18.7107 21.4044 19.0001 20.6609 18.9997C19.9174 18.9993 19.2045 18.7093 18.679 18.1933C18.1535 17.6774 17.8585 16.9778 17.8589 16.2485C17.8593 15.5192 18.155 14.8199 18.681 14.3044C19.207 13.789 19.9202 13.4996 20.6637 13.5C21.4072 13.5004 22.1202 13.7904 22.6457 14.3064C23.1711 14.8223 23.4661 15.5219 23.4658 16.2512ZM23.5499 21.036H17.943V38.25H23.5499V21.036ZM32.4087 21.036H26.8299V38.25H32.3527V29.2168C32.3527 24.1845 39.0389 23.7171 39.0389 29.2168V38.25H44.5757V27.3469C44.5757 18.8636 34.6795 19.1798 32.3527 23.3458L32.4087 21.036Z" fill="#D5CCD6"/>
</svg>
