<svg width="79" height="30" viewBox="0 0 79 30" fill="none" xmlns="http://www.w3.org/2000/svg">
<path d="M15.276 0.247998C19.5827 0.247998 23.1073 1.44933 25.85 3.852C28.57 6.27733 29.93 9.38267 29.93 13.168C29.93 15.8427 29.352 18.03 28.196 19.73C27.0173 21.43 25.3853 22.28 23.3 22.28C22.1213 22.28 21.124 22.0193 20.308 21.498C19.5147 20.9767 18.982 20.2513 18.71 19.322C17.826 21.2487 16.262 22.212 14.018 22.212C12.1593 22.212 10.6747 21.5433 9.564 20.206C8.45333 18.8687 7.898 16.9987 7.898 14.596C7.898 12.2613 8.46467 10.4253 9.598 9.088C10.7313 7.728 12.2047 7.048 14.018 7.048C15.854 7.048 17.214 7.762 18.098 9.19V7.456H21.94V16.568C21.94 18.1773 22.5293 18.982 23.708 18.982C24.6373 18.982 25.3513 18.472 25.85 17.452C26.3487 16.432 26.598 15.0493 26.598 13.304C26.598 10.3573 25.5893 7.94333 23.572 6.062C21.5773 4.20333 18.8007 3.274 15.242 3.274C11.774 3.274 9.00867 4.328 6.946 6.436C4.86067 8.56667 3.818 11.3207 3.818 14.698C3.818 18.2113 4.89467 21.0107 7.048 23.096C9.17867 25.1587 11.9893 26.19 15.48 26.19C17.996 26.19 20.24 25.782 22.212 24.966V27.924C20.1493 28.7173 17.8827 29.114 15.412 29.114C10.924 29.114 7.30867 27.788 4.566 25.136C1.82333 22.4613 0.452 18.982 0.452 14.698C0.452 10.5273 1.82333 7.07067 4.566 4.328C7.286 1.608 10.856 0.247998 15.276 0.247998ZM11.774 14.596C11.774 17.588 12.8393 19.084 14.97 19.084C17.1007 19.084 18.166 17.588 18.166 14.596C18.166 13.2133 17.8827 12.1367 17.316 11.366C16.772 10.5727 15.99 10.176 14.97 10.176C12.8393 10.176 11.774 11.6493 11.774 14.596Z" fill="#502C53"/>
<path d="M40.295 7.456V9.156H36.215V21.328C36.215 22.7107 37.0423 23.402 38.697 23.402C39.5583 23.402 40.091 23.3907 40.295 23.368V25C39.6376 25.068 39.0256 25.102 38.459 25.102C35.6936 25.102 34.311 23.9007 34.311 21.498V9.156H31.319V7.456H34.311V2.492H36.215V7.456H40.295ZM45.0823 4.804H43.0423V1.608H45.0823V4.804ZM45.0483 25H43.1103V7.456H45.0483V25ZM55.2741 25.408C53.0301 25.408 51.2847 24.9093 50.0381 23.912C48.7914 22.9147 48.1114 21.464 47.9981 19.56H49.9701C50.1967 22.348 51.9647 23.742 55.2741 23.742C58.5381 23.742 60.1701 22.6313 60.1701 20.41C60.1701 19.5033 59.8414 18.8007 59.1841 18.302C58.5267 17.8033 57.4161 17.4067 55.8521 17.112L54.0501 16.806C52.1687 16.466 50.7747 15.8993 49.8681 15.106C48.9841 14.29 48.5421 13.202 48.5421 11.842C48.5421 10.346 49.0974 9.17867 50.2081 8.34C51.3187 7.47867 52.8601 7.048 54.8321 7.048C59.2974 7.048 61.6094 8.86133 61.7681 12.488H59.7961C59.7054 11.196 59.2634 10.244 58.4701 9.632C57.6767 9.02 56.4641 8.714 54.8321 8.714C53.4494 8.714 52.3727 8.986 51.6021 9.53C50.8541 10.074 50.4801 10.8333 50.4801 11.808C50.4801 12.7147 50.7974 13.4173 51.4321 13.916C52.0894 14.4147 53.1547 14.8 54.6281 15.072L56.3961 15.378C58.4134 15.7407 59.8641 16.3187 60.7481 17.112C61.6547 17.8827 62.1081 18.948 62.1081 20.308C62.1081 21.9627 61.4961 23.232 60.2721 24.116C59.0707 24.9773 57.4047 25.408 55.2741 25.408ZM72.6752 7.048C74.6472 7.048 76.1772 7.60333 77.2652 8.714C78.3532 9.82467 78.8972 11.4 78.8972 13.44V25H76.9592V13.61C76.9592 10.3913 75.4065 8.782 72.3012 8.782C70.8732 8.782 69.6265 9.326 68.5612 10.414C67.5185 11.502 66.9745 13.0887 66.9292 15.174V25H64.9912V0.792H66.9292V10.516C67.4958 9.428 68.2778 8.578 69.2752 7.966C70.2725 7.354 71.4058 7.048 72.6752 7.048Z" fill="#968097"/>
</svg>
