<svg width="135" height="150" viewBox="0 0 135 150" fill="none" xmlns="http://www.w3.org/2000/svg">
<path fill-rule="evenodd" clip-rule="evenodd" d="M93.8366 7.09456H41.1371C39.1498 7.09456 37.5242 5.49827 37.5242 3.5473C37.5242 1.59625 39.1498 0 41.1371 0H93.8366C95.8239 0 97.4493 1.59625 97.4493 3.5473C97.4493 5.49827 95.8239 7.09456 93.8366 7.09456ZM111.179 21.3853H23.8452C21.8323 21.3853 20.2321 19.7891 20.2321 17.8378C20.2321 15.8869 21.8581 14.2907 23.8452 14.2907H111.179C113.166 14.2907 114.792 15.8869 114.792 17.8378C114.792 19.7891 113.166 21.3853 111.179 21.3853ZM114.148 100.034H20.8528C18.8656 100.034 17.2398 101.63 17.2398 103.581C17.2398 105.532 18.8656 107.128 20.8528 107.128H114.148C116.135 107.128 117.761 105.532 117.761 103.581C117.761 101.63 116.135 100.034 114.148 100.034ZM35.3566 114.324H99.6438C101.631 114.324 103.257 115.921 103.231 117.872C103.231 119.822 101.605 121.419 99.6182 121.419H35.3566C33.3695 121.419 31.7435 119.822 31.7435 117.872C31.7435 115.921 33.3695 114.324 35.3566 114.324ZM85.0883 128.615H49.9123C47.9251 128.615 46.2993 130.211 46.2993 132.162C46.2993 134.113 47.9251 135.709 49.9123 135.709H85.0883C87.0756 135.709 88.7014 134.113 88.7014 132.162C88.7014 130.211 87.0756 128.615 85.0883 128.615ZM64.4683 142.905H70.5328C72.5201 142.905 74.1459 144.502 74.1459 146.452C74.1459 148.404 72.5201 150 70.5328 150H64.4683C62.4805 150 60.8547 148.404 60.8547 146.452C60.8547 144.502 62.4805 142.905 64.4683 142.905ZM5.29018 49.9662H26.3235C28.3106 49.9662 29.9367 48.3695 29.9367 46.4191C29.9367 44.4682 28.3106 42.8716 26.3235 42.8716H5.26435C3.27716 42.8716 1.65127 44.4682 1.65127 46.4191C1.6771 48.3695 3.27716 49.9662 5.29018 49.9662ZM34.9695 35.6755H10.607C8.61977 35.6755 6.99388 34.0793 6.99388 32.1284C6.99388 30.1771 8.61977 28.5809 10.607 28.5809H34.9695C36.9566 28.5809 38.5828 30.1771 38.5828 32.1284C38.5828 34.0793 36.9566 35.6755 34.9695 35.6755ZM38.5828 89.2907C38.5828 87.3398 36.9566 85.7432 34.9695 85.7432H10.607C8.61977 85.7432 6.99388 87.3398 6.99388 89.2907C6.99388 91.2416 8.61977 92.8378 10.607 92.8378H34.9695C36.9566 92.8378 38.5828 91.2416 38.5828 89.2907ZM26.3239 71.4525C28.3111 71.4525 29.937 73.0487 29.937 75C29.937 76.9513 28.3111 78.5475 26.3239 78.5475H5.29059C3.30339 78.5475 1.67751 76.9513 1.67751 75C1.67751 73.0487 3.30339 71.4525 5.29059 71.4525H26.3239ZM23.8464 64.2564C25.8335 64.2564 27.4595 62.6602 27.4595 60.7093C27.4595 58.758 25.8335 57.1622 23.8464 57.1622H3.61308C1.62589 57.1622 0 58.758 0 60.7093C0 62.6602 1.62589 64.2564 3.61308 64.2564H23.8464ZM108.677 49.9662C106.69 49.9662 105.063 48.3695 105.063 46.4191C105.063 44.4682 106.69 42.8716 108.677 42.8716H129.736C131.723 42.8716 133.349 44.4682 133.349 46.4191C133.349 48.3695 131.723 49.9662 129.736 49.9662H108.677ZM96.4433 32.1284C96.4433 34.0793 98.0695 35.6755 100.056 35.6755H124.394C126.38 35.6755 128.006 34.0793 128.006 32.1284C128.006 30.1776 126.38 28.5809 124.394 28.5809H100.031C98.0435 28.5809 96.4433 30.1776 96.4433 32.1284ZM100.031 85.7432H124.394C126.381 85.7432 128.007 87.3398 128.007 89.2907C128.007 91.242 126.381 92.8378 124.394 92.8378H100.031C98.044 92.8378 96.4182 91.242 96.4182 89.2907C96.4182 87.3398 98.044 85.7432 100.031 85.7432ZM129.735 71.4525H108.702C106.714 71.4525 105.088 73.0487 105.088 75C105.088 76.9513 106.714 78.5471 108.702 78.5471H129.735C131.722 78.5471 133.348 76.9513 133.348 75C133.348 73.0487 131.722 71.4525 129.735 71.4525ZM111.153 57.1622H131.387C133.4 57.1622 135 58.758 135 60.7093C135 62.6602 133.374 64.2564 131.387 64.2564H111.153C109.166 64.2564 107.54 62.6602 107.54 60.7093C107.54 58.758 109.166 57.1622 111.153 57.1622Z" fill="#260228"/>
<path d="M67.586 28.6369C65.5987 28.6369 63.9725 30.2335 63.9725 32.1844V51.3398C62.579 51.8466 61.3407 52.6321 60.3078 53.6458C58.4497 55.4698 57.2886 58.0036 57.2886 60.7657C57.2886 63.5274 58.4497 66.0866 60.3078 67.8853C62.1664 69.7098 64.7471 70.8498 67.56 70.8498C70.373 70.8498 72.9796 69.7098 74.8122 67.8853C75.8442 66.8974 76.6443 65.6558 77.1605 64.2875H90.2709C92.2582 64.2875 93.884 62.6912 93.884 60.7404C93.884 58.7895 92.2582 57.1928 90.2709 57.1928H77.1605C76.6443 55.8245 75.8442 54.6083 74.8122 53.5946C73.8058 52.5813 72.541 51.7959 71.1475 51.2895V32.1337C71.1991 30.2335 69.5729 28.6369 67.586 28.6369ZM69.728 62.8937C69.1602 63.4513 68.4373 63.7806 67.56 63.7806C66.7083 63.7806 65.9598 63.4513 65.3924 62.8937C64.8246 62.3366 64.4892 61.6268 64.4892 60.7657C64.4892 59.9296 64.8246 59.1944 65.3924 58.6373C65.9598 58.0797 66.6823 57.7504 67.56 57.7504C68.4117 57.7504 69.1602 58.0797 69.728 58.6373C70.2958 59.1944 70.6313 59.9038 70.6313 60.7657C70.6313 61.6014 70.2958 62.3366 69.728 62.8937Z" fill="#495A8C"/>
</svg>
