<svg width="150" height="150" viewBox="0 0 150 150" fill="none" xmlns="http://www.w3.org/2000/svg">
<path d="M47.025 61.875C33.15 89.7 21.75 112.725 21.75 112.95C21.75 113.55 25.875 113.175 43.875 111.075C73.05 107.625 109.5 104.85 116.1 105.6L119.25 105.9L111.45 89.925C88.65 42.825 73.05 11.25 72.75 11.25C72.525 11.25 60.975 34.05 47.025 61.875ZM83.85 52.95C89.775 66.375 94.5 77.475 94.35 77.625C94.2 77.7 89.25 75.675 83.325 73.05L72.525 68.325L61.35 73.125C53.1 76.65 50.25 77.55 50.625 76.65C52.35 72.075 72.375 28.5 72.675 28.5C72.9 28.5 77.925 39.525 83.85 52.95Z" fill="#260228"/>
<path d="M94.9499 108.825C75.1499 110.1 37.5749 114.525 26.2499 117C23.9999 117.45 33.5999 117.6 55.8749 117.375L88.8749 117.075L76.1249 120.675C49.2749 128.25 44.6999 130.275 45.1499 134.475C45.5999 139.275 49.4999 139.575 80.9999 137.25C91.9499 136.425 105.675 135.75 111.525 135.75C117.375 135.75 122.775 135.525 123.525 135.225C126.3 134.1 110.175 132.75 88.4999 132.3C76.3499 132 67.0499 131.55 67.8749 131.25C68.7749 130.95 80.5499 127.875 94.1249 124.425C119.7 117.975 122.25 117 122.25 113.4C122.25 108.3 117 107.4 94.9499 108.825Z" fill="#260228"/>
</svg>
