<svg width="150" height="150" viewBox="0 0 150 150" fill="none" xmlns="http://www.w3.org/2000/svg">
<path d="M135.258 0.130587C139.037 1.63009 139.645 3.07334 141.298 6.52151C141.815 7.57335 142.332 8.62519 142.864 9.70891C143.381 10.814 143.898 11.9191 144.431 13.0577C144.971 14.1681 145.51 15.2785 146.067 16.4226C147.397 19.1667 148.707 21.9178 150 24.6776C148.007 25.5057 148.007 25.5057 145.974 26.3506C121.429 36.9035 107.367 51.8211 97.7319 75.2791C91.4835 91.4999 86.6738 108.218 81.6484 124.791C78.9451 133.274 75.8396 141.625 72.7723 150C61.9901 150 51.2079 150 40.099 150C32.4531 130.873 24.964 111.696 17.5092 92.5052C12.6549 80.0151 7.77764 67.5343 2.71504 55.1152C0 48.3841 0 48.3841 0 45.3351C10.7822 45.3351 21.5644 45.3351 32.6733 45.3351C37.2215 56.1803 37.2215 56.1803 38.7458 59.8176C41.1472 65.5472 43.5535 71.275 45.97 76.9992C46.4332 78.0984 46.8963 79.1975 47.3736 80.3299C48.2587 82.4299 49.1455 84.5293 50.0342 86.628C52.3379 92.0996 54.4914 97.583 56.4356 103.176C56.7117 102.325 56.9877 101.474 57.2721 100.596C60.425 90.8884 63.619 81.1924 66.8317 71.5013C67.1873 70.4178 67.5429 69.3342 67.9093 68.2178C77.3658 39.5684 93.0969 19.17 121.597 4.62253C122.551 4.1279 123.505 3.63326 124.489 3.12364C131.261 -0.183564 131.261 -0.183564 135.258 0.130587Z" fill="#260228"/>
</svg>
